<svg xmlns="http://www.w3.org/2000/svg" xmlns:xlink="http://www.w3.org/1999/xlink" width="500" zoomAndPan="magnify" viewBox="0 0 375 374.999991" height="500" preserveAspectRatio="xMidYMid meet" version="1.0"><defs><clipPath id="1b921d0241"><path d="M 0.0742188 0.761719 L 371.25 0.761719 L 371.25 374.675781 L 0.0742188 374.675781 Z M 0.0742188 0.761719 " clip-rule="nonzero"/></clipPath></defs><g clip-path="url(#1b921d0241)"><path fill="#005437" d="M 265.410156 163.621094 C 260.332031 164.421875 247.339844 164.785156 259.316406 175.015625 C 259.316406 175.015625 261.492188 175.160156 255.613281 178.644531 C 249.734375 182.128906 268.75 184.234375 271 186.703125 C 273.25 189.242188 252.058594 186.484375 252.492188 192.871094 C 252.929688 199.257812 248.863281 195.191406 262.945312 210.214844 C 262.945312 210.214844 254.523438 208.257812 253.507812 209.417969 C 252.492188 210.652344 272.015625 226.761719 271.871094 231.335938 C 271.871094 231.335938 267.878906 234.09375 266.210938 231.699219 C 264.539062 229.304688 252.78125 216.238281 250.824219 215.878906 C 249.371094 215.585938 246.613281 216.238281 245.378906 218.78125 C 245.378906 218.78125 250.53125 230.753906 248.9375 231.117188 C 247.339844 231.480469 239.285156 225.746094 239.285156 225.746094 C 239.285156 225.746094 233.984375 228.070312 235.726562 232.859375 C 237.46875 237.648438 251.765625 253.90625 250.96875 254.921875 C 250.96875 254.921875 249.734375 257.609375 247.921875 257.390625 C 246.105469 257.171875 236.164062 239.246094 233.695312 238.519531 C 231.226562 237.796875 236.527344 255.285156 236.527344 255.285156 C 236.527344 255.285156 227.597656 245.851562 225.203125 243.890625 C 222.808594 241.933594 222.445312 245.996094 222.445312 245.996094 L 225.058594 265.953125 C 225.058594 265.953125 197.117188 224.367188 204.011719 273.9375 C 204.011719 273.9375 203.359375 276.769531 202.414062 276.695312 C 201.472656 276.625 195.519531 260.292969 196.246094 255.792969 C 196.972656 251.292969 191.382812 268.132812 191.382812 268.132812 C 191.382812 268.132812 182.601562 233.367188 164.53125 269.003906 C 164.53125 269.003906 163.296875 255.578125 160.464844 253.253906 C 157.707031 250.929688 155.386719 249.699219 154.660156 250.132812 C 154.007812 250.570312 147.546875 256.664062 145.078125 257.246094 C 142.613281 257.828125 147.113281 249.191406 143.335938 246.722656 C 143.335938 246.722656 143.699219 244.328125 141.523438 240.84375 C 139.347656 237.359375 137.242188 238.667969 124.757812 252.09375 C 124.757812 252.09375 129.984375 239.320312 129.910156 234.890625 C 129.839844 230.464844 124.976562 229.449219 124.976562 229.449219 C 124.976562 229.449219 115.902344 236.34375 113.292969 235.546875 C 110.679688 234.675781 117.644531 226.253906 117.792969 223.859375 C 117.863281 223.136719 116.773438 223.425781 116.773438 223.425781 C 116.773438 223.425781 115.6875 222.625 106.542969 227.996094 L 91.734375 237.433594 C 90.648438 236.777344 89.195312 236.925781 89.632812 233.367188 C 89.777344 232.351562 117.28125 219.433594 116.050781 218.054688 C 114.816406 216.675781 105.597656 214.425781 105.597656 214.425781 C 105.597656 214.425781 111.332031 207.457031 109.664062 206.734375 C 107.921875 206.007812 95.363281 204.917969 95.363281 204.917969 C 95.363281 204.917969 93.1875 201.433594 93.625 202.160156 C 94.058594 202.886719 105.886719 200.273438 105.886719 200.273438 L 97.976562 194.03125 C 97.976562 194.03125 118.007812 190.476562 100.300781 179.878906 C 93.769531 175.960938 86.945312 173.273438 79.542969 171.894531 C 98.414062 172.839844 110.894531 168.050781 108.792969 161.15625 C 108.792969 161.15625 108.210938 158.6875 89.414062 151.792969 C 89.414062 151.792969 89.921875 149.542969 91.15625 149.253906 C 92.390625 148.960938 111.984375 156.074219 110.605469 154.984375 C 109.226562 153.824219 102.042969 145.839844 103.347656 145.988281 C 104.65625 146.058594 113.800781 149.90625 116.847656 147.074219 C 119.75 144.316406 121.566406 139.308594 123.523438 138.222656 C 125.410156 137.132812 118.445312 130.601562 127.660156 133.648438 C 127.660156 133.648438 133.902344 130.09375 128.96875 124.359375 C 124.03125 118.550781 108.355469 100.046875 133.902344 122.398438 C 140 127.769531 155.3125 111.441406 154.078125 102.511719 C 154.078125 102.511719 160.175781 108.683594 161.480469 109.335938 C 162.789062 109.988281 171.351562 111.003906 173.3125 108.027344 C 174.183594 106.648438 170.191406 94.023438 172.730469 88.433594 C 172.730469 88.433594 173.820312 88.433594 174.835938 89.523438 C 175.851562 90.609375 175.996094 103.890625 180.640625 106.433594 C 180.640625 106.433594 185.867188 103.382812 186.738281 101.0625 C 187.609375 98.8125 185.359375 115.285156 200.964844 108.175781 C 200.964844 108.175781 208.582031 101.425781 210.761719 101.207031 C 212.9375 100.988281 209.164062 109.261719 211.050781 112.164062 C 213.011719 115.140625 219.398438 117.101562 221.429688 113.398438 C 223.460938 109.699219 233.257812 102.367188 233.984375 102.660156 C 234.710938 102.949219 228.976562 118.261719 228.324219 119.714844 C 227.382812 121.890625 226.726562 125.15625 226.726562 125.15625 C 226.726562 125.15625 227.453125 129.4375 232.824219 130.601562 C 232.824219 130.601562 242.914062 124.722656 253.363281 117.101562 C 252.273438 118.40625 251.1875 119.785156 250.023438 121.238281 C 250.023438 121.238281 236.453125 135.171875 236.453125 137.203125 C 236.453125 139.238281 241.097656 143.738281 244.871094 141.195312 C 248.644531 138.65625 257.863281 134.882812 258.660156 135.535156 C 259.460938 136.1875 260.910156 138.074219 259.023438 139.164062 C 257.136719 140.253906 246.46875 145.839844 246.46875 145.839844 C 246.46875 145.839844 258.660156 146.640625 273.539062 143.664062 C 257.425781 150.195312 251.839844 160.210938 251.910156 161.15625 C 252.417969 164.347656 277.457031 157.816406 278.183594 159.414062 C 281.957031 167.832031 270.417969 162.75 265.410156 163.621094 M 371.300781 164.277344 C 371.15625 163.332031 368.6875 162.460938 367.089844 161.082031 C 361.574219 156.4375 341.761719 136.988281 302.789062 138.222656 C 297.851562 138.367188 293.351562 138.875 289.289062 139.527344 C 297.5625 136.84375 301.917969 135.246094 304.382812 134.230469 C 307.433594 132.996094 327.246094 126.246094 337.988281 91.265625 C 338.929688 88.289062 341.472656 81.101562 340.816406 80.523438 C 340.019531 79.871094 333.34375 81.03125 326.59375 85.167969 C 319.84375 89.304688 297.054688 92.859375 294.367188 93.296875 C 292.773438 93.585938 286.09375 92.570312 276.078125 97.796875 C 287.328125 86.257812 299.304688 69.78125 302.496094 46.773438 C 304.019531 35.742188 303.367188 31.171875 302.933594 31.242188 C 302.28125 31.242188 301.917969 31.242188 301.046875 31.535156 C 298.503906 32.257812 295.964844 34.363281 287.691406 39.953125 C 279.417969 45.46875 270.636719 51.636719 270.636719 51.636719 C 270.636719 51.636719 273.613281 21.519531 272.742188 20.792969 C 271.796875 20.140625 254.742188 20.285156 228.46875 49.53125 C 228.46875 49.53125 231.445312 24.492188 226.511719 15.058594 C 226.511719 15.058594 225.132812 8.238281 224.042969 4.679688 C 223.535156 2.867188 222.082031 0.980469 221.863281 1.195312 C 221.574219 1.414062 219.253906 1.777344 215.550781 6.058594 C 209.746094 12.664062 182.820312 20.792969 178.390625 55.628906 C 175.054688 41.550781 167.867188 22.753906 150.234375 13.246094 C 140.21875 3.445312 135.789062 0.542969 135.28125 0.835938 C 134.847656 1.050781 134.992188 5.40625 133.539062 15.203125 C 131.796875 26.164062 130.347656 29.648438 130.347656 29.648438 C 130.347656 29.648438 111.765625 13.316406 111.332031 12.808594 C 110.460938 11.9375 99.140625 47.71875 102.476562 65.570312 C 102.476562 65.570312 96.597656 61 85.929688 55.554688 C 73.808594 49.316406 53.488281 48.226562 53.632812 49.242188 C 53.851562 50.839844 70.835938 83.933594 77.945312 95.546875 C 77.945312 95.546875 32.296875 87.707031 33.09375 90.539062 C 33.386719 91.480469 34.472656 93.296875 36.214844 100.917969 C 36.214844 100.917969 18.289062 100.554688 18.507812 102.003906 C 18.796875 103.675781 32.078125 125.664062 33.09375 126.898438 C 33.09375 126.898438 19.234375 129.585938 16.328125 129.730469 C 14.371094 129.800781 25.621094 160.863281 56.390625 168.628906 C 61.035156 169.792969 65.535156 170.664062 69.816406 171.242188 C 59.730469 171.023438 48.554688 173.128906 35.707031 177.921875 C 35.707031 177.921875 28.304688 180.824219 24.386719 183.945312 C 20.464844 187.066406 0.871094 190.332031 -0.0742188 193.234375 C 0.363281 195.339844 23.804688 211.378906 23.804688 211.378906 C 23.804688 211.378906 10.089844 218.054688 9.144531 219.359375 C 8.492188 220.230469 7.984375 221.03125 8.128906 221.246094 C 8.273438 221.464844 9.21875 222.554688 11.613281 224.078125 C 17.128906 227.488281 65.972656 232.570312 68.949219 231.410156 C 71.921875 230.246094 42.382812 263.414062 41.949219 280.105469 C 41.949219 280.105469 46.8125 280.46875 49.496094 280.6875 C 51.601562 280.832031 40.570312 301.589844 42.601562 301.515625 C 55.882812 300.9375 77.875 288.089844 82.011719 285.1875 C 86.148438 282.210938 91.808594 277.855469 93.261719 276.40625 C 94.785156 274.953125 83.609375 294.914062 88.179688 312.476562 C 88.179688 312.476562 89.632812 326.121094 89.703125 328.804688 C 89.703125 331.5625 93.625 331.5625 93.625 333.378906 C 93.550781 335.628906 104.363281 324.8125 109.515625 320.675781 C 114.671875 316.539062 121.566406 308.558594 124.976562 303.257812 C 128.316406 298.035156 125.339844 344.480469 123.960938 353.410156 C 123.523438 356.3125 124.179688 356.601562 124.613281 357.546875 C 124.757812 357.835938 129.546875 353.917969 131.074219 352.902344 C 133.324219 351.375 156.621094 320.097656 158.070312 312.257812 C 158.070312 312.257812 170.480469 366.835938 174.691406 372.714844 C 175.632812 373.949219 176.359375 375.398438 177.011719 374.382812 C 178.246094 372.425781 180.132812 367.34375 181.511719 366.910156 C 183.328125 366.398438 188.554688 365.746094 191.3125 357.910156 C 194.070312 350.144531 199.003906 342.523438 201.398438 322.347656 C 201.398438 322.347656 227.816406 356.023438 231.226562 359.140625 C 232.605469 360.375 239.792969 348.472656 242.914062 329.242188 C 246.105469 310.082031 239.285156 284.242188 234.929688 283.375 C 234.929688 283.375 233.113281 280.542969 238.121094 282.355469 C 240.953125 283.375 251.984375 302.460938 277.3125 316.976562 C 281.59375 319.445312 290.667969 319.445312 290.738281 319.296875 C 292.773438 313.566406 272.886719 261.527344 272.886719 261.527344 C 272.886719 261.527344 273.394531 260.945312 277.386719 262.542969 C 281.378906 264.214844 319.40625 288.742188 342.414062 277.203125 C 347.058594 274.882812 347.347656 274.375 347.347656 274.375 C 349.960938 263.050781 329.714844 241.570312 317.230469 231.84375 C 317.230469 231.84375 349.960938 230.539062 354.96875 221.828125 C 354.96875 221.828125 360.992188 219.652344 364.113281 215.371094 C 364.695312 214.644531 360.558594 207.167969 355.839844 203.828125 C 343.503906 195.265625 340.816406 192 340.816406 192 C 340.816406 192 344.300781 187.789062 349.238281 186.265625 C 354.171875 184.742188 370.355469 174.726562 366.074219 169.863281 C 366.292969 170.007812 371.515625 165.4375 371.300781 164.277344 " fill-opacity="1" fill-rule="nonzero"/></g></svg>