<svg xmlns="http://www.w3.org/2000/svg" xmlns:xlink="http://www.w3.org/1999/xlink" width="650" zoomAndPan="magnify" viewBox="0 0 487.5 149.999998" height="200" preserveAspectRatio="xMidYMid meet" version="1.0"><defs><g/><clipPath id="c2b91cae21"><path d="M 379 74 L 390 74 L 390 84 L 379 84 Z M 379 74 " clip-rule="nonzero"/></clipPath><clipPath id="eb9e10cdc4"><path d="M 358.113281 49.691406 L 414.226562 52.640625 L 411.28125 108.753906 L 355.164062 105.804688 Z M 358.113281 49.691406 " clip-rule="nonzero"/></clipPath><clipPath id="0a3ea84a48"><path d="M 358.113281 49.691406 L 414.226562 52.640625 L 411.28125 108.753906 L 355.164062 105.804688 Z M 358.113281 49.691406 " clip-rule="nonzero"/></clipPath><clipPath id="f7f006c4ee"><path d="M 356 51 L 413 51 L 413 108 L 356 108 Z M 356 51 " clip-rule="nonzero"/></clipPath><clipPath id="e56d48fda6"><path d="M 358.113281 49.691406 L 414.226562 52.640625 L 411.28125 108.753906 L 355.164062 105.804688 Z M 358.113281 49.691406 " clip-rule="nonzero"/></clipPath><clipPath id="be69f70e40"><path d="M 358.113281 49.691406 L 414.226562 52.640625 L 411.28125 108.753906 L 355.164062 105.804688 Z M 358.113281 49.691406 " clip-rule="nonzero"/></clipPath><clipPath id="07617ef6ad"><rect x="0" width="27" y="0" height="82"/></clipPath></defs><g fill="#005437" fill-opacity="1"><g transform="translate(-1.284724, 103.222497)"><g><path d="M 26.046875 0.359375 C 22.753906 0.359375 19.644531 -0.265625 16.71875 -1.515625 C 13.800781 -2.765625 11.238281 -4.53125 9.03125 -6.8125 C 6.820312 -9.09375 5.09375 -11.796875 3.84375 -14.921875 C 2.59375 -18.054688 1.96875 -21.550781 1.96875 -25.40625 C 1.96875 -28.882812 2.601562 -32.128906 3.875 -35.140625 C 5.144531 -38.160156 6.910156 -40.820312 9.171875 -43.125 C 11.429688 -45.425781 14.078125 -47.222656 17.109375 -48.515625 C 20.148438 -49.816406 23.429688 -50.46875 26.953125 -50.46875 C 31.566406 -50.46875 35.640625 -49.476562 39.171875 -47.5 C 42.703125 -45.519531 45.3125 -42.863281 47 -39.53125 L 38.390625 -33.03125 C 37.265625 -35.238281 35.628906 -36.976562 33.484375 -38.25 C 31.347656 -39.519531 29.03125 -40.15625 26.53125 -40.15625 C 24.65625 -40.15625 22.925781 -39.765625 21.34375 -38.984375 C 19.769531 -38.210938 18.40625 -37.132812 17.25 -35.75 C 16.101562 -34.363281 15.222656 -32.75 14.609375 -30.90625 C 13.992188 -29.070312 13.6875 -27.097656 13.6875 -24.984375 C 13.6875 -22.816406 14.015625 -20.816406 14.671875 -18.984375 C 15.335938 -17.148438 16.257812 -15.5625 17.4375 -14.21875 C 18.613281 -12.875 20.007812 -11.828125 21.625 -11.078125 C 23.25 -10.328125 25.050781 -9.953125 27.03125 -9.953125 C 29.425781 -9.953125 31.71875 -10.550781 33.90625 -11.75 C 36.09375 -12.945312 38.109375 -14.722656 39.953125 -17.078125 L 39.953125 -5.640625 C 35.953125 -1.640625 31.316406 0.359375 26.046875 0.359375 Z M 39.234375 -17.78125 L 29.5 -17.78125 L 29.5 -26.1875 L 48.84375 -26.1875 L 48.84375 0 L 39.234375 0 Z M 39.234375 -17.78125 "/></g></g></g><g fill="#005437" fill-opacity="1"><g transform="translate(46.771591, 103.222497)"><g><path d="M 4.796875 0 L 4.796875 -50.109375 L 27.390625 -50.109375 C 29.734375 -50.109375 31.90625 -49.625 33.90625 -48.65625 C 35.90625 -47.695312 37.632812 -46.40625 39.09375 -44.78125 C 40.550781 -43.15625 41.691406 -41.332031 42.515625 -39.3125 C 43.347656 -37.289062 43.765625 -35.242188 43.765625 -33.171875 C 43.765625 -31.097656 43.429688 -29.128906 42.765625 -27.265625 C 42.109375 -25.410156 41.164062 -23.742188 39.9375 -22.265625 C 38.71875 -20.785156 37.265625 -19.570312 35.578125 -18.625 L 46.578125 0 L 33.8125 0 L 24.203125 -16.15625 L 16.375 -16.15625 L 16.375 0 Z M 16.375 -26.25 L 26.953125 -26.25 C 27.898438 -26.25 28.738281 -26.539062 29.46875 -27.125 C 30.195312 -27.71875 30.796875 -28.53125 31.265625 -29.5625 C 31.734375 -30.601562 31.96875 -31.804688 31.96875 -33.171875 C 31.96875 -34.535156 31.695312 -35.722656 31.15625 -36.734375 C 30.613281 -37.742188 29.941406 -38.53125 29.140625 -39.09375 C 28.347656 -39.664062 27.503906 -39.953125 26.609375 -39.953125 L 16.375 -39.953125 Z M 16.375 -26.25 "/></g></g></g><g fill="#005437" fill-opacity="1"><g transform="translate(90.452672, 103.222497)"><g><path d="M 26.328125 0.421875 C 22.328125 0.421875 18.914062 -0.242188 16.09375 -1.578125 C 13.269531 -2.921875 10.972656 -4.757812 9.203125 -7.09375 C 7.441406 -9.425781 6.148438 -12.082031 5.328125 -15.0625 C 4.503906 -18.050781 4.09375 -21.191406 4.09375 -24.484375 L 4.09375 -50.109375 L 15.671875 -50.109375 L 15.671875 -24.484375 C 15.671875 -22.609375 15.859375 -20.785156 16.234375 -19.015625 C 16.609375 -17.253906 17.21875 -15.691406 18.0625 -14.328125 C 18.914062 -12.960938 20.007812 -11.878906 21.34375 -11.078125 C 22.6875 -10.273438 24.347656 -9.875 26.328125 -9.875 C 28.347656 -9.875 30.039062 -10.285156 31.40625 -11.109375 C 32.769531 -11.929688 33.851562 -13.035156 34.65625 -14.421875 C 35.457031 -15.816406 36.046875 -17.382812 36.421875 -19.125 C 36.796875 -20.863281 36.984375 -22.648438 36.984375 -24.484375 L 36.984375 -50.109375 L 48.5625 -50.109375 L 48.5625 -24.484375 C 48.5625 -21.003906 48.125 -17.757812 47.25 -14.75 C 46.382812 -11.738281 45.054688 -9.09375 43.265625 -6.8125 C 41.472656 -4.53125 39.175781 -2.753906 36.375 -1.484375 C 33.582031 -0.210938 30.234375 0.421875 26.328125 0.421875 Z M 14.265625 -54.984375 L 14.265625 -64.078125 L 23.578125 -64.078125 L 23.578125 -54.984375 Z M 29.078125 -54.984375 L 29.078125 -64.078125 L 38.40625 -64.078125 L 38.40625 -54.984375 Z M 29.078125 -54.984375 "/></g></g></g><g fill="#005437" fill-opacity="1"><g transform="translate(139.56751, 103.222497)"><g><path d="M 16.375 -28.65625 L 16.375 0 L 4.796875 0 L 4.796875 -50.109375 L 13.96875 -50.109375 L 37.1875 -20.609375 L 37.1875 -50.109375 L 48.765625 -50.109375 L 48.765625 0 L 39.3125 0 Z M 16.375 -28.65625 "/></g></g></g><g fill="#005437" fill-opacity="1"><g transform="translate(189.529166, 103.222497)"><g><path d="M 40.015625 -10.15625 L 40.015625 0 L 4.796875 0 L 4.796875 -50.109375 L 39.375 -50.109375 L 39.375 -39.953125 L 16.375 -39.953125 L 16.375 -30.203125 L 36.140625 -30.203125 L 36.140625 -20.828125 L 16.375 -20.828125 L 16.375 -10.15625 Z M 40.015625 -10.15625 "/></g></g></g><g fill="#005437" fill-opacity="1"><g transform="translate(228.199898, 103.222497)"><g><path d="M 4.796875 0 L 4.796875 -50.109375 L 27.390625 -50.109375 C 29.734375 -50.109375 31.90625 -49.625 33.90625 -48.65625 C 35.90625 -47.695312 37.632812 -46.40625 39.09375 -44.78125 C 40.550781 -43.15625 41.691406 -41.332031 42.515625 -39.3125 C 43.347656 -37.289062 43.765625 -35.242188 43.765625 -33.171875 C 43.765625 -31.097656 43.429688 -29.128906 42.765625 -27.265625 C 42.109375 -25.410156 41.164062 -23.742188 39.9375 -22.265625 C 38.71875 -20.785156 37.265625 -19.570312 35.578125 -18.625 L 46.578125 0 L 33.8125 0 L 24.203125 -16.15625 L 16.375 -16.15625 L 16.375 0 Z M 16.375 -26.25 L 26.953125 -26.25 C 27.898438 -26.25 28.738281 -26.539062 29.46875 -27.125 C 30.195312 -27.71875 30.796875 -28.53125 31.265625 -29.5625 C 31.734375 -30.601562 31.96875 -31.804688 31.96875 -33.171875 C 31.96875 -34.535156 31.695312 -35.722656 31.15625 -36.734375 C 30.613281 -37.742188 29.941406 -38.53125 29.140625 -39.09375 C 28.347656 -39.664062 27.503906 -39.953125 26.609375 -39.953125 L 16.375 -39.953125 Z M 16.375 -26.25 "/></g></g></g><g fill="#005437" fill-opacity="1"><g transform="translate(271.880979, 103.222497)"><g><path d="M 17.4375 -50.109375 L 29.921875 -50.109375 L 47.140625 0 L 35.28125 0 L 31.40625 -11.21875 L 15.8125 -11.21875 L 12 0 L 0.140625 0 Z M 29.5 -19.203125 L 23.640625 -38.46875 L 17.640625 -19.203125 Z M 29.5 -19.203125 "/></g></g></g><g fill="#005437" fill-opacity="1"><g transform="translate(315.562059, 103.222497)"><g><path d="M 42.984375 -39.953125 L 27.734375 -39.953125 L 27.734375 0 L 16.15625 0 L 16.15625 -39.953125 L 0.84375 -39.953125 L 0.84375 -50.109375 L 42.984375 -50.109375 Z M 42.984375 -39.953125 "/></g></g></g><g clip-path="url(#c2b91cae21)"><g clip-path="url(#eb9e10cdc4)"><g clip-path="url(#0a3ea84a48)"><path fill="#008939" d="M 389.421875 79.324219 C 389.40625 79.640625 389.359375 79.949219 389.28125 80.257812 C 389.203125 80.5625 389.09375 80.859375 388.960938 81.144531 C 388.824219 81.429688 388.660156 81.699219 388.472656 81.953125 C 388.28125 82.203125 388.070312 82.4375 387.835938 82.648438 C 387.601562 82.859375 387.347656 83.046875 387.074219 83.207031 C 386.804688 83.371094 386.519531 83.503906 386.222656 83.609375 C 385.921875 83.714844 385.617188 83.789062 385.304688 83.835938 C 384.992188 83.878906 384.679688 83.894531 384.363281 83.878906 C 384.046875 83.859375 383.738281 83.8125 383.429688 83.734375 C 383.125 83.660156 382.828125 83.550781 382.542969 83.414062 C 382.257812 83.277344 381.988281 83.117188 381.734375 82.925781 C 381.480469 82.738281 381.25 82.527344 381.039062 82.292969 C 380.828125 82.058594 380.640625 81.804688 380.480469 81.53125 C 380.316406 81.261719 380.183594 80.976562 380.078125 80.675781 C 379.972656 80.378906 379.898438 80.074219 379.851562 79.761719 C 379.808594 79.449219 379.792969 79.132812 379.808594 78.820312 C 379.824219 78.503906 379.875 78.191406 379.949219 77.886719 C 380.027344 77.582031 380.136719 77.285156 380.273438 77 C 380.40625 76.714844 380.570312 76.445312 380.761719 76.191406 C 380.949219 75.9375 381.160156 75.707031 381.394531 75.496094 C 381.628906 75.285156 381.882812 75.097656 382.15625 74.933594 C 382.425781 74.773438 382.710938 74.640625 383.007812 74.535156 C 383.308594 74.429688 383.613281 74.355469 383.925781 74.308594 C 384.238281 74.261719 384.550781 74.25 384.867188 74.265625 C 385.183594 74.28125 385.496094 74.328125 385.800781 74.40625 C 386.105469 74.484375 386.402344 74.59375 386.6875 74.726562 C 386.972656 74.863281 387.242188 75.027344 387.496094 75.214844 C 387.75 75.40625 387.980469 75.617188 388.191406 75.851562 C 388.402344 76.085938 388.589844 76.339844 388.75 76.613281 C 388.914062 76.882812 389.046875 77.167969 389.152344 77.464844 C 389.257812 77.765625 389.332031 78.070312 389.378906 78.382812 C 389.425781 78.695312 389.4375 79.007812 389.421875 79.324219 Z M 389.421875 79.324219 " fill-opacity="1" fill-rule="nonzero"/></g></g></g><g clip-path="url(#f7f006c4ee)"><g clip-path="url(#e56d48fda6)"><g clip-path="url(#be69f70e40)"><path fill="#008939" d="M 411.613281 75.714844 L 404.960938 74.101562 C 404.625 72.722656 404.160156 71.390625 403.5625 70.128906 L 407.746094 64.652344 C 408.132812 64.144531 408.101562 63.347656 407.675781 62.875 L 403.132812 57.828125 C 402.707031 57.355469 401.921875 57.242188 401.375 57.570312 L 395.488281 61.164062 C 394.261719 60.414062 392.945312 59.800781 391.566406 59.3125 L 390.667969 52.566406 C 390.582031 51.933594 389.996094 51.394531 389.359375 51.359375 L 382.582031 51.003906 C 381.945312 50.96875 381.308594 51.445312 381.15625 52.066406 L 379.535156 58.746094 C 378.171875 59.089844 376.855469 59.554688 375.605469 60.152344 L 370.195312 56.015625 C 369.6875 55.628906 368.894531 55.660156 368.417969 56.089844 L 363.375 60.628906 C 362.898438 61.058594 362.785156 61.84375 363.117188 62.390625 L 366.683594 68.238281 C 365.96875 69.417969 365.375 70.675781 364.902344 71.996094 L 358.117188 72.902344 C 357.484375 72.988281 356.945312 73.570312 356.914062 74.210938 L 356.554688 80.988281 C 356.523438 81.625 357 82.261719 357.617188 82.414062 L 364.265625 84.027344 C 364.601562 85.417969 365.070312 86.761719 365.671875 88.03125 L 361.558594 93.414062 C 361.171875 93.921875 361.203125 94.714844 361.632812 95.191406 L 366.171875 100.234375 C 366.601562 100.710938 367.386719 100.824219 367.929688 100.492188 L 373.714844 96.964844 C 374.878906 97.679688 376.128906 98.273438 377.4375 98.75 L 378.347656 105.566406 C 378.433594 106.199219 379.015625 106.738281 379.652344 106.773438 L 386.433594 107.128906 C 387.070312 107.160156 387.707031 106.6875 387.859375 106.066406 L 389.460938 99.449219 C 390.867188 99.113281 392.226562 98.644531 393.511719 98.039062 L 398.960938 102.207031 C 399.46875 102.59375 400.265625 102.5625 400.738281 102.132812 L 405.78125 97.59375 C 406.257812 97.167969 406.371094 96.382812 406.039062 95.835938 L 402.488281 90.011719 C 403.234375 88.796875 403.851562 87.496094 404.339844 86.132812 L 411.117188 85.226562 C 411.746094 85.140625 412.285156 84.554688 412.320312 83.917969 L 412.675781 77.140625 C 412.710938 76.503906 412.234375 75.867188 411.613281 75.714844 Z M 384.003906 90.703125 C 377.582031 90.367188 372.648438 84.886719 372.984375 78.460938 C 373.324219 72.039062 378.804688 67.105469 385.226562 67.441406 C 391.652344 67.777344 396.585938 73.261719 396.25 79.683594 C 395.910156 86.105469 390.425781 91.039062 384.003906 90.703125 Z M 384.003906 90.703125 " fill-opacity="1" fill-rule="nonzero"/></g></g></g><g fill="#005437" fill-opacity="1"><g transform="translate(413.731561, 103.205848)"><g><path d="M 5.21875 0 L 5.21875 -50.109375 L 27.390625 -50.109375 C 29.691406 -50.109375 31.816406 -49.632812 33.765625 -48.6875 C 35.722656 -47.75 37.414062 -46.476562 38.84375 -44.875 C 40.28125 -43.28125 41.382812 -41.492188 42.15625 -39.515625 C 42.9375 -37.546875 43.328125 -35.523438 43.328125 -33.453125 C 43.328125 -31.335938 42.960938 -29.300781 42.234375 -27.34375 C 41.503906 -25.394531 40.457031 -23.691406 39.09375 -22.234375 C 37.726562 -20.773438 36.128906 -19.644531 34.296875 -18.84375 L 45.734375 0 L 35 0 L 24.703125 -16.796875 L 14.96875 -16.796875 L 14.96875 0 Z M 14.96875 -25.34375 L 27.171875 -25.34375 C 28.390625 -25.34375 29.46875 -25.707031 30.40625 -26.4375 C 31.351562 -27.164062 32.109375 -28.140625 32.671875 -29.359375 C 33.242188 -30.585938 33.53125 -31.953125 33.53125 -33.453125 C 33.53125 -35.054688 33.195312 -36.457031 32.53125 -37.65625 C 31.875 -38.851562 31.039062 -39.804688 30.03125 -40.515625 C 29.019531 -41.222656 27.925781 -41.578125 26.75 -41.578125 L 14.96875 -41.578125 Z M 14.96875 -25.34375 "/></g></g></g><g transform="matrix(1, 0, 0, 1, 460, 29)"><g clip-path="url(#07617ef6ad)"><g fill="#008939" fill-opacity="1"><g transform="translate(4.56341, 64.978102)"><g><path d="M -3.015625 9.890625 L -0.96875 0 L 22.375 0 L 20.328125 9.890625 Z M -3.015625 9.890625 "/></g></g></g></g></g></svg>