<svg xmlns="http://www.w3.org/2000/svg" xmlns:xlink="http://www.w3.org/1999/xlink" width="650" zoomAndPan="magnify" viewBox="0 0 487.5 149.999998" height="200" preserveAspectRatio="xMidYMid meet" version="1.0"><defs><g/><clipPath id="5b44beeff3"><path d="M 377 77 L 388 77 L 388 88 L 377 88 Z M 377 77 " clip-rule="nonzero"/></clipPath><clipPath id="7fd73673c2"><path d="M 355.710938 52.511719 L 412.574219 55.496094 L 409.585938 112.359375 L 352.722656 109.371094 Z M 355.710938 52.511719 " clip-rule="nonzero"/></clipPath><clipPath id="4ca1729462"><path d="M 355.710938 52.511719 L 412.574219 55.496094 L 409.585938 112.359375 L 352.722656 109.371094 Z M 355.710938 52.511719 " clip-rule="nonzero"/></clipPath><clipPath id="ae8544b090"><path d="M 354 53 L 412 53 L 412 111 L 354 111 Z M 354 53 " clip-rule="nonzero"/></clipPath><clipPath id="738d9f1a5d"><path d="M 355.710938 52.511719 L 412.574219 55.496094 L 409.585938 112.359375 L 352.722656 109.371094 Z M 355.710938 52.511719 " clip-rule="nonzero"/></clipPath><clipPath id="9d76493fd9"><path d="M 355.710938 52.511719 L 412.574219 55.496094 L 409.585938 112.359375 L 352.722656 109.371094 Z M 355.710938 52.511719 " clip-rule="nonzero"/></clipPath><clipPath id="d0729593d9"><rect x="0" width="49" y="0" height="86"/></clipPath></defs><g fill="#005437" fill-opacity="1"><g transform="translate(-1.598799, 106.755441)"><g><path d="M 20.921875 0.359375 C 18.179688 0.359375 15.6875 -0.140625 13.4375 -1.140625 C 11.1875 -2.148438 9.234375 -3.578125 7.578125 -5.421875 C 5.929688 -7.265625 4.648438 -9.46875 3.734375 -12.03125 C 2.828125 -14.601562 2.375 -17.421875 2.375 -20.484375 C 2.375 -24.703125 3.210938 -28.675781 4.890625 -32.40625 C 6.566406 -36.144531 8.851562 -39.441406 11.75 -42.296875 C 14.644531 -45.148438 17.898438 -47.378906 21.515625 -48.984375 C 25.140625 -50.585938 28.941406 -51.390625 32.921875 -51.390625 C 37.378906 -51.390625 41.101562 -50.382812 44.09375 -48.375 C 47.09375 -46.363281 49.070312 -43.65625 50.03125 -40.25 L 39.890625 -33.640625 C 39.316406 -35.890625 38.15625 -37.660156 36.40625 -38.953125 C 34.65625 -40.242188 32.609375 -40.890625 30.265625 -40.890625 C 28.203125 -40.890625 26.210938 -40.382812 24.296875 -39.375 C 22.378906 -38.375 20.6875 -36.972656 19.21875 -35.171875 C 17.757812 -33.378906 16.609375 -31.34375 15.765625 -29.0625 C 14.929688 -26.789062 14.515625 -24.382812 14.515625 -21.84375 C 14.515625 -19.59375 14.894531 -17.582031 15.65625 -15.8125 C 16.425781 -14.039062 17.53125 -12.648438 18.96875 -11.640625 C 20.40625 -10.640625 22.132812 -10.140625 24.15625 -10.140625 C 26.445312 -10.140625 28.753906 -10.75 31.078125 -11.96875 C 33.410156 -13.1875 35.675781 -14.992188 37.875 -17.390625 L 35.4375 -5.75 C 33.039062 -3.6875 30.65625 -2.148438 28.28125 -1.140625 C 25.90625 -0.140625 23.453125 0.359375 20.921875 0.359375 Z M 37.375 -18.109375 L 28.109375 -18.109375 L 29.90625 -26.671875 L 48.953125 -26.671875 L 43.265625 0 L 33.5 0 Z M 37.375 -18.109375 "/></g></g></g><g fill="#005437" fill-opacity="1"><g transform="translate(45.330251, 106.755441)"><g><path d="M 0.28125 0 L 11.140625 -51.03125 L 33.0625 -51.03125 C 35.75 -51.03125 38.035156 -50.332031 39.921875 -48.9375 C 41.816406 -47.550781 43.253906 -45.769531 44.234375 -43.59375 C 45.222656 -41.414062 45.71875 -39.101562 45.71875 -36.65625 C 45.71875 -34.882812 45.453125 -33.132812 44.921875 -31.40625 C 44.390625 -29.6875 43.617188 -28.035156 42.609375 -26.453125 C 41.609375 -24.867188 40.425781 -23.441406 39.0625 -22.171875 C 37.695312 -20.898438 36.203125 -19.832031 34.578125 -18.96875 L 41.109375 0 L 27.8125 0 L 22.203125 -16.453125 L 15.53125 -16.453125 L 12.078125 0 Z M 27.53125 -26.734375 C 28.195312 -26.734375 28.890625 -26.960938 29.609375 -27.421875 C 30.328125 -27.878906 30.984375 -28.5 31.578125 -29.28125 C 32.179688 -30.070312 32.660156 -30.992188 33.015625 -32.046875 C 33.378906 -33.109375 33.5625 -34.238281 33.5625 -35.4375 C 33.5625 -36.488281 33.40625 -37.410156 33.09375 -38.203125 C 32.78125 -38.992188 32.359375 -39.601562 31.828125 -40.03125 C 31.304688 -40.46875 30.734375 -40.6875 30.109375 -40.6875 L 20.703125 -40.6875 L 17.75 -26.734375 Z M 27.53125 -26.734375 "/></g></g></g><g fill="#005437" fill-opacity="1"><g transform="translate(88.162833, 106.755441)"><g><path d="M 21.0625 0.4375 C 16.9375 0.4375 13.613281 -0.328125 11.09375 -1.859375 C 8.582031 -3.398438 6.765625 -5.488281 5.640625 -8.125 C 4.515625 -10.757812 3.953125 -13.707031 3.953125 -16.96875 C 3.953125 -18.257812 4.023438 -19.5625 4.171875 -20.875 C 4.316406 -22.195312 4.53125 -23.550781 4.8125 -24.9375 L 10.421875 -51.03125 L 22.203125 -51.03125 L 16.609375 -24.9375 C 16.410156 -23.882812 16.25 -22.878906 16.125 -21.921875 C 16.007812 -20.960938 15.953125 -20.03125 15.953125 -19.125 C 15.953125 -17.394531 16.191406 -15.859375 16.671875 -14.515625 C 17.148438 -13.171875 17.925781 -12.09375 19 -11.28125 C 20.082031 -10.46875 21.507812 -10.0625 23.28125 -10.0625 C 25.101562 -10.0625 26.734375 -10.476562 28.171875 -11.3125 C 29.609375 -12.15625 30.851562 -13.28125 31.90625 -14.6875 C 32.96875 -16.101562 33.859375 -17.695312 34.578125 -19.46875 C 35.296875 -21.25 35.867188 -23.070312 36.296875 -24.9375 L 41.828125 -51.03125 L 53.625 -51.03125 L 48.078125 -24.9375 C 47.316406 -21.394531 46.179688 -18.085938 44.671875 -15.015625 C 43.160156 -11.953125 41.28125 -9.257812 39.03125 -6.9375 C 36.78125 -4.613281 34.15625 -2.800781 31.15625 -1.5 C 28.164062 -0.207031 24.800781 0.4375 21.0625 0.4375 Z M 20.765625 -55.78125 L 22.78125 -65.046875 L 32.1875 -65.046875 L 30.25 -55.78125 Z M 35.5 -55.78125 L 37.515625 -65.046875 L 46.859375 -65.046875 L 44.984375 -55.78125 Z M 35.5 -55.78125 "/></g></g></g><g fill="#005437" fill-opacity="1"><g transform="translate(136.026158, 106.755441)"><g><path d="M 11.140625 -51.03125 L 20.34375 -51.03125 L 35.65625 -21.0625 L 41.96875 -51.03125 L 53.765625 -51.03125 L 42.90625 0 L 33.5625 0 L 18.25 -29.1875 L 12.078125 0 L 0.28125 0 Z M 11.140625 -51.03125 "/></g></g></g><g fill="#005437" fill-opacity="1"><g transform="translate(184.751908, 106.755441)"><g><path d="M 11.140625 -51.03125 L 44.703125 -51.03125 L 42.484375 -40.6875 L 20.703125 -40.6875 L 18.609375 -30.765625 L 37.296875 -30.765625 L 35.296875 -21.203125 L 16.609375 -21.203125 L 14.234375 -10.34375 L 36.65625 -10.34375 L 34.5 0 L 0.28125 0 Z M 11.140625 -51.03125 "/></g></g></g><g fill="#005437" fill-opacity="1"><g transform="translate(222.481882, 106.755441)"><g><path d="M 0.28125 0 L 11.140625 -51.03125 L 33.0625 -51.03125 C 35.75 -51.03125 38.035156 -50.332031 39.921875 -48.9375 C 41.816406 -47.550781 43.253906 -45.769531 44.234375 -43.59375 C 45.222656 -41.414062 45.71875 -39.101562 45.71875 -36.65625 C 45.71875 -34.882812 45.453125 -33.132812 44.921875 -31.40625 C 44.390625 -29.6875 43.617188 -28.035156 42.609375 -26.453125 C 41.609375 -24.867188 40.425781 -23.441406 39.0625 -22.171875 C 37.695312 -20.898438 36.203125 -19.832031 34.578125 -18.96875 L 41.109375 0 L 27.8125 0 L 22.203125 -16.453125 L 15.53125 -16.453125 L 12.078125 0 Z M 27.53125 -26.734375 C 28.195312 -26.734375 28.890625 -26.960938 29.609375 -27.421875 C 30.328125 -27.878906 30.984375 -28.5 31.578125 -29.28125 C 32.179688 -30.070312 32.660156 -30.992188 33.015625 -32.046875 C 33.378906 -33.109375 33.5625 -34.238281 33.5625 -35.4375 C 33.5625 -36.488281 33.40625 -37.410156 33.09375 -38.203125 C 32.78125 -38.992188 32.359375 -39.601562 31.828125 -40.03125 C 31.304688 -40.46875 30.734375 -40.6875 30.109375 -40.6875 L 20.703125 -40.6875 L 17.75 -26.734375 Z M 27.53125 -26.734375 "/></g></g></g><g fill="#005437" fill-opacity="1"><g transform="translate(265.314475, 106.755441)"><g><path d="M 24.21875 -51.03125 L 34.9375 -51.03125 L 41.546875 0 L 29.46875 0 L 28.390625 -11.421875 L 13.875 -11.421875 L 8.046875 0 L -4.09375 0 Z M 28.171875 -19.546875 L 26.734375 -37.59375 L 17.390625 -19.546875 Z M 28.171875 -19.546875 "/></g></g></g><g fill="#005437" fill-opacity="1"><g transform="translate(307.71584, 106.755441)"><g><path d="M 19.625 -40.6875 L 5.03125 -40.6875 L 7.1875 -51.03125 L 48.078125 -51.03125 L 45.921875 -40.6875 L 31.40625 -40.6875 L 22.71875 0 L 10.921875 0 Z M 19.625 -40.6875 "/></g></g></g><g clip-path="url(#5b44beeff3)"><g clip-path="url(#7fd73673c2)"><g clip-path="url(#4ca1729462)"><path fill="#008939" d="M 387.589844 82.683594 C 387.574219 83.003906 387.523438 83.320312 387.445312 83.632812 C 387.367188 83.945312 387.257812 84.246094 387.117188 84.535156 C 386.980469 84.828125 386.816406 85.101562 386.621094 85.359375 C 386.429688 85.617188 386.214844 85.851562 385.972656 86.066406 C 385.734375 86.285156 385.476562 86.472656 385.199219 86.636719 C 384.925781 86.800781 384.632812 86.9375 384.332031 87.046875 C 384.027344 87.152344 383.71875 87.230469 383.398438 87.277344 C 383.082031 87.320312 382.761719 87.335938 382.4375 87.320312 C 382.117188 87.304688 381.800781 87.253906 381.488281 87.175781 C 381.175781 87.097656 380.875 86.988281 380.585938 86.847656 C 380.296875 86.710938 380.019531 86.542969 379.761719 86.351562 C 379.503906 86.160156 379.269531 85.945312 379.054688 85.703125 C 378.839844 85.464844 378.648438 85.207031 378.484375 84.929688 C 378.320312 84.65625 378.183594 84.363281 378.078125 84.0625 C 377.96875 83.757812 377.890625 83.445312 377.847656 83.128906 C 377.800781 82.808594 377.785156 82.492188 377.800781 82.167969 C 377.820312 81.847656 377.867188 81.53125 377.945312 81.21875 C 378.027344 80.90625 378.136719 80.605469 378.273438 80.316406 C 378.410156 80.027344 378.578125 79.75 378.769531 79.492188 C 378.960938 79.234375 379.179688 79 379.417969 78.785156 C 379.65625 78.570312 379.914062 78.378906 380.191406 78.214844 C 380.46875 78.050781 380.757812 77.914062 381.0625 77.808594 C 381.363281 77.699219 381.675781 77.621094 381.992188 77.578125 C 382.3125 77.53125 382.632812 77.515625 382.953125 77.53125 C 383.273438 77.550781 383.589844 77.597656 383.902344 77.675781 C 384.214844 77.757812 384.515625 77.863281 384.804688 78.003906 C 385.097656 78.140625 385.371094 78.308594 385.628906 78.5 C 385.886719 78.691406 386.121094 78.910156 386.339844 79.148438 C 386.554688 79.386719 386.742188 79.644531 386.90625 79.921875 C 387.074219 80.199219 387.207031 80.488281 387.316406 80.792969 C 387.421875 81.09375 387.5 81.40625 387.546875 81.722656 C 387.59375 82.042969 387.605469 82.363281 387.589844 82.683594 Z M 387.589844 82.683594 " fill-opacity="1" fill-rule="nonzero"/></g></g></g><g clip-path="url(#ae8544b090)"><g clip-path="url(#738d9f1a5d)"><g clip-path="url(#9d76493fd9)"><path fill="#008939" d="M 410.1875 79.007812 L 403.414062 77.367188 C 403.070312 75.960938 402.59375 74.605469 401.988281 73.320312 L 406.25 67.742188 C 406.644531 67.226562 406.609375 66.417969 406.175781 65.933594 L 401.550781 60.796875 C 401.117188 60.3125 400.316406 60.199219 399.761719 60.535156 L 393.765625 64.191406 C 392.519531 63.429688 391.179688 62.804688 389.777344 62.308594 L 388.859375 55.4375 C 388.769531 54.792969 388.175781 54.242188 387.527344 54.210938 L 380.625 53.847656 C 379.976562 53.8125 379.328125 54.296875 379.171875 54.929688 L 377.523438 61.730469 C 376.132812 62.078125 374.792969 62.554688 373.523438 63.160156 L 368.011719 58.953125 C 367.496094 58.558594 366.6875 58.589844 366.203125 59.023438 L 361.066406 63.648438 C 360.585938 64.085938 360.46875 64.882812 360.804688 65.4375 L 364.4375 71.394531 C 363.710938 72.597656 363.105469 73.878906 362.621094 75.222656 L 355.714844 76.144531 C 355.070312 76.230469 354.523438 76.828125 354.488281 77.476562 L 354.125 84.378906 C 354.089844 85.027344 354.574219 85.675781 355.207031 85.828125 L 361.972656 87.46875 C 362.316406 88.886719 362.796875 90.253906 363.410156 91.546875 L 359.21875 97.03125 C 358.824219 97.546875 358.859375 98.355469 359.292969 98.839844 L 363.917969 103.976562 C 364.351562 104.457031 365.152344 104.574219 365.707031 104.238281 L 371.597656 100.644531 C 372.785156 101.371094 374.054688 101.976562 375.386719 102.464844 L 376.3125 109.40625 C 376.398438 110.046875 376.992188 110.597656 377.644531 110.628906 L 384.546875 110.992188 C 385.195312 111.027344 385.84375 110.542969 385.996094 109.914062 L 387.628906 103.171875 C 389.0625 102.832031 390.445312 102.355469 391.753906 101.742188 L 397.304688 105.980469 C 397.820312 106.375 398.628906 106.34375 399.113281 105.910156 L 404.25 101.285156 C 404.730469 100.851562 404.847656 100.050781 404.511719 99.496094 L 400.894531 93.566406 C 401.652344 92.328125 402.28125 91.003906 402.777344 89.613281 L 409.679688 88.691406 C 410.320312 88.605469 410.871094 88.011719 410.90625 87.359375 L 411.269531 80.460938 C 411.300781 79.808594 410.816406 79.160156 410.1875 79.007812 Z M 382.074219 94.269531 C 375.535156 93.925781 370.511719 88.34375 370.855469 81.804688 C 371.199219 75.265625 376.78125 70.238281 383.320312 70.582031 C 389.859375 70.925781 394.882812 76.507812 394.539062 83.046875 C 394.195312 89.589844 388.613281 94.613281 382.074219 94.269531 Z M 382.074219 94.269531 " fill-opacity="1" fill-rule="nonzero"/></g></g></g><g transform="matrix(1, 0, 0, 1, 411, 39)"><g clip-path="url(#d0729593d9)"><g fill="#005437" fill-opacity="1"><g transform="translate(1.426171, 68.707522)"><g><path d="M 0.71875 0 L 11.578125 -51.03125 L 33.140625 -51.03125 C 35.722656 -51.03125 37.925781 -50.359375 39.75 -49.015625 C 41.570312 -47.671875 42.972656 -45.921875 43.953125 -43.765625 C 44.929688 -41.609375 45.421875 -39.332031 45.421875 -36.9375 C 45.421875 -35.070312 45.117188 -33.238281 44.515625 -31.4375 C 43.921875 -29.644531 43.070312 -27.957031 41.96875 -26.375 C 40.875 -24.789062 39.59375 -23.375 38.125 -22.125 C 36.664062 -20.882812 35.070312 -19.90625 33.34375 -19.1875 L 40.25 0 L 29.03125 0 L 23 -17.109375 L 14.15625 -17.109375 L 10.5625 0 Z M 27.453125 -25.796875 C 28.460938 -25.796875 29.421875 -26.070312 30.328125 -26.625 C 31.242188 -27.175781 32.070312 -27.921875 32.8125 -28.859375 C 33.550781 -29.796875 34.132812 -30.875 34.5625 -32.09375 C 35 -33.3125 35.21875 -34.59375 35.21875 -35.9375 C 35.21875 -37.1875 35.015625 -38.289062 34.609375 -39.25 C 34.203125 -40.207031 33.648438 -40.957031 32.953125 -41.5 C 32.253906 -42.050781 31.476562 -42.328125 30.625 -42.328125 L 19.546875 -42.328125 L 16.03125 -25.796875 Z M 27.453125 -25.796875 "/></g></g></g></g></g><g fill="#008939" fill-opacity="1"><g transform="translate(461.83075, 96.862564)"><g><path d="M -3.078125 10.0625 L -0.984375 0 L 22.796875 0 L 20.703125 10.0625 Z M -3.078125 10.0625 "/></g></g></g></svg>