<svg xmlns="http://www.w3.org/2000/svg" xmlns:xlink="http://www.w3.org/1999/xlink" width="1200" zoomAndPan="magnify" viewBox="0 0 900 149.999998" height="200" preserveAspectRatio="xMidYMid meet" version="1.0"><defs><g/><clipPath id="615da72696"><path d="M 712 69 L 729 69 L 729 86 L 712 86 Z M 712 69 " clip-rule="nonzero"/></clipPath><clipPath id="8e1e456a99"><path d="M 677.019531 28.832031 L 769.140625 33.675781 L 764.300781 125.796875 L 672.179688 120.957031 Z M 677.019531 28.832031 " clip-rule="nonzero"/></clipPath><clipPath id="59a81ae178"><path d="M 677.019531 28.832031 L 769.140625 33.675781 L 764.300781 125.796875 L 672.179688 120.957031 Z M 677.019531 28.832031 " clip-rule="nonzero"/></clipPath><clipPath id="8b2d7a0246"><path d="M 674 31 L 768 31 L 768 124 L 674 124 Z M 674 31 " clip-rule="nonzero"/></clipPath><clipPath id="4e17587d2f"><path d="M 677.019531 28.832031 L 769.140625 33.675781 L 764.300781 125.796875 L 672.179688 120.957031 Z M 677.019531 28.832031 " clip-rule="nonzero"/></clipPath><clipPath id="5ba26dacd5"><path d="M 677.019531 28.832031 L 769.140625 33.675781 L 764.300781 125.796875 L 672.179688 120.957031 Z M 677.019531 28.832031 " clip-rule="nonzero"/></clipPath></defs><g fill="#f5f1e9" fill-opacity="1"><g transform="translate(38.374667, 123.542249)"><g><path d="M 39.90625 -45.03125 C 43.195312 -44.101562 45.492188 -42.503906 46.796875 -40.234375 C 48.097656 -37.972656 48.75 -35.351562 48.75 -32.375 C 48.75 -30.019531 48.46875 -27.570312 47.90625 -25.03125 C 46.851562 -20.0625 45.039062 -15.6875 42.46875 -11.90625 C 39.894531 -8.125 36.757812 -5.191406 33.0625 -3.109375 C 29.375 -1.035156 25.269531 0 20.75 0 L -4.28125 0 L 13.578125 -83.734375 L 38.328125 -83.734375 C 41.554688 -83.734375 44.410156 -83.035156 46.890625 -81.640625 C 49.367188 -80.242188 51.320312 -78.347656 52.75 -75.953125 C 54.175781 -73.566406 54.890625 -70.859375 54.890625 -67.828125 C 54.890625 -67.203125 54.84375 -66.546875 54.75 -65.859375 C 54.65625 -65.179688 54.546875 -64.503906 54.421875 -63.828125 L 53.59375 -59.828125 C 52.78125 -55.847656 51.226562 -52.648438 48.9375 -50.234375 C 46.644531 -47.816406 43.632812 -46.082031 39.90625 -45.03125 Z M 19.625 -14.140625 C 22.851562 -14.140625 25.457031 -15.207031 27.4375 -17.34375 C 29.425781 -19.488281 30.820312 -22.390625 31.625 -26.046875 C 31.8125 -26.859375 31.9375 -27.617188 32 -28.328125 C 32.0625 -29.046875 32.09375 -29.710938 32.09375 -30.328125 C 32.09375 -35.285156 29.613281 -37.765625 24.65625 -37.765625 L 20.09375 -37.765625 L 15.078125 -14.140625 Z M 27.265625 -50.046875 C 29.429688 -50.046875 31.457031 -50.773438 33.34375 -52.234375 C 35.238281 -53.691406 36.5 -55.507812 37.125 -57.6875 C 37.375 -58.550781 37.601562 -59.539062 37.8125 -60.65625 C 38.03125 -61.769531 38.140625 -62.546875 38.140625 -62.984375 C 38.140625 -64.847656 37.503906 -66.414062 36.234375 -67.6875 C 34.960938 -68.957031 33.335938 -69.59375 31.359375 -69.59375 L 26.796875 -69.59375 L 22.703125 -50.046875 Z M 27.265625 -50.046875 "/></g></g></g><g fill="#f5f1e9" fill-opacity="1"><g transform="translate(87.939455, 123.542249)"><g><path d="M 37.953125 -14.140625 L 34.890625 0 L -4.28125 0 L 13.578125 -83.734375 L 52.75 -83.734375 L 49.6875 -69.5 L 26.703125 -69.5 L 22.796875 -51.265625 L 42.234375 -51.265625 L 39.359375 -37.3125 L 19.90625 -37.3125 L 14.984375 -14.140625 Z M 37.953125 -14.140625 "/></g></g></g><g fill="#f5f1e9" fill-opacity="1"><g transform="translate(129.410867, 123.542249)"><g><path d="M 50.515625 -69.40625 L 36.9375 -69.40625 L 22.140625 0 L 5.859375 0 L 20.65625 -69.40625 L 6.796875 -69.40625 L 9.859375 -83.734375 L 53.59375 -83.734375 Z M 50.515625 -69.40625 "/></g></g></g><g fill="#f5f1e9" fill-opacity="1"><g transform="translate(172.64979, 123.542249)"><g><path d="M 36.84375 -24.375 L 19.53125 -24.375 L 10.046875 0 L -5.953125 0 L 29.671875 -83.734375 L 52.375 -83.734375 L 52.375 0 L 36.09375 0 Z M 37.3125 -38.328125 L 38.046875 -70.140625 L 25.125 -38.328125 Z M 37.3125 -38.328125 "/></g></g></g><g fill="#f5f1e9" fill-opacity="1"><g transform="translate(229.935866, 123.542249)"><g><path d="M 31.265625 3.71875 L 28.84375 14.890625 L -12.09375 14.890625 L -9.671875 3.71875 Z M 31.265625 3.71875 "/></g></g></g><g fill="#f5f1e9" fill-opacity="1"><g transform="translate(265.732594, 123.542249)"><g><path d="M 19.53125 1.390625 C 15.132812 1.390625 11.382812 0.539062 8.28125 -1.15625 C 5.175781 -2.863281 2.832031 -5.191406 1.25 -8.140625 C -0.320312 -11.085938 -1.109375 -14.390625 -1.109375 -18.046875 C -1.109375 -18.972656 -1.0625 -19.929688 -0.96875 -20.921875 C -0.882812 -21.921875 -0.71875 -22.914062 -0.46875 -23.90625 L 6.984375 -59.640625 C 7.722656 -63.171875 9.066406 -66.484375 11.015625 -69.578125 C 12.972656 -72.679688 15.363281 -75.394531 18.1875 -77.71875 C 21.007812 -80.050781 24.09375 -81.867188 27.4375 -83.171875 C 30.789062 -84.472656 34.234375 -85.125 37.765625 -85.125 C 41.796875 -85.125 45.332031 -84.238281 48.375 -82.46875 C 51.414062 -80.707031 53.785156 -78.304688 55.484375 -75.265625 C 57.191406 -72.222656 58.046875 -68.71875 58.046875 -64.75 C 58.046875 -63.132812 57.863281 -61.429688 57.5 -59.640625 L 56.1875 -53.03125 L 39.90625 -53.03125 L 41.671875 -61.6875 C 41.796875 -62.300781 41.859375 -62.921875 41.859375 -63.546875 C 41.859375 -65.523438 41.222656 -67.164062 39.953125 -68.46875 C 38.679688 -69.769531 36.929688 -70.421875 34.703125 -70.421875 C 32.035156 -70.421875 29.691406 -69.472656 27.671875 -67.578125 C 25.660156 -65.691406 24.40625 -63.570312 23.90625 -61.21875 L 15.625 -21.671875 C 15.5625 -21.429688 15.515625 -21.140625 15.484375 -20.796875 C 15.453125 -20.453125 15.4375 -20.09375 15.4375 -19.71875 C 15.4375 -17.863281 16.101562 -16.269531 17.4375 -14.9375 C 18.769531 -13.601562 20.492188 -12.9375 22.609375 -12.9375 C 23.972656 -12.9375 25.488281 -13.164062 27.15625 -13.625 C 28.832031 -14.09375 30.445312 -14.851562 32 -15.90625 L 35.078125 -30.703125 L 24.65625 -30.703125 L 27.71875 -45.125 L 54.421875 -45.125 L 47.453125 -11.8125 C 47.390625 -11.4375 46.75 -10.566406 45.53125 -9.203125 C 44.320312 -7.835938 42.554688 -6.332031 40.234375 -4.6875 C 37.910156 -3.050781 35.023438 -1.628906 31.578125 -0.421875 C 28.140625 0.785156 24.125 1.390625 19.53125 1.390625 Z M 19.53125 1.390625 "/></g></g></g><g fill="#f5f1e9" fill-opacity="1"><g transform="translate(318.088212, 123.542249)"><g><path d="M -4.28125 0 L 13.578125 -83.734375 L 36 -83.734375 C 39.78125 -83.734375 43.113281 -82.925781 46 -81.3125 C 48.882812 -79.695312 51.148438 -77.492188 52.796875 -74.703125 C 54.441406 -71.910156 55.265625 -68.75 55.265625 -65.21875 C 55.265625 -61.5 54.582031 -58.023438 53.21875 -54.796875 C 51.851562 -51.566406 49.988281 -48.679688 47.625 -46.140625 C 45.269531 -43.597656 42.578125 -41.519531 39.546875 -39.90625 L 48.75 0 L 31.53125 0 L 23.4375 -36.46875 L 19.625 -36.46875 L 11.8125 0 Z M 26.796875 -50.421875 C 28.960938 -50.421875 30.929688 -50.945312 32.703125 -52 C 34.472656 -53.0625 35.898438 -54.488281 36.984375 -56.28125 C 38.066406 -58.082031 38.609375 -60.066406 38.609375 -62.234375 C 38.609375 -64.410156 37.878906 -66.210938 36.421875 -67.640625 C 34.960938 -69.066406 33.117188 -69.78125 30.890625 -69.78125 L 26.703125 -69.78125 L 22.609375 -50.421875 Z M 26.796875 -50.421875 "/></g></g></g><g fill="#f5f1e9" fill-opacity="1"><g transform="translate(368.769331, 123.542249)"><g><path d="M 46.890625 -22.046875 C 46.203125 -18.878906 44.957031 -15.882812 43.15625 -13.0625 C 41.363281 -10.25 39.179688 -7.753906 36.609375 -5.578125 C 34.035156 -3.410156 31.210938 -1.707031 28.140625 -0.46875 C 25.066406 0.769531 21.921875 1.390625 18.703125 1.390625 C 15.035156 1.390625 11.773438 0.585938 8.921875 -1.015625 C 6.078125 -2.628906 3.863281 -4.832031 2.28125 -7.625 C 0.695312 -10.414062 -0.09375 -13.582031 -0.09375 -17.125 C -0.09375 -18.726562 0.09375 -20.367188 0.46875 -22.046875 L 13.578125 -83.734375 L 29.859375 -83.734375 L 16.375 -20.09375 C 16.3125 -19.84375 16.265625 -19.59375 16.234375 -19.34375 C 16.203125 -19.101562 16.1875 -18.828125 16.1875 -18.515625 C 16.1875 -16.835938 16.695312 -15.503906 17.71875 -14.515625 C 18.75 -13.523438 20.097656 -13.03125 21.765625 -13.03125 C 23.691406 -13.03125 25.488281 -13.726562 27.15625 -15.125 C 28.832031 -16.519531 29.890625 -18.175781 30.328125 -20.09375 L 43.8125 -83.734375 L 60 -83.734375 Z M 25.859375 -88.375 C 23.941406 -88.375 22.390625 -88.960938 21.203125 -90.140625 C 20.023438 -91.328125 19.4375 -92.785156 19.4375 -94.515625 C 19.4375 -96.191406 19.898438 -97.742188 20.828125 -99.171875 C 21.765625 -100.597656 22.976562 -101.757812 24.46875 -102.65625 C 25.957031 -103.5625 27.539062 -104.015625 29.21875 -104.015625 C 31.320312 -104.015625 32.882812 -103.363281 33.90625 -102.0625 C 34.9375 -100.757812 35.453125 -99.269531 35.453125 -97.59375 C 35.453125 -96.101562 35 -94.660156 34.09375 -93.265625 C 33.195312 -91.867188 32.035156 -90.703125 30.609375 -89.765625 C 29.179688 -88.835938 27.597656 -88.375 25.859375 -88.375 Z M 52.375 -104.015625 C 54.488281 -104.015625 56.054688 -103.378906 57.078125 -102.109375 C 58.097656 -100.835938 58.609375 -99.332031 58.609375 -97.59375 C 58.609375 -96.101562 58.140625 -94.660156 57.203125 -93.265625 C 56.273438 -91.867188 55.097656 -90.703125 53.671875 -89.765625 C 52.253906 -88.835938 50.738281 -88.375 49.125 -88.375 C 47.070312 -88.375 45.488281 -88.976562 44.375 -90.1875 C 43.257812 -91.40625 42.703125 -92.878906 42.703125 -94.609375 C 42.703125 -96.285156 43.164062 -97.835938 44.09375 -99.265625 C 45.03125 -100.691406 46.238281 -101.835938 47.71875 -102.703125 C 49.207031 -103.578125 50.757812 -104.015625 52.375 -104.015625 Z M 52.375 -104.015625 "/></g></g></g><g fill="#f5f1e9" fill-opacity="1"><g transform="translate(419.357432, 123.542249)"><g><path d="M -4.28125 0 L 13.578125 -83.734375 L 34.984375 -83.734375 L 34.046875 -21.765625 L 47.265625 -83.734375 L 63.546875 -83.734375 L 45.671875 0 L 24.5625 0 L 25.03125 -62.796875 L 11.625 0 Z M -4.28125 0 "/></g></g></g><g fill="#f5f1e9" fill-opacity="1"><g transform="translate(473.480568, 123.542249)"><g><path d="M 37.953125 -14.140625 L 34.890625 0 L -4.28125 0 L 13.578125 -83.734375 L 52.75 -83.734375 L 49.6875 -69.5 L 26.703125 -69.5 L 22.796875 -51.265625 L 42.234375 -51.265625 L 39.359375 -37.3125 L 19.90625 -37.3125 L 14.984375 -14.140625 Z M 37.953125 -14.140625 "/></g></g></g><g fill="#f5f1e9" fill-opacity="1"><g transform="translate(514.951986, 123.542249)"><g><path d="M -4.28125 0 L 13.578125 -83.734375 L 36 -83.734375 C 39.78125 -83.734375 43.113281 -82.925781 46 -81.3125 C 48.882812 -79.695312 51.148438 -77.492188 52.796875 -74.703125 C 54.441406 -71.910156 55.265625 -68.75 55.265625 -65.21875 C 55.265625 -61.5 54.582031 -58.023438 53.21875 -54.796875 C 51.851562 -51.566406 49.988281 -48.679688 47.625 -46.140625 C 45.269531 -43.597656 42.578125 -41.519531 39.546875 -39.90625 L 48.75 0 L 31.53125 0 L 23.4375 -36.46875 L 19.625 -36.46875 L 11.8125 0 Z M 26.796875 -50.421875 C 28.960938 -50.421875 30.929688 -50.945312 32.703125 -52 C 34.472656 -53.0625 35.898438 -54.488281 36.984375 -56.28125 C 38.066406 -58.082031 38.609375 -60.066406 38.609375 -62.234375 C 38.609375 -64.410156 37.878906 -66.210938 36.421875 -67.640625 C 34.960938 -69.066406 33.117188 -69.78125 30.890625 -69.78125 L 26.703125 -69.78125 L 22.609375 -50.421875 Z M 26.796875 -50.421875 "/></g></g></g><g fill="#f5f1e9" fill-opacity="1"><g transform="translate(565.633105, 123.542249)"><g><path d="M 36.84375 -24.375 L 19.53125 -24.375 L 10.046875 0 L -5.953125 0 L 29.671875 -83.734375 L 52.375 -83.734375 L 52.375 0 L 36.09375 0 Z M 37.3125 -38.328125 L 38.046875 -70.140625 L 25.125 -38.328125 Z M 37.3125 -38.328125 "/></g></g></g><g fill="#f5f1e9" fill-opacity="1"><g transform="translate(622.919158, 123.542249)"><g><path d="M 50.515625 -69.40625 L 36.9375 -69.40625 L 22.140625 0 L 5.859375 0 L 20.65625 -69.40625 L 6.796875 -69.40625 L 9.859375 -83.734375 L 53.59375 -83.734375 Z M 50.515625 -69.40625 "/></g></g></g><g clip-path="url(#615da72696)"><g clip-path="url(#8e1e456a99)"><g clip-path="url(#59a81ae178)"><path fill="#fff17a" d="M 728.796875 77.84375 C 728.769531 78.363281 728.691406 78.878906 728.5625 79.386719 C 728.433594 79.890625 728.257812 80.382812 728.035156 80.851562 C 727.808594 81.324219 727.539062 81.769531 727.226562 82.1875 C 726.914062 82.605469 726.5625 82.992188 726.175781 83.339844 C 725.785156 83.691406 725.367188 84 724.917969 84.265625 C 724.46875 84.53125 724 84.753906 723.503906 84.929688 C 723.011719 85.101562 722.507812 85.226562 721.992188 85.300781 C 721.472656 85.378906 720.953125 85.402344 720.433594 85.375 C 719.910156 85.347656 719.394531 85.269531 718.890625 85.140625 C 718.382812 85.011719 717.894531 84.832031 717.421875 84.609375 C 716.949219 84.382812 716.503906 84.113281 716.085938 83.800781 C 715.667969 83.488281 715.285156 83.136719 714.933594 82.75 C 714.585938 82.363281 714.277344 81.941406 714.007812 81.492188 C 713.742188 81.042969 713.519531 80.574219 713.347656 80.082031 C 713.171875 79.589844 713.046875 79.082031 712.972656 78.566406 C 712.898438 78.046875 712.875 77.527344 712.902344 77.007812 C 712.929688 76.484375 713.007812 75.972656 713.136719 75.464844 C 713.265625 74.957031 713.441406 74.46875 713.667969 73.996094 C 713.890625 73.527344 714.160156 73.082031 714.472656 72.660156 C 714.785156 72.242188 715.136719 71.859375 715.523438 71.507812 C 715.914062 71.160156 716.332031 70.851562 716.78125 70.585938 C 717.230469 70.316406 717.703125 70.097656 718.195312 69.921875 C 718.6875 69.746094 719.191406 69.621094 719.707031 69.546875 C 720.226562 69.472656 720.746094 69.449219 721.265625 69.476562 C 721.789062 69.503906 722.304688 69.582031 722.808594 69.710938 C 723.316406 69.839844 723.804688 70.015625 724.277344 70.242188 C 724.75 70.464844 725.195312 70.734375 725.613281 71.046875 C 726.03125 71.359375 726.414062 71.710938 726.765625 72.101562 C 727.117188 72.488281 727.421875 72.90625 727.691406 73.355469 C 727.957031 73.804688 728.179688 74.277344 728.351562 74.769531 C 728.527344 75.261719 728.652344 75.765625 728.726562 76.285156 C 728.800781 76.800781 728.824219 77.320312 728.796875 77.84375 Z M 728.796875 77.84375 " fill-opacity="1" fill-rule="nonzero"/></g></g></g><g clip-path="url(#8b2d7a0246)"><g clip-path="url(#4e17587d2f)"><g clip-path="url(#5ba26dacd5)"><path fill="#fff17a" d="M 765.503906 71.871094 L 754.5 69.203125 C 753.941406 66.921875 753.171875 64.71875 752.183594 62.636719 L 759.105469 53.574219 C 759.746094 52.738281 759.691406 51.421875 758.984375 50.636719 L 751.476562 42.292969 C 750.769531 41.507812 749.46875 41.320312 748.570312 41.867188 L 738.832031 47.804688 C 736.804688 46.570312 734.628906 45.550781 732.347656 44.75 L 730.859375 33.589844 C 730.714844 32.542969 729.75 31.648438 728.695312 31.59375 L 717.484375 31.003906 C 716.429688 30.949219 715.378906 31.738281 715.125 32.761719 L 712.449219 43.8125 C 710.191406 44.375 708.011719 45.148438 705.949219 46.132812 L 697 39.296875 C 696.164062 38.65625 694.847656 38.707031 694.0625 39.414062 L 685.71875 46.925781 C 684.933594 47.632812 684.746094 48.933594 685.292969 49.835938 L 691.191406 59.507812 C 690.011719 61.457031 689.027344 63.542969 688.242188 65.726562 L 677.027344 67.222656 C 675.980469 67.363281 675.089844 68.328125 675.035156 69.382812 L 674.445312 80.59375 C 674.390625 81.648438 675.175781 82.703125 676.199219 82.953125 L 687.191406 85.617188 C 687.75 87.917969 688.527344 90.140625 689.523438 92.242188 L 682.71875 101.144531 C 682.078125 101.984375 682.132812 103.300781 682.839844 104.082031 L 690.347656 112.425781 C 691.054688 113.210938 692.355469 113.398438 693.257812 112.851562 L 702.820312 107.019531 C 704.75 108.195312 706.8125 109.179688 708.976562 109.972656 L 710.480469 121.246094 C 710.625 122.289062 711.589844 123.179688 712.644531 123.234375 L 723.851562 123.824219 C 724.910156 123.878906 725.960938 123.09375 726.210938 122.070312 L 728.863281 111.125 C 731.191406 110.570312 733.4375 109.792969 735.5625 108.796875 L 744.578125 115.683594 C 745.414062 116.324219 746.730469 116.273438 747.515625 115.566406 L 755.855469 108.058594 C 756.640625 107.351562 756.828125 106.050781 756.28125 105.152344 L 750.410156 95.519531 C 751.640625 93.511719 752.660156 91.359375 753.46875 89.101562 L 764.675781 87.601562 C 765.722656 87.460938 766.613281 86.496094 766.667969 85.441406 L 767.257812 74.230469 C 767.3125 73.175781 766.527344 72.121094 765.503906 71.871094 Z M 719.839844 96.660156 C 709.21875 96.105469 701.058594 87.039062 701.617188 76.414062 C 702.175781 65.792969 711.238281 57.632812 721.859375 58.191406 C 732.484375 58.75 740.648438 67.816406 740.089844 78.433594 C 739.53125 89.0625 730.460938 97.21875 719.839844 96.660156 Z M 719.839844 96.660156 " fill-opacity="1" fill-rule="nonzero"/></g></g></g><g fill="#f5f1e9" fill-opacity="1"><g transform="translate(776.132041, 127.67245)"><g><path d="M -4.28125 0 L 13.578125 -83.734375 L 36 -83.734375 C 39.78125 -83.734375 43.113281 -82.925781 46 -81.3125 C 48.882812 -79.695312 51.148438 -77.492188 52.796875 -74.703125 C 54.441406 -71.910156 55.265625 -68.75 55.265625 -65.21875 C 55.265625 -61.5 54.582031 -58.023438 53.21875 -54.796875 C 51.851562 -51.566406 49.988281 -48.679688 47.625 -46.140625 C 45.269531 -43.597656 42.578125 -41.519531 39.546875 -39.90625 L 48.75 0 L 31.53125 0 L 23.4375 -36.46875 L 19.625 -36.46875 L 11.8125 0 Z M 26.796875 -50.421875 C 28.960938 -50.421875 30.929688 -50.945312 32.703125 -52 C 34.472656 -53.0625 35.898438 -54.488281 36.984375 -56.28125 C 38.066406 -58.082031 38.609375 -60.066406 38.609375 -62.234375 C 38.609375 -64.410156 37.878906 -66.210938 36.421875 -67.640625 C 34.960938 -69.066406 33.117188 -69.78125 30.890625 -69.78125 L 26.703125 -69.78125 L 22.609375 -50.421875 Z M 26.796875 -50.421875 "/></g></g></g><g fill="#fff17a" fill-opacity="1"><g transform="translate(847.209152, 112.627593)"><g><path d="M 31.265625 3.71875 L 28.84375 14.890625 L -12.09375 14.890625 L -9.671875 3.71875 Z M 31.265625 3.71875 "/></g></g></g></svg>