<svg xmlns="http://www.w3.org/2000/svg" xmlns:xlink="http://www.w3.org/1999/xlink" width="650" zoomAndPan="magnify" viewBox="0 0 487.5 149.999998" height="200" preserveAspectRatio="xMidYMid meet" version="1.0"><defs><g/><clipPath id="afbe5f79ce"><path d="M 381 74 L 391 74 L 391 84 L 381 84 Z M 381 74 " clip-rule="nonzero"/></clipPath><clipPath id="f287161dca"><path d="M 359.613281 49.691406 L 415.726562 52.640625 L 412.777344 108.753906 L 356.664062 105.804688 Z M 359.613281 49.691406 " clip-rule="nonzero"/></clipPath><clipPath id="b3502b715e"><path d="M 359.613281 49.691406 L 415.726562 52.640625 L 412.777344 108.753906 L 356.664062 105.804688 Z M 359.613281 49.691406 " clip-rule="nonzero"/></clipPath><clipPath id="128631ed05"><path d="M 358 51 L 415 51 L 415 108 L 358 108 Z M 358 51 " clip-rule="nonzero"/></clipPath><clipPath id="4a8d5ad0e1"><path d="M 359.613281 49.691406 L 415.726562 52.640625 L 412.777344 108.753906 L 356.664062 105.804688 Z M 359.613281 49.691406 " clip-rule="nonzero"/></clipPath><clipPath id="1ae85daf30"><path d="M 359.613281 49.691406 L 415.726562 52.640625 L 412.777344 108.753906 L 356.664062 105.804688 Z M 359.613281 49.691406 " clip-rule="nonzero"/></clipPath><clipPath id="59109a5f8e"><rect x="0" width="48" y="0" height="84"/></clipPath><clipPath id="8cd67f8755"><rect x="0" width="28" y="0" height="82"/></clipPath></defs><g fill="#ffffff" fill-opacity="1"><g transform="translate(0.213739, 103.22248)"><g><path d="M 26.046875 0.359375 C 22.753906 0.359375 19.644531 -0.265625 16.71875 -1.515625 C 13.800781 -2.765625 11.238281 -4.53125 9.03125 -6.8125 C 6.820312 -9.09375 5.09375 -11.796875 3.84375 -14.921875 C 2.59375 -18.054688 1.96875 -21.550781 1.96875 -25.40625 C 1.96875 -28.882812 2.601562 -32.128906 3.875 -35.140625 C 5.144531 -38.160156 6.910156 -40.820312 9.171875 -43.125 C 11.429688 -45.425781 14.078125 -47.222656 17.109375 -48.515625 C 20.148438 -49.816406 23.429688 -50.46875 26.953125 -50.46875 C 31.566406 -50.46875 35.640625 -49.476562 39.171875 -47.5 C 42.703125 -45.519531 45.3125 -42.863281 47 -39.53125 L 38.390625 -33.03125 C 37.265625 -35.238281 35.628906 -36.976562 33.484375 -38.25 C 31.347656 -39.519531 29.03125 -40.15625 26.53125 -40.15625 C 24.65625 -40.15625 22.925781 -39.765625 21.34375 -38.984375 C 19.769531 -38.210938 18.40625 -37.132812 17.25 -35.75 C 16.101562 -34.363281 15.222656 -32.75 14.609375 -30.90625 C 13.992188 -29.070312 13.6875 -27.097656 13.6875 -24.984375 C 13.6875 -22.816406 14.015625 -20.816406 14.671875 -18.984375 C 15.335938 -17.148438 16.257812 -15.5625 17.4375 -14.21875 C 18.613281 -12.875 20.007812 -11.828125 21.625 -11.078125 C 23.25 -10.328125 25.050781 -9.953125 27.03125 -9.953125 C 29.425781 -9.953125 31.71875 -10.550781 33.90625 -11.75 C 36.09375 -12.945312 38.109375 -14.722656 39.953125 -17.078125 L 39.953125 -5.640625 C 35.953125 -1.640625 31.316406 0.359375 26.046875 0.359375 Z M 39.234375 -17.78125 L 29.5 -17.78125 L 29.5 -26.1875 L 48.84375 -26.1875 L 48.84375 0 L 39.234375 0 Z M 39.234375 -17.78125 "/></g></g></g><g fill="#ffffff" fill-opacity="1"><g transform="translate(48.270054, 103.22248)"><g><path d="M 4.796875 0 L 4.796875 -50.109375 L 27.390625 -50.109375 C 29.734375 -50.109375 31.90625 -49.625 33.90625 -48.65625 C 35.90625 -47.695312 37.632812 -46.40625 39.09375 -44.78125 C 40.550781 -43.15625 41.691406 -41.332031 42.515625 -39.3125 C 43.347656 -37.289062 43.765625 -35.242188 43.765625 -33.171875 C 43.765625 -31.097656 43.429688 -29.128906 42.765625 -27.265625 C 42.109375 -25.410156 41.164062 -23.742188 39.9375 -22.265625 C 38.71875 -20.785156 37.265625 -19.570312 35.578125 -18.625 L 46.578125 0 L 33.8125 0 L 24.203125 -16.15625 L 16.375 -16.15625 L 16.375 0 Z M 16.375 -26.25 L 26.953125 -26.25 C 27.898438 -26.25 28.738281 -26.539062 29.46875 -27.125 C 30.195312 -27.71875 30.796875 -28.53125 31.265625 -29.5625 C 31.734375 -30.601562 31.96875 -31.804688 31.96875 -33.171875 C 31.96875 -34.535156 31.695312 -35.722656 31.15625 -36.734375 C 30.613281 -37.742188 29.941406 -38.53125 29.140625 -39.09375 C 28.347656 -39.664062 27.503906 -39.953125 26.609375 -39.953125 L 16.375 -39.953125 Z M 16.375 -26.25 "/></g></g></g><g fill="#ffffff" fill-opacity="1"><g transform="translate(91.951135, 103.22248)"><g><path d="M 26.328125 0.421875 C 22.328125 0.421875 18.914062 -0.242188 16.09375 -1.578125 C 13.269531 -2.921875 10.972656 -4.757812 9.203125 -7.09375 C 7.441406 -9.425781 6.148438 -12.082031 5.328125 -15.0625 C 4.503906 -18.050781 4.09375 -21.191406 4.09375 -24.484375 L 4.09375 -50.109375 L 15.671875 -50.109375 L 15.671875 -24.484375 C 15.671875 -22.609375 15.859375 -20.785156 16.234375 -19.015625 C 16.609375 -17.253906 17.21875 -15.691406 18.0625 -14.328125 C 18.914062 -12.960938 20.007812 -11.878906 21.34375 -11.078125 C 22.6875 -10.273438 24.347656 -9.875 26.328125 -9.875 C 28.347656 -9.875 30.039062 -10.285156 31.40625 -11.109375 C 32.769531 -11.929688 33.851562 -13.035156 34.65625 -14.421875 C 35.457031 -15.816406 36.046875 -17.382812 36.421875 -19.125 C 36.796875 -20.863281 36.984375 -22.648438 36.984375 -24.484375 L 36.984375 -50.109375 L 48.5625 -50.109375 L 48.5625 -24.484375 C 48.5625 -21.003906 48.125 -17.757812 47.25 -14.75 C 46.382812 -11.738281 45.054688 -9.09375 43.265625 -6.8125 C 41.472656 -4.53125 39.175781 -2.753906 36.375 -1.484375 C 33.582031 -0.210938 30.234375 0.421875 26.328125 0.421875 Z M 14.265625 -54.984375 L 14.265625 -64.078125 L 23.578125 -64.078125 L 23.578125 -54.984375 Z M 29.078125 -54.984375 L 29.078125 -64.078125 L 38.40625 -64.078125 L 38.40625 -54.984375 Z M 29.078125 -54.984375 "/></g></g></g><g fill="#ffffff" fill-opacity="1"><g transform="translate(141.065973, 103.22248)"><g><path d="M 16.375 -28.65625 L 16.375 0 L 4.796875 0 L 4.796875 -50.109375 L 13.96875 -50.109375 L 37.1875 -20.609375 L 37.1875 -50.109375 L 48.765625 -50.109375 L 48.765625 0 L 39.3125 0 Z M 16.375 -28.65625 "/></g></g></g><g fill="#ffffff" fill-opacity="1"><g transform="translate(191.027629, 103.22248)"><g><path d="M 40.015625 -10.15625 L 40.015625 0 L 4.796875 0 L 4.796875 -50.109375 L 39.375 -50.109375 L 39.375 -39.953125 L 16.375 -39.953125 L 16.375 -30.203125 L 36.140625 -30.203125 L 36.140625 -20.828125 L 16.375 -20.828125 L 16.375 -10.15625 Z M 40.015625 -10.15625 "/></g></g></g><g fill="#ffffff" fill-opacity="1"><g transform="translate(229.698361, 103.22248)"><g><path d="M 4.796875 0 L 4.796875 -50.109375 L 27.390625 -50.109375 C 29.734375 -50.109375 31.90625 -49.625 33.90625 -48.65625 C 35.90625 -47.695312 37.632812 -46.40625 39.09375 -44.78125 C 40.550781 -43.15625 41.691406 -41.332031 42.515625 -39.3125 C 43.347656 -37.289062 43.765625 -35.242188 43.765625 -33.171875 C 43.765625 -31.097656 43.429688 -29.128906 42.765625 -27.265625 C 42.109375 -25.410156 41.164062 -23.742188 39.9375 -22.265625 C 38.71875 -20.785156 37.265625 -19.570312 35.578125 -18.625 L 46.578125 0 L 33.8125 0 L 24.203125 -16.15625 L 16.375 -16.15625 L 16.375 0 Z M 16.375 -26.25 L 26.953125 -26.25 C 27.898438 -26.25 28.738281 -26.539062 29.46875 -27.125 C 30.195312 -27.71875 30.796875 -28.53125 31.265625 -29.5625 C 31.734375 -30.601562 31.96875 -31.804688 31.96875 -33.171875 C 31.96875 -34.535156 31.695312 -35.722656 31.15625 -36.734375 C 30.613281 -37.742188 29.941406 -38.53125 29.140625 -39.09375 C 28.347656 -39.664062 27.503906 -39.953125 26.609375 -39.953125 L 16.375 -39.953125 Z M 16.375 -26.25 "/></g></g></g><g fill="#ffffff" fill-opacity="1"><g transform="translate(273.379442, 103.22248)"><g><path d="M 17.4375 -50.109375 L 29.921875 -50.109375 L 47.140625 0 L 35.28125 0 L 31.40625 -11.21875 L 15.8125 -11.21875 L 12 0 L 0.140625 0 Z M 29.5 -19.203125 L 23.640625 -38.46875 L 17.640625 -19.203125 Z M 29.5 -19.203125 "/></g></g></g><g fill="#ffffff" fill-opacity="1"><g transform="translate(317.060522, 103.22248)"><g><path d="M 42.984375 -39.953125 L 27.734375 -39.953125 L 27.734375 0 L 16.15625 0 L 16.15625 -39.953125 L 0.84375 -39.953125 L 0.84375 -50.109375 L 42.984375 -50.109375 Z M 42.984375 -39.953125 "/></g></g></g><g clip-path="url(#afbe5f79ce)"><g clip-path="url(#f287161dca)"><g clip-path="url(#b3502b715e)"><path fill="#fff17a" d="M 390.921875 79.324219 C 390.902344 79.640625 390.855469 79.949219 390.777344 80.257812 C 390.699219 80.5625 390.59375 80.859375 390.457031 81.144531 C 390.320312 81.429688 390.160156 81.699219 389.96875 81.953125 C 389.78125 82.203125 389.570312 82.4375 389.332031 82.648438 C 389.097656 82.859375 388.847656 83.046875 388.574219 83.207031 C 388.300781 83.371094 388.019531 83.503906 387.71875 83.609375 C 387.421875 83.714844 387.117188 83.789062 386.804688 83.835938 C 386.492188 83.878906 386.175781 83.894531 385.863281 83.878906 C 385.546875 83.859375 385.234375 83.8125 384.929688 83.734375 C 384.621094 83.660156 384.328125 83.550781 384.042969 83.414062 C 383.757812 83.277344 383.488281 83.117188 383.234375 82.925781 C 382.980469 82.738281 382.75 82.527344 382.535156 82.292969 C 382.324219 82.058594 382.140625 81.804688 381.976562 81.53125 C 381.816406 81.261719 381.683594 80.976562 381.578125 80.675781 C 381.472656 80.378906 381.394531 80.074219 381.351562 79.761719 C 381.304688 79.449219 381.292969 79.132812 381.308594 78.820312 C 381.324219 78.503906 381.371094 78.191406 381.449219 77.886719 C 381.527344 77.582031 381.632812 77.285156 381.769531 77 C 381.90625 76.714844 382.070312 76.445312 382.257812 76.191406 C 382.449219 75.9375 382.660156 75.707031 382.894531 75.496094 C 383.128906 75.285156 383.382812 75.097656 383.652344 74.933594 C 383.925781 74.773438 384.210938 74.640625 384.507812 74.535156 C 384.804688 74.429688 385.113281 74.355469 385.425781 74.308594 C 385.738281 74.261719 386.050781 74.25 386.367188 74.265625 C 386.683594 74.28125 386.992188 74.328125 387.300781 74.40625 C 387.605469 74.484375 387.902344 74.59375 388.1875 74.726562 C 388.472656 74.863281 388.742188 75.027344 388.992188 75.214844 C 389.246094 75.40625 389.480469 75.617188 389.691406 75.851562 C 389.902344 76.085938 390.089844 76.339844 390.25 76.613281 C 390.410156 76.882812 390.546875 77.167969 390.652344 77.464844 C 390.757812 77.765625 390.832031 78.070312 390.878906 78.382812 C 390.921875 78.695312 390.9375 79.007812 390.921875 79.324219 Z M 390.921875 79.324219 " fill-opacity="1" fill-rule="nonzero"/></g></g></g><g clip-path="url(#128631ed05)"><g clip-path="url(#4a8d5ad0e1)"><g clip-path="url(#1ae85daf30)"><path fill="#fff17a" d="M 413.113281 75.714844 L 406.460938 74.101562 C 406.125 72.722656 405.65625 71.390625 405.058594 70.128906 L 409.246094 64.652344 C 409.632812 64.144531 409.601562 63.347656 409.171875 62.875 L 404.632812 57.828125 C 404.207031 57.355469 403.417969 57.242188 402.875 57.570312 L 396.988281 61.164062 C 395.761719 60.414062 394.445312 59.800781 393.066406 59.3125 L 392.164062 52.566406 C 392.078125 51.933594 391.496094 51.394531 390.859375 51.359375 L 384.078125 51.003906 C 383.441406 50.96875 382.804688 51.445312 382.652344 52.066406 L 381.035156 58.746094 C 379.667969 59.089844 378.351562 59.554688 377.105469 60.152344 L 371.695312 56.015625 C 371.1875 55.628906 370.390625 55.660156 369.917969 56.089844 L 364.871094 60.628906 C 364.398438 61.058594 364.285156 61.84375 364.613281 62.390625 L 368.183594 68.238281 C 367.46875 69.417969 366.871094 70.675781 366.398438 71.996094 L 359.617188 72.902344 C 358.984375 72.988281 358.445312 73.570312 358.410156 74.210938 L 358.054688 80.988281 C 358.019531 81.625 358.496094 82.261719 359.117188 82.414062 L 365.761719 84.027344 C 366.101562 85.417969 366.570312 86.761719 367.171875 88.03125 L 363.058594 93.414062 C 362.671875 93.921875 362.703125 94.714844 363.128906 95.191406 L 367.671875 100.234375 C 368.097656 100.710938 368.882812 100.824219 369.429688 100.492188 L 375.210938 96.964844 C 376.378906 97.679688 377.625 98.273438 378.933594 98.75 L 379.84375 105.566406 C 379.929688 106.199219 380.515625 106.738281 381.152344 106.773438 L 387.929688 107.128906 C 388.566406 107.160156 389.203125 106.6875 389.355469 106.066406 L 390.960938 99.449219 C 392.367188 99.113281 393.726562 98.644531 395.011719 98.039062 L 400.460938 102.207031 C 400.96875 102.59375 401.761719 102.5625 402.238281 102.132812 L 407.28125 97.59375 C 407.753906 97.167969 407.871094 96.382812 407.539062 95.835938 L 403.988281 90.011719 C 404.730469 88.796875 405.347656 87.496094 405.835938 86.132812 L 412.613281 85.226562 C 413.246094 85.140625 413.785156 84.554688 413.820312 83.917969 L 414.175781 77.140625 C 414.207031 76.503906 413.730469 75.867188 413.113281 75.714844 Z M 385.503906 90.703125 C 379.082031 90.367188 374.148438 84.886719 374.484375 78.460938 C 374.820312 72.039062 380.304688 67.105469 386.726562 67.441406 C 393.148438 67.777344 398.085938 73.261719 397.746094 79.683594 C 397.410156 86.105469 391.925781 91.039062 385.503906 90.703125 Z M 385.503906 90.703125 " fill-opacity="1" fill-rule="nonzero"/></g></g></g><g transform="matrix(1, 0, 0, 1, 415, 37)"><g clip-path="url(#59109a5f8e)"><g fill="#ffffff" fill-opacity="1"><g transform="translate(1.037781, 66.891439)"><g><path d="M 0.703125 0 L 11.359375 -50.109375 L 32.53125 -50.109375 C 35.070312 -50.109375 37.238281 -49.445312 39.03125 -48.125 C 40.820312 -46.8125 42.195312 -45.097656 43.15625 -42.984375 C 44.125 -40.867188 44.609375 -38.632812 44.609375 -36.28125 C 44.609375 -34.445312 44.3125 -32.644531 43.71875 -30.875 C 43.132812 -29.113281 42.300781 -27.457031 41.21875 -25.90625 C 40.132812 -24.351562 38.875 -22.960938 37.4375 -21.734375 C 36 -20.515625 34.4375 -19.550781 32.75 -18.84375 L 39.53125 0 L 28.515625 0 L 22.578125 -16.796875 L 13.90625 -16.796875 L 10.375 0 Z M 26.953125 -25.34375 C 27.941406 -25.34375 28.882812 -25.609375 29.78125 -26.140625 C 30.675781 -26.679688 31.488281 -27.410156 32.21875 -28.328125 C 32.945312 -29.253906 33.519531 -30.316406 33.9375 -31.515625 C 34.363281 -32.710938 34.578125 -33.96875 34.578125 -35.28125 C 34.578125 -36.507812 34.378906 -37.59375 33.984375 -38.53125 C 33.585938 -39.476562 33.046875 -40.222656 32.359375 -40.765625 C 31.679688 -41.304688 30.914062 -41.578125 30.0625 -41.578125 L 19.203125 -41.578125 L 15.734375 -25.34375 Z M 26.953125 -25.34375 "/></g></g></g></g></g><g transform="matrix(1, 0, 0, 1, 459, 29)"><g clip-path="url(#8cd67f8755)"><g fill="#fff17a" fill-opacity="1"><g transform="translate(4.814178, 64.978104)"><g><path d="M -3.015625 9.890625 L -0.96875 0 L 22.375 0 L 20.328125 9.890625 Z M -3.015625 9.890625 "/></g></g></g></g></g></svg>