<svg viewBox="0 0 24 24" xmlns="http://www.w3.org/2000/svg">
  <!-- Circle background -->
  <circle cx="12" cy="12" r="10" fill="#008939"/>
  <!-- Arrow pointing right -->
  <path fill="#FFFFFF" d="M13.54 8.21s1.502 1.505 3.255 3.259c.146.147.219.339.219.531s-.073.383-.219.53c-1.753 1.754-3.254 3.258-3.254 3.258-.145.145-.336.217-.527.217-.191-.001-.383-.074-.53-.221-.293-.293-.295-.766-.004-1.057l1.978-1.977h-6.694c-.414 0-.75-.336-.75-.75s.336-.75.75-.75h6.694l-1.979-1.979c-.289-.289-.286-.762.006-1.054.147-.147.339-.221.531-.222.19 0 .38.071.524.215z"/>
</svg>
