<svg xmlns="http://www.w3.org/2000/svg" xmlns:xlink="http://www.w3.org/1999/xlink" width="650" zoomAndPan="magnify" viewBox="0 0 487.5 149.999998" height="200" preserveAspectRatio="xMidYMid meet" version="1.0"><defs><g/><clipPath id="bf0fac37a5"><path d="M 358 74 L 371 74 L 371 88 L 358 88 Z M 358 74 " clip-rule="nonzero"/></clipPath><clipPath id="779f2a5969"><path d="M 329.289062 41.886719 L 403.359375 45.78125 L 399.46875 119.851562 L 325.394531 115.960938 Z M 329.289062 41.886719 " clip-rule="nonzero"/></clipPath><clipPath id="fc643692c5"><path d="M 329.289062 41.886719 L 403.359375 45.78125 L 399.46875 119.851562 L 325.394531 115.960938 Z M 329.289062 41.886719 " clip-rule="nonzero"/></clipPath><clipPath id="2b93530b08"><path d="M 327 43 L 402 43 L 402 119 L 327 119 Z M 327 43 " clip-rule="nonzero"/></clipPath><clipPath id="59c44e38b5"><path d="M 329.289062 41.886719 L 403.359375 45.78125 L 399.46875 119.851562 L 325.394531 115.960938 Z M 329.289062 41.886719 " clip-rule="nonzero"/></clipPath><clipPath id="ff24ceaca7"><path d="M 329.289062 41.886719 L 403.359375 45.78125 L 399.46875 119.851562 L 325.394531 115.960938 Z M 329.289062 41.886719 " clip-rule="nonzero"/></clipPath></defs><g fill="#f5f1e9" fill-opacity="1"><g transform="translate(2.633917, 115.274743)"><g><path d="M 15.675781 1.121094 C 30.308594 1.121094 37.851562 -8.359375 38.074219 -9.480469 L 43.671875 -36.207031 L 22.246094 -36.207031 L 19.785156 -24.636719 L 28.144531 -24.636719 L 25.679688 -12.765625 C 23.144531 -11.050781 20.304688 -10.378906 18.140625 -10.378906 C 14.707031 -10.378906 12.394531 -12.839844 12.394531 -15.828125 C 12.394531 -16.425781 12.46875 -16.945312 12.542969 -17.394531 L 19.1875 -49.121094 C 20.007812 -52.929688 23.589844 -56.511719 27.847656 -56.511719 C 31.429688 -56.511719 33.59375 -54.199219 33.59375 -50.988281 C 33.59375 -50.542969 33.519531 -49.871094 33.445312 -49.496094 L 32.027344 -42.554688 L 45.089844 -42.554688 L 46.136719 -47.855469 C 46.433594 -49.273438 46.585938 -50.617188 46.585938 -51.960938 C 46.585938 -61.441406 39.941406 -68.308594 30.308594 -68.308594 C 19.035156 -68.308594 7.988281 -59.277344 5.597656 -47.855469 L -0.375 -19.1875 C -0.746094 -17.542969 -0.894531 -15.976562 -0.894531 -14.484375 C -0.894531 -5.597656 5 1.121094 15.675781 1.121094 Z M 15.675781 1.121094 "/></g></g></g><g fill="#f5f1e9" fill-opacity="1"><g transform="translate(44.646621, 115.274743)"><g><path d="M -3.433594 0 L 9.480469 0 L 15.753906 -29.265625 L 18.8125 -29.265625 L 25.308594 0 L 39.117188 0 L 31.726562 -32.027344 C 38.96875 -35.910156 44.34375 -43.375 44.34375 -52.332031 C 44.34375 -60.84375 38 -67.1875 28.890625 -67.1875 L 10.898438 -67.1875 Z M 21.5 -40.460938 L 18.140625 -40.460938 L 21.425781 -55.992188 L 24.785156 -55.992188 C 28.367188 -55.992188 30.980469 -53.453125 30.980469 -49.945312 C 30.980469 -44.71875 26.652344 -40.460938 21.5 -40.460938 Z M 21.5 -40.460938 "/></g></g></g><g fill="#f5f1e9" fill-opacity="1"><g transform="translate(85.315622, 115.274743)"><g><path d="M 37.625 -17.691406 L 48.152344 -67.1875 L 35.164062 -67.1875 L 24.335938 -16.125 C 23.664062 -12.988281 20.53125 -10.453125 17.46875 -10.453125 C 14.78125 -10.453125 12.988281 -12.167969 12.988281 -14.855469 C 12.988281 -15.304688 13.066406 -15.753906 13.140625 -16.125 L 23.964844 -67.1875 L 10.898438 -67.1875 L 0.375 -17.691406 C 0.0742188 -16.347656 -0.0742188 -15.003906 -0.0742188 -13.738281 C -0.0742188 -5.226562 6.121094 1.121094 15.003906 1.121094 C 25.308594 1.121094 35.460938 -7.464844 37.625 -17.691406 Z M 20.753906 -70.921875 C 24.859375 -70.921875 28.445312 -74.730469 28.445312 -78.3125 C 28.445312 -81 26.800781 -83.464844 23.441406 -83.464844 C 19.335938 -83.464844 15.601562 -79.804688 15.601562 -75.847656 C 15.601562 -73.085938 17.617188 -70.921875 20.753906 -70.921875 Z M 42.03125 -83.464844 C 38.074219 -83.464844 34.265625 -79.878906 34.265625 -75.921875 C 34.265625 -73.160156 36.132812 -70.921875 39.417969 -70.921875 C 43.226562 -70.921875 47.03125 -74.730469 47.03125 -78.3125 C 47.03125 -81.074219 45.390625 -83.464844 42.03125 -83.464844 Z M 42.03125 -83.464844 "/></g></g></g><g fill="#f5f1e9" fill-opacity="1"><g transform="translate(125.909964, 115.274743)"><g><path d="M -3.433594 0 L 9.332031 0 L 20.082031 -50.390625 L 19.707031 0 L 36.65625 0 L 50.988281 -67.1875 L 37.925781 -67.1875 L 27.324219 -17.46875 L 28.070312 -67.1875 L 10.898438 -67.1875 Z M -3.433594 0 "/></g></g></g><g fill="#f5f1e9" fill-opacity="1"><g transform="translate(169.341018, 115.274743)"><g><path d="M 30.460938 -11.347656 L 12.019531 -11.347656 L 15.976562 -29.9375 L 31.578125 -29.9375 L 33.894531 -41.132812 L 18.289062 -41.132812 L 21.425781 -55.765625 L 39.867188 -55.765625 L 42.328125 -67.1875 L 10.898438 -67.1875 L -3.433594 0 L 27.996094 0 Z M 30.460938 -11.347656 "/></g></g></g><g fill="#f5f1e9" fill-opacity="1"><g transform="translate(202.619674, 115.274743)"><g><path d="M -3.433594 0 L 9.480469 0 L 15.753906 -29.265625 L 18.8125 -29.265625 L 25.308594 0 L 39.117188 0 L 31.726562 -32.027344 C 38.96875 -35.910156 44.34375 -43.375 44.34375 -52.332031 C 44.34375 -60.84375 38 -67.1875 28.890625 -67.1875 L 10.898438 -67.1875 Z M 21.5 -40.460938 L 18.140625 -40.460938 L 21.425781 -55.992188 L 24.785156 -55.992188 C 28.367188 -55.992188 30.980469 -53.453125 30.980469 -49.945312 C 30.980469 -44.71875 26.652344 -40.460938 21.5 -40.460938 Z M 21.5 -40.460938 "/></g></g></g><g fill="#f5f1e9" fill-opacity="1"><g transform="translate(243.28867, 115.274743)"><g><path d="M 29.5625 -19.558594 L 28.964844 0 L 42.03125 0 L 42.03125 -67.1875 L 23.816406 -67.1875 L -4.777344 0 L 8.0625 0 L 15.675781 -19.558594 Z M 29.9375 -30.757812 L 20.15625 -30.757812 L 30.535156 -56.289062 Z M 29.9375 -30.757812 "/></g></g></g><g fill="#f5f1e9" fill-opacity="1"><g transform="translate(289.257824, 115.274743)"><g><path d="M 40.539062 -55.691406 L 43 -67.1875 L 7.914062 -67.1875 L 5.449219 -55.691406 L 16.574219 -55.691406 L 4.703125 0 L 17.769531 0 L 29.636719 -55.691406 Z M 40.539062 -55.691406 "/></g></g></g><g clip-path="url(#bf0fac37a5)"><g clip-path="url(#779f2a5969)"><g clip-path="url(#fc643692c5)"><path fill="#fff17a" d="M 370.835938 81.214844 C 370.816406 81.632812 370.753906 82.046875 370.648438 82.453125 C 370.546875 82.859375 370.40625 83.25 370.222656 83.628906 C 370.042969 84.007812 369.828125 84.367188 369.578125 84.703125 C 369.324219 85.039062 369.042969 85.347656 368.730469 85.625 C 368.421875 85.90625 368.085938 86.15625 367.722656 86.367188 C 367.363281 86.582031 366.984375 86.761719 366.589844 86.902344 C 366.195312 87.039062 365.789062 87.140625 365.375 87.199219 C 364.960938 87.261719 364.542969 87.28125 364.125 87.257812 C 363.707031 87.234375 363.292969 87.171875 362.886719 87.070312 C 362.480469 86.964844 362.085938 86.824219 361.707031 86.644531 C 361.332031 86.464844 360.972656 86.246094 360.636719 85.996094 C 360.300781 85.746094 359.992188 85.464844 359.710938 85.152344 C 359.433594 84.839844 359.183594 84.503906 358.96875 84.144531 C 358.753906 83.785156 358.578125 83.40625 358.4375 83.011719 C 358.296875 82.617188 358.199219 82.210938 358.136719 81.796875 C 358.078125 81.378906 358.058594 80.964844 358.082031 80.542969 C 358.101562 80.125 358.164062 79.714844 358.269531 79.304688 C 358.371094 78.898438 358.515625 78.507812 358.695312 78.128906 C 358.875 77.75 359.089844 77.394531 359.34375 77.058594 C 359.59375 76.722656 359.875 76.414062 360.1875 76.132812 C 360.496094 75.851562 360.832031 75.605469 361.195312 75.390625 C 361.554688 75.175781 361.933594 75 362.328125 74.859375 C 362.722656 74.71875 363.128906 74.617188 363.542969 74.558594 C 363.957031 74.5 364.375 74.480469 364.792969 74.5 C 365.214844 74.523438 365.625 74.585938 366.03125 74.6875 C 366.4375 74.792969 366.832031 74.933594 367.210938 75.113281 C 367.589844 75.296875 367.945312 75.511719 368.28125 75.761719 C 368.617188 76.011719 368.925781 76.292969 369.207031 76.605469 C 369.488281 76.917969 369.734375 77.253906 369.949219 77.613281 C 370.164062 77.976562 370.339844 78.351562 370.480469 78.75 C 370.621094 79.144531 370.71875 79.550781 370.78125 79.964844 C 370.839844 80.378906 370.859375 80.796875 370.835938 81.214844 Z M 370.835938 81.214844 " fill-opacity="1" fill-rule="nonzero"/></g></g></g><g clip-path="url(#2b93530b08)"><g clip-path="url(#59c44e38b5)"><g clip-path="url(#ff24ceaca7)"><path fill="#fff17a" d="M 400.289062 76.421875 L 391.460938 74.285156 C 391.015625 72.453125 390.394531 70.683594 389.601562 69.011719 L 395.15625 61.742188 C 395.671875 61.066406 395.628906 60.011719 395.0625 59.382812 L 389.035156 52.6875 C 388.46875 52.058594 387.425781 51.90625 386.703125 52.347656 L 378.886719 57.113281 C 377.261719 56.121094 375.515625 55.304688 373.6875 54.660156 L 372.488281 45.703125 C 372.375 44.863281 371.601562 44.148438 370.753906 44.101562 L 361.761719 43.628906 C 360.914062 43.585938 360.066406 44.21875 359.867188 45.039062 L 357.71875 53.90625 C 355.90625 54.359375 354.160156 54.980469 352.503906 55.769531 L 345.320312 50.28125 C 344.648438 49.769531 343.59375 49.8125 342.964844 50.378906 L 336.269531 56.40625 C 335.640625 56.972656 335.488281 58.015625 335.925781 58.738281 L 340.660156 66.503906 C 339.714844 68.066406 338.925781 69.738281 338.292969 71.492188 L 329.292969 72.691406 C 328.453125 72.808594 327.738281 73.582031 327.695312 74.425781 L 327.222656 83.421875 C 327.175781 84.269531 327.808594 85.113281 328.628906 85.316406 L 337.449219 87.453125 C 337.898438 89.300781 338.523438 91.082031 339.320312 92.769531 L 333.863281 99.914062 C 333.347656 100.585938 333.390625 101.640625 333.957031 102.269531 L 339.984375 108.964844 C 340.550781 109.597656 341.59375 109.746094 342.316406 109.308594 L 349.992188 104.625 C 351.539062 105.570312 353.195312 106.363281 354.929688 106.996094 L 356.140625 116.042969 C 356.253906 116.878906 357.027344 117.597656 357.875 117.640625 L 366.871094 118.113281 C 367.714844 118.15625 368.5625 117.527344 368.761719 116.707031 L 370.890625 107.921875 C 372.757812 107.476562 374.558594 106.855469 376.265625 106.054688 L 383.5 111.582031 C 384.171875 112.09375 385.226562 112.054688 385.855469 111.484375 L 392.550781 105.460938 C 393.179688 104.894531 393.332031 103.851562 392.890625 103.128906 L 388.179688 95.398438 C 389.167969 93.789062 389.984375 92.0625 390.632812 90.25 L 399.628906 89.046875 C 400.464844 88.933594 401.183594 88.160156 401.226562 87.3125 L 401.699219 78.316406 C 401.742188 77.46875 401.113281 76.625 400.289062 76.421875 Z M 363.648438 96.316406 C 355.125 95.867188 348.578125 88.59375 349.027344 80.066406 C 349.472656 71.546875 356.746094 64.996094 365.269531 65.445312 C 373.796875 65.890625 380.34375 73.167969 379.898438 81.6875 C 379.449219 90.214844 372.171875 96.765625 363.648438 96.316406 Z M 363.648438 96.316406 " fill-opacity="1" fill-rule="nonzero"/></g></g></g><g fill="#f5f1e9" fill-opacity="1"><g transform="translate(406.579005, 114.025585)"><g><path d="M -3.433594 0 L 9.480469 0 L 15.75 -29.265625 L 18.8125 -29.265625 L 25.308594 0 L 39.117188 0 L 31.726562 -32.027344 C 38.96875 -35.910156 44.34375 -43.375 44.34375 -52.332031 C 44.34375 -60.84375 38 -67.1875 28.890625 -67.1875 L 10.898438 -67.1875 Z M 21.5 -40.460938 L 18.140625 -40.460938 L 21.425781 -55.988281 L 24.785156 -55.988281 C 28.367188 -55.988281 30.980469 -53.453125 30.980469 -49.941406 C 30.980469 -44.71875 26.652344 -40.460938 21.5 -40.460938 Z M 21.5 -40.460938 "/></g></g></g><g fill="#fff17a" fill-opacity="1"><g transform="translate(460.018992, 101.952435)"><g><path d="M 25.082031 2.984375 L -7.765625 2.984375 L -9.703125 11.945312 L 23.144531 11.945312 Z M 25.082031 2.984375 "/></g></g></g></svg>