<svg xmlns="http://www.w3.org/2000/svg" xmlns:xlink="http://www.w3.org/1999/xlink" width="1024" zoomAndPan="magnify" viewBox="0 0 768 767.999994" height="1024" preserveAspectRatio="xMidYMid meet" version="1.0"><defs><g/><clipPath id="305ca4e1fa"><path d="M 73 0 L 688 0 L 688 762 L 73 762 Z M 73 0 " clip-rule="nonzero"/></clipPath><clipPath id="e7f89ae821"><path d="M 236 360 L 278 360 L 278 402 L 236 402 Z M 236 360 " clip-rule="nonzero"/></clipPath><clipPath id="dbc3411274"><path d="M 143.5 255.742188 L 381.671875 268.257812 L 369.15625 506.425781 L 130.984375 493.914062 Z M 143.5 255.742188 " clip-rule="nonzero"/></clipPath><clipPath id="f9de1f6f9c"><path d="M 143.5 255.742188 L 381.671875 268.257812 L 369.15625 506.425781 L 130.984375 493.914062 Z M 143.5 255.742188 " clip-rule="nonzero"/></clipPath><clipPath id="f9b1268042"><path d="M 136 261 L 377 261 L 377 501 L 136 501 Z M 136 261 " clip-rule="nonzero"/></clipPath><clipPath id="af8aab0811"><path d="M 143.5 255.742188 L 381.671875 268.257812 L 369.15625 506.425781 L 130.984375 493.914062 Z M 143.5 255.742188 " clip-rule="nonzero"/></clipPath><clipPath id="b98649a8f9"><path d="M 143.5 255.742188 L 381.671875 268.257812 L 369.15625 506.425781 L 130.984375 493.914062 Z M 143.5 255.742188 " clip-rule="nonzero"/></clipPath><clipPath id="cdc1683ec1"><rect x="0" width="219" y="0" height="552"/></clipPath></defs><g clip-path="url(#305ca4e1fa)"><path fill="#005437" d="M 601.171875 0 C 602.589844 0 604.003906 0.0351562 605.417969 0.105469 C 606.832031 0.171875 608.246094 0.277344 609.652344 0.417969 C 611.0625 0.554688 612.46875 0.730469 613.867188 0.9375 C 615.269531 1.144531 616.664062 1.386719 618.054688 1.664062 C 619.441406 1.9375 620.824219 2.25 622.195312 2.59375 C 623.570312 2.9375 624.933594 3.316406 626.289062 3.726562 C 627.644531 4.136719 628.988281 4.582031 630.324219 5.058594 C 631.65625 5.535156 632.976562 6.042969 634.285156 6.585938 C 635.59375 7.128906 636.886719 7.703125 638.167969 8.308594 C 639.449219 8.914062 640.710938 9.550781 641.960938 10.21875 C 643.210938 10.882812 644.441406 11.582031 645.65625 12.308594 C 646.871094 13.039062 648.066406 13.796875 649.246094 14.582031 C 650.421875 15.371094 651.578125 16.183594 652.71875 17.027344 C 653.855469 17.871094 654.96875 18.742188 656.066406 19.640625 C 657.160156 20.539062 658.230469 21.464844 659.28125 22.414062 C 660.332031 23.367188 661.355469 24.34375 662.355469 25.34375 C 663.359375 26.34375 664.335938 27.371094 665.285156 28.417969 C 666.238281 29.46875 667.160156 30.539062 668.058594 31.636719 C 668.957031 32.730469 669.828125 33.847656 670.671875 34.984375 C 671.515625 36.121094 672.332031 37.277344 673.117188 38.457031 C 673.90625 39.632812 674.660156 40.828125 675.390625 42.042969 C 676.117188 43.257812 676.816406 44.488281 677.484375 45.738281 C 678.152344 46.988281 678.789062 48.253906 679.394531 49.53125 C 680 50.8125 680.570312 52.105469 681.113281 53.414062 C 681.65625 54.722656 682.164062 56.042969 682.640625 57.378906 C 683.121094 58.710938 683.5625 60.054688 683.976562 61.410156 C 684.386719 62.765625 684.761719 64.128906 685.109375 65.503906 C 685.453125 66.878906 685.761719 68.257812 686.039062 69.648438 C 686.3125 71.035156 686.554688 72.429688 686.765625 73.832031 C 686.972656 75.234375 687.144531 76.636719 687.285156 78.046875 C 687.421875 79.457031 687.527344 80.867188 687.597656 82.28125 C 687.664062 83.695312 687.699219 85.113281 687.699219 86.527344 L 687.699219 675.554688 C 687.699219 676.96875 687.664062 678.386719 687.597656 679.800781 C 687.527344 681.214844 687.421875 682.625 687.285156 684.035156 C 687.144531 685.445312 686.972656 686.847656 686.765625 688.25 C 686.554688 689.652344 686.3125 691.046875 686.039062 692.433594 C 685.761719 693.824219 685.453125 695.203125 685.109375 696.578125 C 684.761719 697.953125 684.386719 699.316406 683.976562 700.671875 C 683.5625 702.027344 683.121094 703.371094 682.640625 704.703125 C 682.164062 706.039062 681.65625 707.359375 681.113281 708.667969 C 680.570312 709.976562 680 711.269531 679.394531 712.550781 C 678.789062 713.828125 678.152344 715.09375 677.484375 716.34375 C 676.816406 717.59375 676.117188 718.824219 675.390625 720.039062 C 674.660156 721.253906 673.90625 722.449219 673.117188 723.625 C 672.332031 724.804688 671.515625 725.960938 670.671875 727.097656 C 669.828125 728.234375 668.957031 729.351562 668.058594 730.445312 C 667.160156 731.542969 666.238281 732.613281 665.285156 733.664062 C 664.335938 734.710938 663.359375 735.738281 662.355469 736.738281 C 661.355469 737.738281 660.332031 738.714844 659.28125 739.667969 C 658.230469 740.617188 657.160156 741.542969 656.066406 742.441406 C 654.96875 743.339844 653.855469 744.210938 652.71875 745.054688 C 651.578125 745.898438 650.421875 746.710938 649.246094 747.5 C 648.066406 748.285156 646.871094 749.042969 645.65625 749.769531 C 644.441406 750.5 643.210938 751.195312 641.960938 751.863281 C 640.710938 752.53125 639.449219 753.167969 638.167969 753.773438 C 636.886719 754.378906 635.59375 754.953125 634.285156 755.496094 C 632.976562 756.039062 631.65625 756.546875 630.324219 757.023438 C 628.988281 757.5 627.644531 757.945312 626.289062 758.355469 C 624.933594 758.765625 623.570312 759.144531 622.195312 759.488281 C 620.824219 759.832031 619.441406 760.144531 618.054688 760.417969 C 616.664062 760.695312 615.269531 760.9375 613.867188 761.144531 C 612.46875 761.351562 611.0625 761.527344 609.652344 761.664062 C 608.246094 761.804688 606.832031 761.910156 605.417969 761.976562 C 604.003906 762.046875 602.589844 762.082031 601.171875 762.082031 L 160.433594 762.082031 C 159.019531 762.082031 157.605469 762.046875 156.1875 761.976562 C 154.773438 761.910156 153.363281 761.804688 151.953125 761.664062 C 150.542969 761.527344 149.140625 761.351562 147.738281 761.144531 C 146.339844 760.9375 144.941406 760.695312 143.554688 760.417969 C 142.164062 760.144531 140.785156 759.832031 139.410156 759.488281 C 138.035156 759.144531 136.671875 758.765625 135.316406 758.355469 C 133.960938 757.945312 132.617188 757.5 131.285156 757.023438 C 129.953125 756.546875 128.628906 756.039062 127.320312 755.496094 C 126.015625 754.953125 124.71875 754.378906 123.441406 753.773438 C 122.160156 753.167969 120.894531 752.53125 119.644531 751.863281 C 118.398438 751.199219 117.164062 750.5 115.949219 749.773438 C 114.734375 749.042969 113.539062 748.285156 112.363281 747.5 C 111.183594 746.710938 110.027344 745.898438 108.890625 745.054688 C 107.753906 744.210938 106.636719 743.339844 105.542969 742.441406 C 104.449219 741.542969 103.375 740.617188 102.328125 739.667969 C 101.277344 738.714844 100.25 737.738281 99.25 736.738281 C 98.25 735.738281 97.273438 734.710938 96.320312 733.664062 C 95.371094 732.613281 94.445312 731.542969 93.546875 730.445312 C 92.648438 729.351562 91.777344 728.234375 90.933594 727.097656 C 90.089844 725.960938 89.277344 724.804688 88.488281 723.625 C 87.703125 722.449219 86.945312 721.253906 86.21875 720.039062 C 85.488281 718.824219 84.792969 717.59375 84.125 716.34375 C 83.457031 715.09375 82.820312 713.828125 82.214844 712.550781 C 81.609375 711.269531 81.035156 709.976562 80.492188 708.667969 C 79.953125 707.359375 79.441406 706.039062 78.964844 704.703125 C 78.488281 703.371094 78.042969 702.027344 77.632812 700.671875 C 77.222656 699.316406 76.84375 697.953125 76.5 696.578125 C 76.15625 695.203125 75.847656 693.824219 75.570312 692.433594 C 75.292969 691.046875 75.050781 689.652344 74.84375 688.25 C 74.636719 686.847656 74.460938 685.445312 74.324219 684.035156 C 74.183594 682.625 74.082031 681.214844 74.011719 679.800781 C 73.941406 678.386719 73.90625 676.96875 73.90625 675.554688 L 73.90625 188.773438 C 73.902344 186.207031 74.148438 183.667969 74.644531 181.152344 C 75.140625 178.632812 75.882812 176.191406 76.863281 173.820312 C 77.84375 171.449219 79.046875 169.195312 80.472656 167.066406 C 81.898438 164.933594 83.523438 162.960938 85.339844 161.148438 L 235.054688 11.429688 C 236.867188 9.613281 238.839844 7.992188 240.972656 6.566406 C 243.105469 5.140625 245.355469 3.9375 247.726562 2.957031 C 250.097656 1.972656 252.539062 1.234375 255.058594 0.738281 C 257.574219 0.242188 260.117188 -0.00390625 262.679688 0 Z M 601.171875 0 " fill-opacity="1" fill-rule="nonzero"/></g><path fill="#dfe8f4" d="M 77.558594 172.578125 C 79.4375 168.28125 82.03125 164.472656 85.339844 161.148438 L 235.054688 11.429688 C 238.378906 8.121094 242.191406 5.53125 246.488281 3.652344 L 246.488281 86.050781 C 246.488281 87.46875 246.453125 88.882812 246.382812 90.296875 C 246.3125 91.710938 246.207031 93.125 246.070312 94.53125 C 245.929688 95.941406 245.757812 97.347656 245.550781 98.75 C 245.34375 100.148438 245.101562 101.542969 244.824219 102.933594 C 244.546875 104.320312 244.238281 105.703125 243.894531 107.078125 C 243.550781 108.449219 243.171875 109.816406 242.761719 111.167969 C 242.351562 112.523438 241.90625 113.867188 241.429688 115.203125 C 240.953125 116.535156 240.441406 117.855469 239.898438 119.164062 C 239.359375 120.472656 238.785156 121.765625 238.179688 123.046875 C 237.574219 124.328125 236.9375 125.59375 236.269531 126.839844 C 235.601562 128.089844 234.90625 129.320312 234.175781 130.535156 C 233.449219 131.75 232.691406 132.945312 231.902344 134.125 C 231.117188 135.300781 230.300781 136.460938 229.457031 137.597656 C 228.617188 138.734375 227.746094 139.851562 226.847656 140.945312 C 225.949219 142.039062 225.023438 143.109375 224.070312 144.160156 C 223.121094 145.210938 222.144531 146.234375 221.144531 147.238281 C 220.140625 148.238281 219.117188 149.214844 218.066406 150.164062 C 217.019531 151.117188 215.945312 152.039062 214.851562 152.9375 C 213.757812 153.835938 212.640625 154.707031 211.503906 155.550781 C 210.367188 156.394531 209.207031 157.210938 208.03125 157.996094 C 206.855469 158.785156 205.65625 159.542969 204.441406 160.269531 C 203.226562 160.996094 201.996094 161.695312 200.746094 162.363281 C 199.5 163.03125 198.234375 163.667969 196.953125 164.273438 C 195.675781 164.878906 194.378906 165.453125 193.070312 165.992188 C 191.761719 166.535156 190.441406 167.042969 189.109375 167.523438 C 187.777344 168 186.433594 168.441406 185.078125 168.855469 C 183.722656 169.265625 182.355469 169.644531 180.984375 169.988281 C 179.609375 170.332031 178.226562 170.640625 176.839844 170.917969 C 175.449219 171.195312 174.054688 171.433594 172.65625 171.644531 C 171.253906 171.851562 169.847656 172.023438 168.441406 172.164062 C 167.03125 172.300781 165.617188 172.40625 164.203125 172.476562 C 162.789062 172.546875 161.375 172.578125 159.957031 172.578125 Z M 77.558594 172.578125 " fill-opacity="1" fill-rule="nonzero"/><g clip-path="url(#e7f89ae821)"><g clip-path="url(#dbc3411274)"><g clip-path="url(#f9de1f6f9c)"><path fill="#f5f1e9" d="M 277.035156 382.132812 C 277 382.800781 276.929688 383.46875 276.828125 384.136719 C 276.730469 384.800781 276.59375 385.457031 276.429688 386.109375 C 276.265625 386.761719 276.066406 387.402344 275.839844 388.035156 C 275.609375 388.667969 275.351562 389.285156 275.0625 389.894531 C 274.773438 390.5 274.453125 391.089844 274.105469 391.667969 C 273.757812 392.242188 273.382812 392.800781 272.980469 393.339844 C 272.578125 393.875 272.152344 394.394531 271.699219 394.890625 C 271.246094 395.386719 270.769531 395.859375 270.269531 396.308594 C 269.769531 396.761719 269.25 397.183594 268.707031 397.582031 C 268.164062 397.980469 267.605469 398.351562 267.027344 398.695312 C 266.449219 399.039062 265.855469 399.355469 265.25 399.640625 C 264.640625 399.925781 264.019531 400.179688 263.386719 400.40625 C 262.75 400.628906 262.109375 400.820312 261.457031 400.984375 C 260.800781 401.144531 260.144531 401.273438 259.476562 401.367188 C 258.8125 401.464844 258.144531 401.527344 257.472656 401.558594 C 256.800781 401.589844 256.128906 401.585938 255.457031 401.550781 C 254.789062 401.515625 254.121094 401.449219 253.453125 401.347656 C 252.789062 401.246094 252.132812 401.113281 251.480469 400.949219 C 250.828125 400.78125 250.1875 400.585938 249.554688 400.355469 C 248.921875 400.128906 248.304688 399.871094 247.695312 399.578125 C 247.089844 399.289062 246.5 398.972656 245.921875 398.625 C 245.347656 398.277344 244.789062 397.902344 244.25 397.5 C 243.714844 397.097656 243.195312 396.667969 242.699219 396.214844 C 242.203125 395.761719 241.730469 395.285156 241.28125 394.785156 C 240.828125 394.289062 240.40625 393.765625 240.007812 393.226562 C 239.609375 392.683594 239.238281 392.125 238.894531 391.546875 C 238.550781 390.96875 238.234375 390.375 237.949219 389.765625 C 237.664062 389.160156 237.410156 388.539062 237.183594 387.902344 C 236.960938 387.269531 236.769531 386.625 236.605469 385.972656 C 236.445312 385.320312 236.316406 384.660156 236.222656 383.996094 C 236.125 383.332031 236.0625 382.664062 236.03125 381.992188 C 236 381.320312 236.003906 380.648438 236.039062 379.976562 C 236.074219 379.304688 236.140625 378.636719 236.242188 377.972656 C 236.34375 377.308594 236.476562 376.648438 236.640625 376 C 236.808594 375.347656 237.003906 374.707031 237.234375 374.074219 C 237.460938 373.441406 237.71875 372.820312 238.011719 372.214844 C 238.300781 371.609375 238.617188 371.015625 238.964844 370.441406 C 239.3125 369.867188 239.6875 369.308594 240.089844 368.769531 C 240.492188 368.230469 240.921875 367.714844 241.375 367.21875 C 241.828125 366.722656 242.304688 366.246094 242.804688 365.796875 C 243.300781 365.347656 243.824219 364.925781 244.363281 364.527344 C 244.90625 364.125 245.464844 363.753906 246.042969 363.410156 C 246.621094 363.070312 247.214844 362.753906 247.824219 362.46875 C 248.429688 362.183594 249.054688 361.929688 249.6875 361.703125 C 250.320312 361.480469 250.964844 361.285156 251.617188 361.125 C 252.269531 360.964844 252.929688 360.835938 253.59375 360.738281 C 254.257812 360.644531 254.925781 360.578125 255.597656 360.550781 C 256.269531 360.519531 256.941406 360.519531 257.613281 360.554688 C 258.285156 360.589844 258.953125 360.660156 259.617188 360.761719 C 260.28125 360.859375 260.941406 360.996094 261.589844 361.160156 C 262.242188 361.324219 262.882812 361.523438 263.515625 361.75 C 264.148438 361.980469 264.769531 362.238281 265.375 362.527344 C 265.980469 362.816406 266.574219 363.136719 267.148438 363.484375 C 267.722656 363.832031 268.28125 364.207031 268.820312 364.609375 C 269.359375 365.011719 269.875 365.4375 270.371094 365.890625 C 270.867188 366.34375 271.34375 366.820312 271.792969 367.320312 C 272.242188 367.820312 272.664062 368.339844 273.066406 368.882812 C 273.464844 369.425781 273.835938 369.984375 274.179688 370.5625 C 274.523438 371.140625 274.835938 371.734375 275.121094 372.339844 C 275.40625 372.949219 275.660156 373.570312 275.886719 374.203125 C 276.109375 374.839844 276.304688 375.480469 276.464844 376.132812 C 276.625 376.789062 276.753906 377.445312 276.851562 378.113281 C 276.945312 378.777344 277.011719 379.445312 277.039062 380.117188 C 277.070312 380.789062 277.070312 381.460938 277.035156 382.132812 Z M 277.035156 382.132812 " fill-opacity="1" fill-rule="nonzero"/></g></g></g><g clip-path="url(#f9b1268042)"><g clip-path="url(#af8aab0811)"><g clip-path="url(#b98649a8f9)"><path fill="#f5f1e9" d="M 371.691406 366.734375 L 343.316406 359.855469 C 341.878906 353.96875 339.890625 348.289062 337.339844 342.914062 L 355.191406 319.546875 C 356.84375 317.382812 356.707031 313.992188 354.886719 311.972656 L 335.519531 290.457031 C 333.699219 288.429688 330.34375 287.945312 328.019531 289.355469 L 302.90625 304.667969 C 297.679688 301.484375 292.070312 298.855469 286.191406 296.785156 L 282.34375 268.003906 C 281.980469 265.304688 279.492188 263.003906 276.769531 262.863281 L 247.859375 261.34375 C 245.140625 261.199219 242.421875 263.226562 241.777344 265.871094 L 234.867188 294.371094 C 229.046875 295.820312 223.429688 297.816406 218.109375 300.355469 L 195.03125 282.722656 C 192.867188 281.070312 189.476562 281.207031 187.457031 283.03125 L 165.941406 302.402344 C 163.914062 304.222656 163.429688 307.578125 164.839844 309.898438 L 180.054688 334.851562 C 177.007812 339.878906 174.472656 345.25 172.449219 350.882812 L 143.515625 354.742188 C 140.824219 355.109375 138.523438 357.597656 138.378906 360.320312 L 136.859375 389.230469 C 136.71875 391.949219 138.746094 394.664062 141.386719 395.3125 L 169.734375 402.183594 C 171.171875 408.117188 173.179688 413.847656 175.746094 419.265625 L 158.203125 442.226562 C 156.550781 444.390625 156.6875 447.78125 158.507812 449.800781 L 177.875 471.320312 C 179.695312 473.34375 183.050781 473.832031 185.375 472.417969 L 210.039062 457.371094 C 215.015625 460.410156 220.332031 462.949219 225.914062 464.988281 L 229.796875 494.058594 C 230.164062 496.753906 232.652344 499.054688 235.371094 499.195312 L 264.28125 500.714844 C 267 500.859375 269.71875 498.832031 270.363281 496.191406 L 277.207031 467.960938 C 283.203125 466.53125 288.996094 464.53125 294.480469 461.957031 L 317.726562 479.722656 C 319.890625 481.375 323.28125 481.238281 325.300781 479.417969 L 346.8125 460.054688 C 348.835938 458.234375 349.324219 454.878906 347.914062 452.558594 L 332.765625 427.71875 C 335.945312 422.539062 338.574219 416.988281 340.65625 411.164062 L 369.5625 407.300781 C 372.253906 406.933594 374.558594 404.445312 374.699219 401.726562 L 376.21875 372.816406 C 376.363281 370.097656 374.328125 367.378906 371.691406 366.734375 Z M 253.929688 430.664062 C 226.539062 429.226562 205.496094 405.847656 206.9375 378.441406 C 208.375 351.058594 231.753906 330.007812 259.140625 331.449219 C 286.542969 332.890625 307.589844 356.269531 306.152344 383.65625 C 304.710938 411.0625 281.324219 432.105469 253.929688 430.664062 Z M 253.929688 430.664062 " fill-opacity="1" fill-rule="nonzero"/></g></g></g><g transform="matrix(1, 0, 0, 1, 407, -0.000000000000057351)"><g clip-path="url(#cdc1683ec1)"><g fill="#f5f1e9" fill-opacity="1"><g transform="translate(53.413845, 444.258713)"><g><path d="M 125.015625 14.890625 L 115.34375 59.53125 L -48.375 59.53125 L -38.703125 14.890625 Z M 125.015625 14.890625 "/></g></g></g></g></g></svg>