<svg xmlns="http://www.w3.org/2000/svg" xmlns:xlink="http://www.w3.org/1999/xlink" width="1024" zoomAndPan="magnify" viewBox="0 0 768 767.999994" height="1024" preserveAspectRatio="xMidYMid meet" version="1.0"><defs><g/><clipPath id="104eb46056"><path d="M 2.46875 18.433594 L 765.53125 18.433594 L 765.53125 757 L 2.46875 757 Z M 2.46875 18.433594 " clip-rule="nonzero"/></clipPath><clipPath id="7923445d30"><path d="M 708.53125 18.433594 L 59.46875 18.433594 C 44.351562 18.433594 29.851562 24.4375 19.160156 35.128906 C 8.472656 45.820312 2.46875 60.316406 2.46875 75.433594 L 2.46875 548.039062 C 2.46875 563.160156 8.472656 577.65625 19.160156 588.347656 C 29.851562 599.035156 44.351562 605.039062 59.46875 605.039062 L 93.3125 605.039062 C 108.429688 605.039062 122.925781 611.046875 133.617188 621.734375 C 144.304688 632.425781 150.3125 646.921875 150.3125 662.039062 L 150.3125 724.5 C 150.3125 736.046875 156.554688 746.691406 166.628906 752.328125 C 176.707031 757.964844 189.042969 757.714844 198.882812 751.671875 L 389.082031 634.871094 C 420.839844 615.367188 457.382812 605.039062 494.652344 605.039062 L 708.53125 605.039062 C 723.648438 605.039062 738.148438 599.035156 748.839844 588.347656 C 759.527344 577.65625 765.53125 563.160156 765.53125 548.039062 L 765.53125 75.433594 C 765.53125 60.316406 759.527344 45.820312 748.839844 35.128906 C 738.148438 24.4375 723.648438 18.433594 708.53125 18.433594 Z M 708.53125 18.433594 " clip-rule="nonzero"/></clipPath><clipPath id="2c6aaa4a03"><path d="M 0.46875 0.433594 L 763.53125 0.433594 L 763.53125 739 L 0.46875 739 Z M 0.46875 0.433594 " clip-rule="nonzero"/></clipPath><clipPath id="e915a7cf65"><path d="M 706.53125 0.433594 L 57.46875 0.433594 C 42.351562 0.433594 27.851562 6.4375 17.160156 17.128906 C 6.472656 27.820312 0.46875 42.316406 0.46875 57.433594 L 0.46875 530.039062 C 0.46875 545.160156 6.472656 559.65625 17.160156 570.347656 C 27.851562 581.035156 42.351562 587.039062 57.46875 587.039062 L 91.3125 587.039062 C 106.429688 587.039062 120.925781 593.046875 131.617188 603.734375 C 142.304688 614.425781 148.3125 628.921875 148.3125 644.039062 L 148.3125 706.5 C 148.3125 718.046875 154.554688 728.691406 164.628906 734.328125 C 174.707031 739.964844 187.042969 739.714844 196.882812 733.671875 L 387.082031 616.871094 C 418.839844 597.367188 455.382812 587.039062 492.652344 587.039062 L 706.53125 587.039062 C 721.648438 587.039062 736.148438 581.035156 746.839844 570.347656 C 757.527344 559.65625 763.53125 545.160156 763.53125 530.039062 L 763.53125 57.433594 C 763.53125 42.316406 757.527344 27.820312 746.839844 17.128906 C 736.148438 6.4375 721.648438 0.433594 706.53125 0.433594 Z M 706.53125 0.433594 " clip-rule="nonzero"/></clipPath><clipPath id="fd2a963a30"><rect x="0" width="764" y="0" height="739"/></clipPath><clipPath id="1b552e0e8a"><path d="M 192 263 L 247 263 L 247 318 L 192 318 Z M 192 263 " clip-rule="nonzero"/></clipPath><clipPath id="0e39069280"><path d="M 71.152344 126.125 L 384.21875 142.578125 L 367.769531 455.644531 L 54.703125 439.195312 Z M 71.152344 126.125 " clip-rule="nonzero"/></clipPath><clipPath id="e7e95bcbe7"><path d="M 71.152344 126.125 L 384.21875 142.578125 L 367.769531 455.644531 L 54.703125 439.195312 Z M 71.152344 126.125 " clip-rule="nonzero"/></clipPath><clipPath id="99c760aea8"><path d="M 62 133 L 377 133 L 377 449 L 62 449 Z M 62 133 " clip-rule="nonzero"/></clipPath><clipPath id="9bafa2ea02"><path d="M 71.152344 126.125 L 384.21875 142.578125 L 367.769531 455.644531 L 54.703125 439.195312 Z M 71.152344 126.125 " clip-rule="nonzero"/></clipPath><clipPath id="4abc9f2540"><path d="M 71.152344 126.125 L 384.21875 142.578125 L 367.769531 455.644531 L 54.703125 439.195312 Z M 71.152344 126.125 " clip-rule="nonzero"/></clipPath><clipPath id="acc9c18d53"><rect x="0" width="287" y="0" height="515"/></clipPath></defs><g clip-path="url(#104eb46056)"><g clip-path="url(#7923445d30)"><g transform="matrix(1, 0, 0, 1, 2, 18)"><g clip-path="url(#fd2a963a30)"><g clip-path="url(#2c6aaa4a03)"><g clip-path="url(#e915a7cf65)"><path fill="#005437" d="M 0.46875 0.433594 L 763.53125 0.433594 L 763.53125 763.5 L 0.46875 763.5 Z M 0.46875 0.433594 " fill-opacity="1" fill-rule="nonzero"/></g></g></g></g></g></g><g clip-path="url(#1b552e0e8a)"><g clip-path="url(#0e39069280)"><g clip-path="url(#e7e95bcbe7)"><path fill="#f5f1e9" d="M 246.613281 292.203125 C 246.566406 293.082031 246.476562 293.960938 246.34375 294.835938 C 246.210938 295.707031 246.035156 296.574219 245.820312 297.429688 C 245.601562 298.285156 245.34375 299.128906 245.042969 299.960938 C 244.742188 300.789062 244.402344 301.605469 244.019531 302.402344 C 243.640625 303.199219 243.222656 303.976562 242.765625 304.730469 C 242.308594 305.488281 241.816406 306.21875 241.289062 306.925781 C 240.757812 307.636719 240.195312 308.316406 239.601562 308.96875 C 239.003906 309.621094 238.378906 310.242188 237.722656 310.832031 C 237.066406 311.421875 236.382812 311.980469 235.671875 312.503906 C 234.960938 313.027344 234.226562 313.515625 233.464844 313.96875 C 232.707031 314.417969 231.925781 314.832031 231.128906 315.207031 C 230.328125 315.582031 229.511719 315.917969 228.679688 316.210938 C 227.84375 316.507812 227 316.761719 226.144531 316.972656 C 225.285156 317.183594 224.417969 317.351562 223.546875 317.480469 C 222.671875 317.605469 221.792969 317.691406 220.910156 317.730469 C 220.027344 317.769531 219.144531 317.765625 218.261719 317.722656 C 217.382812 317.675781 216.503906 317.585938 215.628906 317.453125 C 214.757812 317.320312 213.890625 317.144531 213.035156 316.925781 C 212.179688 316.710938 211.335938 316.449219 210.503906 316.148438 C 209.675781 315.851562 208.859375 315.507812 208.0625 315.128906 C 207.265625 314.75 206.488281 314.328125 205.734375 313.875 C 204.976562 313.417969 204.246094 312.921875 203.539062 312.394531 C 202.828125 311.867188 202.148438 311.304688 201.496094 310.710938 C 200.84375 310.113281 200.222656 309.488281 199.632812 308.832031 C 199.042969 308.175781 198.484375 307.492188 197.960938 306.78125 C 197.4375 306.066406 196.949219 305.332031 196.496094 304.574219 C 196.046875 303.8125 195.632812 303.035156 195.257812 302.234375 C 194.882812 301.433594 194.546875 300.617188 194.253906 299.785156 C 193.957031 298.953125 193.703125 298.109375 193.492188 297.25 C 193.28125 296.394531 193.113281 295.527344 192.984375 294.652344 C 192.859375 293.777344 192.773438 292.898438 192.734375 292.019531 C 192.695312 291.136719 192.699219 290.253906 192.742188 289.371094 C 192.789062 288.488281 192.878906 287.609375 193.011719 286.738281 C 193.144531 285.863281 193.320312 285 193.539062 284.144531 C 193.753906 283.289062 194.015625 282.445312 194.316406 281.613281 C 194.613281 280.78125 194.957031 279.96875 195.335938 279.171875 C 195.714844 278.375 196.136719 277.597656 196.589844 276.839844 C 197.046875 276.085938 197.542969 275.351562 198.070312 274.644531 C 198.597656 273.9375 199.160156 273.257812 199.753906 272.605469 C 200.351562 271.953125 200.976562 271.332031 201.632812 270.738281 C 202.289062 270.148438 202.972656 269.589844 203.6875 269.066406 C 204.398438 268.542969 205.132812 268.054688 205.890625 267.605469 C 206.652344 267.152344 207.429688 266.738281 208.230469 266.363281 C 209.03125 265.988281 209.847656 265.65625 210.679688 265.359375 C 211.511719 265.066406 212.355469 264.8125 213.214844 264.601562 C 214.070312 264.390625 214.9375 264.21875 215.8125 264.09375 C 216.6875 263.964844 217.566406 263.882812 218.445312 263.84375 C 219.328125 263.800781 220.210938 263.804688 221.09375 263.851562 C 221.976562 263.898438 222.855469 263.988281 223.726562 264.121094 C 224.601562 264.253906 225.464844 264.429688 226.320312 264.644531 C 227.175781 264.863281 228.019531 265.121094 228.851562 265.421875 C 229.683594 265.722656 230.496094 266.0625 231.292969 266.445312 C 232.089844 266.824219 232.867188 267.242188 233.625 267.699219 C 234.378906 268.15625 235.113281 268.648438 235.820312 269.175781 C 236.527344 269.707031 237.207031 270.269531 237.859375 270.863281 C 238.511719 271.460938 239.132812 272.085938 239.726562 272.742188 C 240.316406 273.398438 240.875 274.082031 241.398438 274.792969 C 241.921875 275.503906 242.410156 276.238281 242.859375 277 C 243.3125 277.757812 243.726562 278.539062 244.101562 279.335938 C 244.476562 280.136719 244.808594 280.953125 245.105469 281.785156 C 245.398438 282.621094 245.652344 283.464844 245.863281 284.320312 C 246.074219 285.179688 246.246094 286.046875 246.371094 286.917969 C 246.5 287.792969 246.582031 288.671875 246.621094 289.554688 C 246.664062 290.4375 246.660156 291.320312 246.613281 292.203125 Z M 246.613281 292.203125 " fill-opacity="1" fill-rule="nonzero"/></g></g></g><g clip-path="url(#99c760aea8)"><g clip-path="url(#9bafa2ea02)"><g clip-path="url(#4abc9f2540)"><path fill="#f5f1e9" d="M 370.988281 271.96875 L 333.707031 262.929688 C 331.820312 255.195312 329.203125 247.734375 325.855469 240.667969 L 349.3125 209.96875 C 351.484375 207.125 351.304688 202.667969 348.90625 200.015625 L 323.460938 171.742188 C 321.066406 169.082031 316.660156 168.441406 313.609375 170.296875 L 280.609375 190.417969 C 273.738281 186.234375 266.371094 182.78125 258.644531 180.058594 L 253.59375 142.242188 C 253.109375 138.695312 249.839844 135.671875 246.265625 135.484375 L 208.277344 133.488281 C 204.703125 133.300781 201.136719 135.964844 200.285156 139.441406 L 191.207031 176.886719 C 183.554688 178.792969 176.179688 181.410156 169.183594 184.75 L 138.863281 161.582031 C 136.019531 159.410156 131.566406 159.589844 128.910156 161.984375 L 100.636719 187.4375 C 97.976562 189.832031 97.335938 194.238281 99.191406 197.289062 L 119.183594 230.074219 C 115.179688 236.683594 111.847656 243.742188 109.1875 251.140625 L 71.175781 256.214844 C 67.636719 256.695312 64.613281 259.964844 64.425781 263.539062 L 62.429688 301.527344 C 62.238281 305.101562 64.90625 308.671875 68.371094 309.519531 L 105.621094 318.550781 C 107.511719 326.347656 110.148438 333.875 113.523438 340.996094 L 90.46875 371.167969 C 88.296875 374.007812 88.480469 378.464844 90.875 381.117188 L 116.320312 409.394531 C 118.714844 412.054688 123.121094 412.695312 126.171875 410.839844 L 158.582031 391.066406 C 165.121094 395.058594 172.109375 398.394531 179.441406 401.074219 L 184.542969 439.273438 C 185.023438 442.8125 188.292969 445.835938 191.867188 446.023438 L 229.855469 448.019531 C 233.429688 448.207031 237 445.542969 237.847656 442.074219 L 246.835938 404.980469 C 254.722656 403.101562 262.332031 400.472656 269.535156 397.09375 L 300.082031 420.4375 C 302.921875 422.609375 307.378906 422.425781 310.035156 420.03125 L 338.300781 394.59375 C 340.960938 392.199219 341.601562 387.792969 339.746094 384.738281 L 319.84375 352.101562 C 324.019531 345.296875 327.476562 338.003906 330.210938 330.351562 L 368.195312 325.273438 C 371.730469 324.792969 374.757812 321.523438 374.945312 317.949219 L 376.941406 279.960938 C 377.128906 276.386719 374.457031 272.816406 370.988281 271.96875 Z M 216.253906 355.972656 C 180.261719 354.082031 152.613281 323.363281 154.503906 287.355469 C 156.394531 251.371094 187.113281 223.714844 223.105469 225.605469 C 259.105469 227.496094 286.761719 258.222656 284.871094 294.207031 C 282.980469 330.214844 252.25 357.863281 216.253906 355.972656 Z M 216.253906 355.972656 " fill-opacity="1" fill-rule="nonzero"/></g></g></g><g transform="matrix(1, 0, 0, 1, 418, -0.000000000000057351)"><g clip-path="url(#acc9c18d53)"><g fill="#f5f1e9" fill-opacity="1"><g transform="translate(69.556622, 373.827842)"><g><path d="M 164.265625 19.5625 L 151.546875 78.21875 L -63.546875 78.21875 L -50.84375 19.5625 Z M 164.265625 19.5625 "/></g></g></g></g></g></svg>