<svg xmlns="http://www.w3.org/2000/svg" xmlns:xlink="http://www.w3.org/1999/xlink" width="500" zoomAndPan="magnify" viewBox="0 0 375 374.999991" height="500" preserveAspectRatio="xMidYMid meet" version="1.2"><defs><filter x="0%" y="0%" width="100%" filterUnits="objectBoundingBox" id="54ad8da814" height="100%"><feColorMatrix values="0 0 0 0 1 0 0 0 0 1 0 0 0 0 1 0 0 0 1 0" type="matrix" in="SourceGraphic"/></filter><clipPath id="6321dd6e7f"><path d="M 0.78125 0.78125 L 282.03125 0.78125 L 282.03125 282.03125 L 0.78125 282.03125 Z M 0.78125 0.78125 "/></clipPath><clipPath id="ab5e2f1005"><rect x="0" width="283" y="0" height="283"/></clipPath><clipPath id="9507b82e24"><path d="M 73.335938 226 L 89 226 L 89 242 L 73.335938 242 Z M 73.335938 226 "/></clipPath><clipPath id="9be714769d"><path d="M 269 216 L 285.585938 216 L 285.585938 231 L 269 231 Z M 269 216 "/></clipPath></defs><g id="bdf750e55e"><g mask="url(#6de7dce586)" transform="matrix(1,0,0,1,46,46)"><g clip-path="url(#ab5e2f1005)"><g clip-rule="nonzero" clip-path="url(#6321dd6e7f)"><path style=" stroke:none;fill-rule:nonzero;fill:#547f55;fill-opacity:1;" d="M 141.40625 202.695312 C 107.554688 202.695312 80.117188 175.253906 80.117188 141.40625 C 80.117188 107.554688 107.554688 80.117188 141.40625 80.117188 C 175.257812 80.117188 202.695312 107.554688 202.695312 141.40625 C 202.695312 175.253906 175.257812 202.695312 141.40625 202.695312 Z M 282.039062 111.171875 C 278.335938 93.871094 271.523438 77.726562 262.214844 63.347656 L 232.667969 72.40625 L 210.40625 50.144531 L 219.464844 20.597656 C 205.085938 11.289062 188.941406 4.472656 171.640625 0.773438 L 157.144531 28.082031 L 125.664062 28.082031 L 111.171875 0.773438 C 93.871094 4.472656 77.726562 11.289062 63.347656 20.597656 L 72.40625 50.144531 L 50.144531 72.40625 L 20.597656 63.347656 C 11.289062 77.726562 4.472656 93.871094 0.773438 111.171875 L 28.082031 125.664062 L 28.082031 157.144531 L 0.773438 171.640625 C 4.472656 188.941406 11.289062 205.085938 20.597656 219.464844 L 50.144531 210.40625 L 72.40625 232.667969 L 63.347656 262.214844 C 77.726562 271.523438 93.871094 278.335938 111.171875 282.039062 L 125.664062 254.730469 L 157.144531 254.730469 L 171.640625 282.039062 C 188.941406 278.335938 205.085938 271.523438 219.464844 262.214844 L 210.40625 232.667969 L 232.667969 210.40625 L 262.214844 219.464844 C 271.523438 205.085938 278.335938 188.941406 282.039062 171.640625 L 254.730469 157.144531 L 254.730469 125.664062 L 282.039062 111.171875 "/></g></g><mask id="6de7dce586"><g filter="url(#54ad8da814)"><rect x="0" width="375" y="0" height="374.999991" style="fill:#000000;fill-opacity:0.15;stroke:none;"/></g></mask></g><path style=" stroke:none;fill-rule:nonzero;fill:#f5f1e9;fill-opacity:1;" d="M 93.339844 233.730469 C 91.5625 231.949219 88.84375 231.78125 87.273438 233.355469 L 80.914062 239.722656 C 79.339844 241.292969 79.511719 244.011719 81.289062 245.789062 C 83.066406 247.570312 85.785156 247.738281 87.355469 246.164062 L 90.535156 242.988281 L 93.714844 239.804688 C 95.289062 238.226562 95.121094 235.496094 93.339844 233.730469 Z M 93.339844 233.730469 "/><g clip-rule="nonzero" clip-path="url(#9507b82e24)"><path style=" stroke:none;fill-rule:nonzero;fill:#f5f1e9;fill-opacity:1;" d="M 87.324219 227.695312 C 85.542969 225.917969 82.828125 225.746094 81.253906 227.320312 L 74.917969 233.679688 C 73.34375 235.25 73.515625 237.96875 75.292969 239.746094 C 77.074219 241.527344 79.789062 241.695312 81.359375 240.125 L 84.539062 236.945312 L 87.71875 233.761719 C 89.253906 232.191406 89.085938 229.476562 87.324219 227.695312 Z M 87.324219 227.695312 "/></g><path style=" stroke:none;fill-rule:nonzero;fill:#f5f1e9;fill-opacity:1;" d="M 178.324219 282.753906 C 177.996094 282.753906 177.675781 282.695312 177.367188 282.582031 C 177.015625 282.457031 176.703125 282.269531 176.425781 282.015625 C 176.148438 281.765625 175.933594 281.472656 175.773438 281.136719 C 175.613281 280.796875 175.527344 280.441406 175.511719 280.070312 C 175.492188 279.699219 175.546875 279.335938 175.675781 278.984375 C 180.289062 266.339844 170.785156 256.730469 170.382812 256.324219 C 170.128906 256.058594 169.9375 255.757812 169.804688 255.421875 C 169.667969 255.082031 169.601562 254.730469 169.605469 254.367188 C 169.609375 254.003906 169.679688 253.652344 169.816406 253.316406 C 169.957031 252.980469 170.152344 252.679688 170.410156 252.421875 C 170.664062 252.160156 170.960938 251.957031 171.292969 251.8125 C 171.628906 251.667969 171.976562 251.589844 172.339844 251.582031 C 172.703125 251.574219 173.058594 251.632812 173.398438 251.761719 C 173.738281 251.886719 174.042969 252.074219 174.3125 252.320312 C 174.828125 252.824219 186.820312 264.8125 180.945312 280.90625 C 180.742188 281.460938 180.402344 281.902344 179.925781 282.242188 C 179.445312 282.578125 178.910156 282.75 178.324219 282.753906 Z M 178.324219 282.753906 "/><path style=" stroke:none;fill-rule:nonzero;fill:#004930;fill-opacity:1;" d="M 181.078125 320.410156 L 158.355469 310.710938 C 157.621094 310.394531 156.921875 310.011719 156.261719 309.5625 C 155.601562 309.109375 154.992188 308.597656 154.433594 308.027344 C 153.871094 307.453125 153.375 306.832031 152.9375 306.164062 C 152.5 305.492188 152.132812 304.789062 151.832031 304.046875 C 151.535156 303.304688 151.3125 302.539062 151.164062 301.753906 C 151.019531 300.964844 150.949219 300.171875 150.957031 299.375 C 150.964844 298.574219 151.050781 297.78125 151.214844 297 C 151.382812 296.214844 151.621094 295.457031 151.933594 294.722656 L 157.496094 281.695312 C 157.808594 280.960938 158.191406 280.261719 158.644531 279.601562 C 159.097656 278.941406 159.609375 278.332031 160.179688 277.773438 C 160.75 277.210938 161.371094 276.714844 162.042969 276.277344 C 162.710938 275.839844 163.417969 275.472656 164.160156 275.175781 C 164.902344 274.875 165.667969 274.652344 166.453125 274.503906 C 167.238281 274.359375 168.03125 274.289062 168.832031 274.296875 C 169.632812 274.304688 170.421875 274.390625 171.207031 274.558594 C 171.988281 274.722656 172.75 274.960938 173.484375 275.273438 L 175.785156 276.257812 C 176.453125 276.542969 177.105469 276.859375 177.742188 277.210938 C 178.382812 277.558594 179 277.941406 179.601562 278.351562 C 180.203125 278.761719 180.78125 279.199219 181.335938 279.667969 C 181.894531 280.136719 182.425781 280.628906 182.9375 281.148438 C 183.445312 281.667969 183.925781 282.210938 184.382812 282.777344 C 184.835938 283.347656 185.261719 283.933594 185.660156 284.542969 C 186.058594 285.152344 186.425781 285.777344 186.761719 286.425781 C 187.097656 287.070312 187.398438 287.730469 187.671875 288.402344 C 187.941406 289.078125 188.179688 289.765625 188.382812 290.464844 C 188.585938 291.160156 188.753906 291.867188 188.890625 292.582031 C 189.023438 293.296875 189.121094 294.015625 189.1875 294.742188 C 189.25 295.464844 189.277344 296.191406 189.269531 296.917969 C 189.261719 297.648438 189.21875 298.371094 189.140625 299.09375 C 189.058594 299.816406 188.945312 300.535156 188.796875 301.246094 C 188.644531 301.957031 188.460938 302.660156 188.242188 303.355469 C 188.023438 304.046875 187.773438 304.730469 187.488281 305.398438 Z M 181.078125 320.410156 "/><path style=" stroke:none;fill-rule:nonzero;fill:#f5f1e9;fill-opacity:1;" d="M 181.207031 320.46875 L 159.972656 311.402344 C 160.191406 310.890625 160.457031 310.40625 160.769531 309.949219 C 161.085938 309.492188 161.4375 309.066406 161.835938 308.679688 C 162.230469 308.292969 162.664062 307.945312 163.128906 307.644531 C 163.59375 307.339844 164.082031 307.085938 164.597656 306.878906 C 165.113281 306.671875 165.640625 306.515625 166.1875 306.414062 C 166.734375 306.3125 167.28125 306.261719 167.839844 306.269531 C 168.394531 306.277344 168.941406 306.335938 169.484375 306.449219 C 170.027344 306.5625 170.554688 306.730469 171.066406 306.949219 L 184.527344 312.695312 C 184.78125 312.804688 185.023438 312.9375 185.253906 313.09375 C 185.480469 313.25 185.695312 313.429688 185.886719 313.625 C 186.082031 313.824219 186.253906 314.039062 186.40625 314.273438 C 186.558594 314.503906 186.683594 314.75 186.789062 315.007812 C 186.890625 315.265625 186.96875 315.53125 187.019531 315.800781 C 187.070312 316.074219 187.097656 316.351562 187.09375 316.628906 C 187.089844 316.90625 187.058594 317.179688 187.003906 317.449219 C 186.945312 317.722656 186.863281 317.984375 186.753906 318.242188 C 186.644531 318.496094 186.511719 318.738281 186.355469 318.96875 C 186.199219 319.195312 186.019531 319.40625 185.824219 319.601562 C 185.625 319.796875 185.410156 319.96875 185.175781 320.121094 C 184.945312 320.273438 184.699219 320.398438 184.441406 320.503906 C 184.183594 320.605469 183.917969 320.683594 183.648438 320.734375 C 183.375 320.785156 183.097656 320.808594 182.820312 320.808594 C 182.542969 320.804688 182.269531 320.773438 182 320.714844 C 181.726562 320.660156 181.464844 320.578125 181.207031 320.46875 Z M 181.207031 320.46875 "/><path style=" stroke:none;fill-rule:nonzero;fill:#f5f1e9;fill-opacity:1;" d="M 108.476562 223.523438 C 107.917969 223.40625 107.441406 223.144531 107.046875 222.734375 C 106.648438 222.324219 106.398438 221.839844 106.296875 221.277344 C 106.199219 220.71875 106.261719 220.175781 106.492188 219.652344 C 106.71875 219.132812 107.074219 218.71875 107.554688 218.414062 C 112.042969 215.566406 116.820312 213.765625 121.367188 213.183594 C 124.90625 212.738281 127.128906 213.183594 127.371094 213.222656 C 127.734375 213.300781 128.070312 213.441406 128.375 213.652344 C 128.683594 213.859375 128.9375 214.121094 129.140625 214.429688 C 129.347656 214.742188 129.484375 215.082031 129.550781 215.445312 C 129.621094 215.8125 129.617188 216.175781 129.542969 216.539062 C 129.46875 216.902344 129.324219 217.238281 129.117188 217.546875 C 128.90625 217.855469 128.648438 218.109375 128.335938 218.3125 C 128.023438 218.519531 127.6875 218.65625 127.320312 218.722656 C 126.957031 218.792969 126.59375 218.792969 126.226562 218.714844 C 125.902344 218.65625 119.429688 217.535156 110.554688 223.152344 C 109.914062 223.558594 109.21875 223.683594 108.476562 223.523438 Z M 108.476562 223.523438 "/><path style=" stroke:none;fill-rule:nonzero;fill:#004930;fill-opacity:1;" d="M 142.394531 204.085938 C 143.160156 204.589844 143.867188 205.167969 144.519531 205.8125 C 145.171875 206.457031 145.753906 207.160156 146.265625 207.921875 C 146.777344 208.683594 147.210938 209.484375 147.566406 210.332031 C 147.921875 211.175781 148.191406 212.046875 148.371094 212.945312 C 148.554688 213.84375 148.648438 214.753906 148.652344 215.671875 C 148.65625 216.585938 148.570312 217.496094 148.398438 218.394531 C 148.222656 219.296875 147.960938 220.171875 147.613281 221.019531 C 147.265625 221.867188 146.839844 222.675781 146.332031 223.4375 C 145.828125 224.203125 145.25 224.910156 144.605469 225.5625 C 143.960938 226.214844 143.257812 226.796875 142.496094 227.308594 C 141.738281 227.820312 140.933594 228.253906 140.089844 228.609375 C 139.242188 228.964844 138.371094 229.234375 137.472656 229.414062 C 136.574219 229.597656 135.664062 229.691406 134.75 229.695312 C 133.832031 229.699219 132.921875 229.613281 132.023438 229.441406 C 131.121094 229.265625 130.25 229.003906 129.398438 228.65625 C 128.550781 228.308594 127.746094 227.882812 126.980469 227.375 C 126.214844 226.871094 125.507812 226.292969 124.855469 225.648438 C 124.203125 225.003906 123.621094 224.300781 123.109375 223.539062 C 122.597656 222.78125 122.164062 221.976562 121.808594 221.132812 C 121.453125 220.285156 121.183594 219.414062 121.003906 218.515625 C 120.820312 217.617188 120.726562 216.707031 120.722656 215.792969 C 120.71875 214.875 120.804688 213.964844 120.980469 213.066406 C 121.152344 212.164062 121.414062 211.292969 121.761719 210.441406 C 122.109375 209.59375 122.535156 208.789062 123.042969 208.023438 C 123.546875 207.257812 124.125 206.550781 124.769531 205.898438 C 125.414062 205.246094 126.117188 204.664062 126.878906 204.152344 C 127.636719 203.640625 128.441406 203.207031 129.289062 202.851562 C 130.132812 202.496094 131.003906 202.230469 131.902344 202.046875 C 132.800781 201.863281 133.710938 201.769531 134.625 201.765625 C 135.542969 201.761719 136.453125 201.847656 137.351562 202.023438 C 138.253906 202.195312 139.128906 202.457031 139.976562 202.804688 C 140.824219 203.152344 141.632812 203.578125 142.394531 204.085938 Z M 142.394531 204.085938 "/><path style=" stroke:none;fill-rule:nonzero;fill:#004930;fill-opacity:1;" d="M 102.316406 205.914062 C 102.917969 206.042969 103.515625 206.203125 104.105469 206.394531 C 104.691406 206.582031 105.269531 206.796875 105.835938 207.042969 C 106.402344 207.289062 106.957031 207.5625 107.496094 207.863281 C 108.035156 208.160156 108.558594 208.488281 109.066406 208.839844 C 109.574219 209.191406 110.066406 209.566406 110.535156 209.964844 C 111.007812 210.363281 111.457031 210.785156 111.886719 211.230469 C 112.316406 211.671875 112.722656 212.136719 113.109375 212.621094 C 113.492188 213.105469 113.851562 213.605469 114.1875 214.125 C 114.523438 214.644531 114.832031 215.179688 115.113281 215.726562 C 115.394531 216.277344 115.648438 216.839844 115.878906 217.414062 C 116.105469 217.988281 116.300781 218.570312 116.472656 219.164062 C 116.640625 219.757812 116.78125 220.359375 116.894531 220.96875 C 117.003906 221.574219 117.085938 222.1875 117.136719 222.800781 C 117.1875 223.417969 117.207031 224.035156 117.195312 224.652344 C 117.1875 225.269531 117.148438 225.886719 117.074219 226.5 C 117.003906 227.113281 116.90625 227.722656 116.773438 228.324219 C 116.644531 228.929688 116.484375 229.523438 116.296875 230.113281 C 116.109375 230.699219 115.890625 231.277344 115.644531 231.84375 C 115.398438 232.410156 115.128906 232.964844 114.828125 233.503906 C 114.527344 234.042969 114.203125 234.570312 113.851562 235.078125 C 113.5 235.585938 113.125 236.074219 112.722656 236.546875 C 112.324219 237.015625 111.902344 237.46875 111.460938 237.898438 C 111.015625 238.328125 110.550781 238.734375 110.070312 239.117188 C 109.585938 239.5 109.082031 239.859375 108.566406 240.195312 C 108.046875 240.53125 107.511719 240.839844 106.960938 241.121094 C 106.414062 241.402344 105.851562 241.660156 105.277344 241.886719 C 104.703125 242.113281 104.117188 242.3125 103.523438 242.480469 C 102.929688 242.652344 102.328125 242.792969 101.722656 242.902344 C 101.113281 243.011719 100.503906 243.09375 99.886719 243.144531 C 99.273438 243.195312 98.65625 243.214844 98.039062 243.207031 C 97.421875 243.195312 96.804688 243.15625 96.191406 243.085938 C 95.578125 243.015625 94.96875 242.914062 94.363281 242.785156 C 93.761719 242.652344 93.164062 242.496094 92.578125 242.304688 C 91.988281 242.117188 91.410156 241.898438 90.84375 241.652344 C 90.277344 241.410156 89.722656 241.136719 89.183594 240.835938 C 88.644531 240.535156 88.121094 240.210938 87.613281 239.859375 C 87.105469 239.507812 86.613281 239.132812 86.144531 238.734375 C 85.671875 238.332031 85.222656 237.910156 84.792969 237.46875 C 84.363281 237.023438 83.957031 236.5625 83.570312 236.078125 C 83.1875 235.59375 82.828125 235.09375 82.492188 234.574219 C 82.160156 234.054688 81.851562 233.519531 81.566406 232.972656 C 81.285156 232.421875 81.03125 231.859375 80.804688 231.285156 C 80.578125 230.710938 80.378906 230.125 80.207031 229.53125 C 80.039062 228.9375 79.898438 228.339844 79.789062 227.730469 C 79.675781 227.125 79.597656 226.511719 79.546875 225.894531 C 79.496094 225.28125 79.472656 224.664062 79.484375 224.046875 C 79.492188 223.429688 79.535156 222.8125 79.605469 222.199219 C 79.675781 221.585938 79.773438 220.976562 79.90625 220.375 C 80.035156 219.769531 80.195312 219.171875 80.382812 218.585938 C 80.574219 217.996094 80.789062 217.421875 81.035156 216.851562 C 81.28125 216.285156 81.554688 215.734375 81.851562 215.191406 C 82.152344 214.652344 82.480469 214.128906 82.832031 213.621094 C 83.179688 213.113281 83.558594 212.625 83.957031 212.152344 C 84.355469 211.683594 84.777344 211.230469 85.222656 210.800781 C 85.664062 210.371094 86.128906 209.964844 86.613281 209.582031 C 87.097656 209.195312 87.597656 208.835938 88.117188 208.503906 C 88.636719 208.167969 89.167969 207.859375 89.71875 207.578125 C 90.269531 207.292969 90.828125 207.039062 91.402344 206.8125 C 91.976562 206.585938 92.5625 206.386719 93.15625 206.21875 C 93.75 206.046875 94.351562 205.90625 94.957031 205.796875 C 95.566406 205.683594 96.179688 205.605469 96.792969 205.554688 C 97.410156 205.503906 98.027344 205.484375 98.644531 205.492188 C 99.261719 205.503906 99.875 205.542969 100.488281 205.613281 C 101.101562 205.683594 101.710938 205.785156 102.316406 205.914062 Z M 102.316406 205.914062 "/><path style=" stroke:none;fill-rule:nonzero;fill:#f5f1e9;fill-opacity:1;" d="M 131.738281 280.199219 C 131.050781 280.199219 130.445312 279.976562 129.925781 279.527344 C 129.640625 279.285156 129.414062 279 129.246094 278.667969 C 129.078125 278.339844 128.976562 277.988281 128.945312 277.617188 C 128.917969 277.246094 128.957031 276.886719 129.070312 276.53125 C 129.1875 276.175781 129.363281 275.859375 129.605469 275.574219 C 140.492188 262.777344 144.660156 251.4375 144.703125 251.324219 C 144.828125 250.976562 145.015625 250.664062 145.265625 250.386719 C 145.515625 250.113281 145.808594 249.894531 146.144531 249.738281 C 146.480469 249.578125 146.835938 249.492188 147.207031 249.472656 C 147.578125 249.453125 147.9375 249.507812 148.289062 249.632812 C 148.636719 249.757812 148.949219 249.949219 149.226562 250.195312 C 149.5 250.445312 149.71875 250.738281 149.875 251.074219 C 150.035156 251.410156 150.121094 251.765625 150.140625 252.136719 C 150.160156 252.507812 150.105469 252.867188 149.980469 253.21875 C 149.800781 253.714844 145.476562 265.582031 133.875 279.210938 C 133.316406 279.871094 132.605469 280.199219 131.738281 280.199219 Z M 131.738281 280.199219 "/><path style=" stroke:none;fill-rule:nonzero;fill:#004930;fill-opacity:1;" d="M 124.003906 317.191406 L 104.53125 301.988281 C 103.898438 301.496094 103.324219 300.949219 102.800781 300.34375 C 102.277344 299.734375 101.820312 299.085938 101.425781 298.390625 C 101.03125 297.691406 100.710938 296.964844 100.460938 296.207031 C 100.207031 295.445312 100.035156 294.667969 99.9375 293.875 C 99.839844 293.082031 99.820312 292.285156 99.878906 291.488281 C 99.9375 290.691406 100.074219 289.90625 100.285156 289.136719 C 100.5 288.363281 100.785156 287.621094 101.148438 286.90625 C 101.507812 286.191406 101.933594 285.519531 102.425781 284.890625 L 111.140625 273.726562 C 111.632812 273.09375 112.183594 272.519531 112.789062 271.996094 C 113.394531 271.472656 114.046875 271.015625 114.742188 270.621094 C 115.4375 270.226562 116.164062 269.90625 116.925781 269.652344 C 117.683594 269.402344 118.460938 269.230469 119.253906 269.132812 C 120.046875 269.035156 120.84375 269.015625 121.640625 269.074219 C 122.441406 269.132812 123.222656 269.269531 123.996094 269.480469 C 124.765625 269.695312 125.507812 269.980469 126.222656 270.339844 C 126.9375 270.703125 127.609375 271.128906 128.242188 271.621094 L 130.210938 273.160156 C 130.785156 273.605469 131.335938 274.082031 131.863281 274.582031 C 132.386719 275.085938 132.890625 275.609375 133.363281 276.160156 C 133.839844 276.710938 134.285156 277.285156 134.703125 277.878906 C 135.125 278.472656 135.511719 279.089844 135.871094 279.722656 C 136.226562 280.355469 136.554688 281.003906 136.847656 281.667969 C 137.144531 282.332031 137.40625 283.011719 137.632812 283.699219 C 137.859375 284.390625 138.054688 285.089844 138.214844 285.800781 C 138.375 286.511719 138.496094 287.226562 138.585938 287.949219 C 138.675781 288.667969 138.726562 289.394531 138.746094 290.121094 C 138.765625 290.847656 138.746094 291.574219 138.691406 292.300781 C 138.636719 293.023438 138.550781 293.746094 138.425781 294.460938 C 138.300781 295.179688 138.140625 295.886719 137.945312 296.589844 C 137.753906 297.289062 137.523438 297.980469 137.261719 298.65625 C 137 299.335938 136.707031 300 136.378906 300.648438 C 136.050781 301.300781 135.695312 301.929688 135.304688 302.546875 C 134.917969 303.160156 134.496094 303.753906 134.050781 304.328125 Z M 124.003906 317.191406 "/><path style=" stroke:none;fill-rule:nonzero;fill:#f5f1e9;fill-opacity:1;" d="M 124.109375 317.277344 L 105.914062 303.074219 C 106.253906 302.636719 106.636719 302.234375 107.054688 301.875 C 107.476562 301.511719 107.925781 301.195312 108.410156 300.921875 C 108.894531 300.648438 109.398438 300.421875 109.925781 300.25 C 110.453125 300.074219 110.992188 299.953125 111.542969 299.886719 C 112.09375 299.820312 112.644531 299.804688 113.199219 299.847656 C 113.75 299.886719 114.296875 299.980469 114.828125 300.128906 C 115.363281 300.277344 115.878906 300.476562 116.375 300.726562 C 116.871094 300.976562 117.335938 301.269531 117.773438 301.613281 L 129.308594 310.617188 C 129.527344 310.789062 129.726562 310.980469 129.910156 311.1875 C 130.089844 311.398438 130.25 311.625 130.386719 311.867188 C 130.523438 312.109375 130.632812 312.359375 130.722656 312.625 C 130.808594 312.886719 130.867188 313.15625 130.902344 313.433594 C 130.9375 313.707031 130.941406 313.984375 130.921875 314.261719 C 130.902344 314.535156 130.855469 314.808594 130.78125 315.078125 C 130.707031 315.34375 130.609375 315.601562 130.484375 315.847656 C 130.359375 316.097656 130.210938 316.328125 130.039062 316.546875 C 129.867188 316.765625 129.679688 316.96875 129.46875 317.148438 C 129.257812 317.328125 129.03125 317.488281 128.789062 317.625 C 128.550781 317.761719 128.296875 317.875 128.035156 317.960938 C 127.769531 318.046875 127.5 318.109375 127.226562 318.140625 C 126.949219 318.175781 126.671875 318.183594 126.398438 318.164062 C 126.121094 318.140625 125.847656 318.09375 125.582031 318.019531 C 125.3125 317.945312 125.054688 317.847656 124.808594 317.722656 C 124.558594 317.597656 124.328125 317.449219 124.109375 317.277344 Z M 124.109375 317.277344 "/><g clip-rule="nonzero" clip-path="url(#9be714769d)"><path style=" stroke:none;fill-rule:nonzero;fill:#f5f1e9;fill-opacity:1;" d="M 284.128906 218.203125 C 282.660156 216.164062 280 215.5625 278.214844 216.867188 L 270.921875 222.128906 C 269.117188 223.429688 268.847656 226.136719 270.324219 228.175781 C 271.792969 230.21875 274.449219 230.816406 276.238281 229.515625 L 283.535156 224.257812 C 285.332031 222.953125 285.597656 220.246094 284.128906 218.203125 Z M 284.128906 218.203125 "/></g><path style=" stroke:none;fill-rule:nonzero;fill:#f5f1e9;fill-opacity:1;" d="M 279.132812 211.289062 C 277.664062 209.246094 275.007812 208.648438 273.21875 209.949219 L 265.914062 215.214844 C 264.113281 216.515625 263.84375 219.222656 265.316406 221.265625 C 266.789062 223.304688 269.441406 223.902344 271.234375 222.605469 L 274.878906 219.972656 L 278.527344 217.339844 C 280.339844 216.03125 280.609375 213.324219 279.132812 211.289062 Z M 279.132812 211.289062 "/><path style=" stroke:none;fill-rule:nonzero;fill:#f5f1e9;fill-opacity:1;" d="M 264.953125 203.492188 C 263.484375 201.449219 260.902344 200.796875 259.195312 202.03125 L 252.28125 207.015625 C 250.589844 208.25 250.382812 210.902344 251.859375 212.929688 C 253.328125 214.972656 255.910156 215.628906 257.617188 214.394531 L 261.074219 211.902344 L 264.53125 209.402344 C 266.234375 208.1875 266.429688 205.53125 264.953125 203.492188 Z M 264.953125 203.492188 "/><path style=" stroke:none;fill-rule:nonzero;fill:#f5f1e9;fill-opacity:1;" d="M 247.5625 226.199219 C 246.71875 225.925781 245.925781 226.027344 245.183594 226.503906 C 236.308594 232.195312 229.613281 231.035156 229.546875 231.019531 C 229.175781 230.929688 228.804688 230.917969 228.429688 230.980469 C 228.054688 231.039062 227.703125 231.171875 227.382812 231.378906 C 227.0625 231.582031 226.792969 231.839844 226.574219 232.152344 C 226.359375 232.464844 226.210938 232.808594 226.136719 233.183594 C 226.058594 233.554688 226.058594 233.929688 226.132812 234.300781 C 226.210938 234.675781 226.355469 235.019531 226.570312 235.332031 C 226.785156 235.648438 227.054688 235.90625 227.375 236.113281 C 227.695312 236.316406 228.042969 236.453125 228.417969 236.515625 C 230.417969 236.828125 232.417969 236.828125 234.414062 236.515625 C 238.960938 235.914062 243.710938 234.085938 248.203125 231.21875 C 248.660156 230.925781 249 230.535156 249.230469 230.042969 C 249.460938 229.554688 249.539062 229.039062 249.472656 228.503906 C 249.402344 227.964844 249.195312 227.488281 248.851562 227.070312 C 248.507812 226.652344 248.074219 226.359375 247.5625 226.191406 Z M 247.5625 226.199219 "/><path style=" stroke:none;fill-rule:nonzero;fill:#004930;fill-opacity:1;" d="M 232.027344 226.355469 C 232.503906 227.136719 232.898438 227.953125 233.214844 228.8125 C 233.53125 229.667969 233.757812 230.550781 233.902344 231.453125 C 234.042969 232.355469 234.097656 233.261719 234.058594 234.175781 C 234.023438 235.089844 233.898438 235.988281 233.683594 236.878906 C 233.46875 237.765625 233.171875 238.625 232.789062 239.453125 C 232.40625 240.285156 231.945312 241.066406 231.40625 241.804688 C 230.871094 242.546875 230.265625 243.226562 229.59375 243.84375 C 228.921875 244.464844 228.195312 245.011719 227.417969 245.488281 C 226.636719 245.964844 225.820312 246.363281 224.960938 246.679688 C 224.105469 246.992188 223.222656 247.222656 222.320312 247.363281 C 221.417969 247.507812 220.511719 247.558594 219.597656 247.523438 C 218.683594 247.488281 217.785156 247.363281 216.898438 247.148438 C 216.007812 246.933594 215.148438 246.636719 214.320312 246.25 C 213.492188 245.867188 212.707031 245.40625 211.96875 244.871094 C 211.226562 244.332031 210.550781 243.726562 209.929688 243.058594 C 209.308594 242.386719 208.761719 241.660156 208.285156 240.878906 C 207.808594 240.101562 207.410156 239.28125 207.097656 238.425781 C 206.78125 237.566406 206.550781 236.6875 206.410156 235.785156 C 206.265625 234.882812 206.214844 233.976562 206.25 233.0625 C 206.289062 232.148438 206.414062 231.25 206.625 230.359375 C 206.839844 229.472656 207.140625 228.613281 207.523438 227.78125 C 207.90625 226.953125 208.367188 226.167969 208.902344 225.429688 C 209.441406 224.691406 210.046875 224.011719 210.71875 223.394531 C 211.386719 222.773438 212.113281 222.226562 212.894531 221.746094 C 213.671875 221.269531 214.492188 220.875 215.347656 220.558594 C 216.207031 220.242188 217.085938 220.015625 217.988281 219.871094 C 218.890625 219.730469 219.800781 219.675781 220.710938 219.714844 C 221.625 219.75 222.527344 219.875 223.414062 220.089844 C 224.300781 220.304688 225.160156 220.601562 225.992188 220.984375 C 226.820312 221.367188 227.605469 221.828125 228.34375 222.367188 C 229.082031 222.902344 229.761719 223.507812 230.382812 224.179688 C 231 224.851562 231.550781 225.578125 232.027344 226.355469 Z M 232.027344 226.355469 "/><path style=" stroke:none;fill-rule:nonzero;fill:#004930;fill-opacity:1;" d="M 267.730469 236.382812 C 267.730469 237 267.699219 237.617188 267.640625 238.230469 C 267.578125 238.847656 267.488281 239.457031 267.367188 240.0625 C 267.246094 240.667969 267.097656 241.265625 266.917969 241.859375 C 266.738281 242.449219 266.53125 243.03125 266.292969 243.601562 C 266.058594 244.171875 265.792969 244.730469 265.503906 245.273438 C 265.210938 245.816406 264.894531 246.347656 264.550781 246.859375 C 264.207031 247.375 263.839844 247.871094 263.449219 248.347656 C 263.058594 248.824219 262.644531 249.28125 262.207031 249.71875 C 261.769531 250.15625 261.3125 250.570312 260.835938 250.960938 C 260.355469 251.351562 259.863281 251.71875 259.347656 252.0625 C 258.835938 252.40625 258.304688 252.722656 257.761719 253.015625 C 257.214844 253.304688 256.660156 253.570312 256.085938 253.804688 C 255.515625 254.042969 254.9375 254.25 254.34375 254.429688 C 253.753906 254.609375 253.15625 254.757812 252.550781 254.878906 C 251.945312 255 251.335938 255.089844 250.71875 255.152344 C 250.105469 255.210938 249.488281 255.242188 248.871094 255.242188 C 248.253906 255.242188 247.636719 255.210938 247.023438 255.152344 C 246.40625 255.089844 245.796875 255 245.191406 254.878906 C 244.585938 254.757812 243.988281 254.609375 243.398438 254.429688 C 242.804688 254.25 242.226562 254.042969 241.652344 253.804688 C 241.082031 253.570312 240.527344 253.304688 239.980469 253.015625 C 239.4375 252.722656 238.90625 252.40625 238.394531 252.0625 C 237.878906 251.71875 237.382812 251.351562 236.90625 250.960938 C 236.429688 250.570312 235.972656 250.15625 235.535156 249.71875 C 235.097656 249.28125 234.683594 248.824219 234.292969 248.347656 C 233.902344 247.871094 233.535156 247.375 233.191406 246.859375 C 232.847656 246.347656 232.53125 245.816406 232.238281 245.273438 C 231.949219 244.730469 231.683594 244.171875 231.449219 243.601562 C 231.210938 243.03125 231.003906 242.449219 230.824219 241.859375 C 230.644531 241.265625 230.496094 240.667969 230.375 240.0625 C 230.253906 239.457031 230.164062 238.847656 230.101562 238.230469 C 230.042969 237.617188 230.011719 237 230.011719 236.382812 C 230.011719 235.765625 230.042969 235.148438 230.101562 234.535156 C 230.164062 233.921875 230.253906 233.308594 230.375 232.703125 C 230.496094 232.097656 230.644531 231.5 230.824219 230.910156 C 231.003906 230.316406 231.210938 229.738281 231.449219 229.167969 C 231.683594 228.597656 231.949219 228.039062 232.238281 227.492188 C 232.53125 226.949219 232.847656 226.417969 233.191406 225.90625 C 233.535156 225.390625 233.902344 224.898438 234.292969 224.417969 C 234.683594 223.941406 235.097656 223.484375 235.535156 223.046875 C 235.972656 222.613281 236.429688 222.199219 236.90625 221.804688 C 237.382812 221.414062 237.878906 221.046875 238.394531 220.703125 C 238.90625 220.359375 239.4375 220.042969 239.980469 219.75 C 240.527344 219.460938 241.082031 219.195312 241.652344 218.960938 C 242.226562 218.722656 242.804688 218.515625 243.398438 218.335938 C 243.988281 218.15625 244.585938 218.007812 245.191406 217.886719 C 245.796875 217.765625 246.40625 217.675781 247.023438 217.617188 C 247.636719 217.554688 248.253906 217.523438 248.871094 217.523438 C 249.488281 217.523438 250.105469 217.554688 250.71875 217.617188 C 251.335938 217.675781 251.945312 217.765625 252.550781 217.886719 C 253.15625 218.007812 253.753906 218.15625 254.34375 218.335938 C 254.9375 218.515625 255.515625 218.722656 256.085938 218.960938 C 256.660156 219.195312 257.214844 219.460938 257.761719 219.75 C 258.304688 220.042969 258.835938 220.359375 259.347656 220.703125 C 259.863281 221.046875 260.355469 221.414062 260.835938 221.804688 C 261.3125 222.199219 261.769531 222.613281 262.207031 223.046875 C 262.644531 223.484375 263.058594 223.941406 263.449219 224.417969 C 263.839844 224.898438 264.207031 225.390625 264.550781 225.90625 C 264.894531 226.417969 265.210938 226.949219 265.503906 227.492188 C 265.792969 228.039062 266.058594 228.597656 266.292969 229.167969 C 266.53125 229.738281 266.738281 230.316406 266.917969 230.910156 C 267.097656 231.5 267.246094 232.097656 267.367188 232.703125 C 267.488281 233.308594 267.578125 233.921875 267.640625 234.535156 C 267.699219 235.148438 267.730469 235.765625 267.730469 236.382812 Z M 267.730469 236.382812 "/><path style=" stroke:none;fill-rule:nonzero;fill:#004930;fill-opacity:1;" d="M 211.664062 217.617188 C 211.664062 217.617188 205.09375 244.890625 195.019531 260.195312 C 194.585938 260.855469 194.074219 261.449219 193.484375 261.972656 C 192.894531 262.496094 192.246094 262.933594 191.539062 263.285156 C 190.832031 263.640625 190.089844 263.890625 189.316406 264.046875 C 188.539062 264.203125 187.757812 264.253906 186.972656 264.199219 C 178.546875 263.628906 160.773438 261.546875 145.933594 253.980469 C 145.171875 253.589844 144.480469 253.101562 143.859375 252.515625 C 143.238281 251.925781 142.710938 251.261719 142.285156 250.523438 C 141.855469 249.78125 141.539062 248.996094 141.335938 248.164062 C 141.136719 247.335938 141.054688 246.492188 141.097656 245.636719 C 141.667969 233.359375 143.632812 204.320312 149.691406 199.5 C 162.316406 189.4375 211.664062 217.617188 211.664062 217.617188 Z M 211.664062 217.617188 "/><path style=" stroke:none;fill-rule:nonzero;fill:#f5f1e9;fill-opacity:1;" d="M 138.585938 226.371094 L 143.996094 205.640625 C 144.089844 205.289062 144.214844 204.945312 144.375 204.617188 C 144.53125 204.289062 144.722656 203.980469 144.941406 203.691406 C 145.164062 203.398438 145.410156 203.132812 145.683594 202.890625 C 145.953125 202.648438 146.25 202.433594 146.5625 202.25 C 146.878906 202.066406 147.207031 201.914062 147.550781 201.792969 C 147.898438 201.675781 148.25 201.589844 148.613281 201.539062 C 148.972656 201.488281 149.335938 201.476562 149.699219 201.496094 C 150.066406 201.519531 150.421875 201.574219 150.777344 201.667969 L 208.410156 216.710938 C 208.761719 216.804688 209.101562 216.929688 209.429688 217.089844 C 209.757812 217.246094 210.066406 217.4375 210.359375 217.65625 C 210.648438 217.878906 210.917969 218.125 211.160156 218.398438 C 211.402344 218.671875 211.613281 218.964844 211.800781 219.277344 C 211.984375 219.59375 212.136719 219.921875 212.253906 220.269531 C 212.375 220.613281 212.460938 220.964844 212.507812 221.328125 C 212.558594 221.6875 212.574219 222.050781 212.550781 222.414062 C 212.53125 222.78125 212.472656 223.136719 212.382812 223.492188 L 206.96875 244.21875 C 206.878906 244.574219 206.753906 244.914062 206.59375 245.242188 C 206.433594 245.570312 206.246094 245.878906 206.023438 246.171875 C 205.804688 246.460938 205.558594 246.730469 205.285156 246.972656 C 205.011719 247.214844 204.71875 247.425781 204.402344 247.609375 C 204.089844 247.796875 203.757812 247.949219 203.414062 248.066406 C 203.070312 248.1875 202.714844 248.269531 202.355469 248.320312 C 201.992188 248.371094 201.628906 248.386719 201.265625 248.363281 C 200.902344 248.34375 200.542969 248.285156 200.191406 248.195312 L 142.558594 233.148438 C 142.207031 233.058594 141.863281 232.929688 141.535156 232.773438 C 141.207031 232.613281 140.898438 232.421875 140.609375 232.203125 C 140.316406 231.984375 140.050781 231.734375 139.808594 231.464844 C 139.566406 231.191406 139.351562 230.898438 139.167969 230.582031 C 138.984375 230.265625 138.832031 229.9375 138.710938 229.59375 C 138.59375 229.246094 138.507812 228.894531 138.457031 228.535156 C 138.40625 228.171875 138.394531 227.808594 138.414062 227.445312 C 138.4375 227.082031 138.492188 226.722656 138.585938 226.371094 Z M 138.585938 226.371094 "/><path style=" stroke:none;fill-rule:nonzero;fill:#004930;fill-opacity:1;" d="M 221.453125 86.503906 C 221.730469 87.054688 221.980469 87.617188 222.203125 88.1875 C 222.425781 88.761719 222.617188 89.34375 222.785156 89.9375 C 222.949219 90.53125 223.085938 91.128906 223.191406 91.734375 C 223.296875 92.339844 223.375 92.949219 223.417969 93.5625 C 223.464844 94.175781 223.480469 94.792969 223.46875 95.40625 C 223.453125 96.019531 223.410156 96.632812 223.335938 97.246094 C 223.261719 97.855469 223.15625 98.460938 223.023438 99.058594 C 222.890625 99.660156 222.726562 100.253906 222.535156 100.835938 C 222.34375 101.421875 222.125 101.996094 221.875 102.558594 C 221.625 103.121094 221.351562 103.667969 221.050781 104.207031 C 220.746094 104.742188 220.417969 105.261719 220.066406 105.765625 C 219.714844 106.265625 219.335938 106.753906 218.933594 107.21875 C 218.535156 107.683594 218.113281 108.132812 217.667969 108.554688 C 217.222656 108.980469 216.757812 109.382812 216.273438 109.761719 C 215.789062 110.140625 215.289062 110.496094 214.769531 110.824219 C 214.25 111.15625 213.714844 111.460938 213.167969 111.738281 C 212.617188 112.015625 212.058594 112.265625 211.484375 112.488281 C 210.910156 112.707031 210.328125 112.902344 209.734375 113.066406 C 209.140625 113.234375 208.542969 113.367188 207.9375 113.476562 C 207.332031 113.582031 206.722656 113.65625 206.109375 113.703125 C 205.496094 113.75 204.882812 113.765625 204.265625 113.753906 C 203.652344 113.738281 203.039062 113.695312 202.429688 113.621094 C 201.816406 113.546875 201.210938 113.441406 200.613281 113.308594 C 200.011719 113.175781 199.417969 113.011719 198.835938 112.820312 C 198.25 112.628906 197.675781 112.40625 197.113281 112.160156 C 196.550781 111.910156 196.003906 111.636719 195.46875 111.332031 C 194.933594 111.03125 194.414062 110.703125 193.910156 110.351562 C 193.40625 109.996094 192.921875 109.621094 192.453125 109.21875 C 191.988281 108.820312 191.542969 108.394531 191.117188 107.949219 C 190.691406 107.507812 190.289062 107.042969 189.910156 106.558594 C 189.53125 106.074219 189.175781 105.570312 188.847656 105.054688 C 188.515625 104.535156 188.214844 104 187.9375 103.449219 C 187.660156 102.902344 187.410156 102.339844 187.1875 101.769531 C 186.964844 101.195312 186.769531 100.609375 186.605469 100.019531 C 186.441406 99.425781 186.304688 98.828125 186.199219 98.222656 C 186.09375 97.617188 186.015625 97.007812 185.96875 96.394531 C 185.921875 95.78125 185.90625 95.164062 185.921875 94.550781 C 185.933594 93.9375 185.980469 93.324219 186.054688 92.710938 C 186.128906 92.101562 186.230469 91.496094 186.363281 90.894531 C 186.5 90.296875 186.660156 89.703125 186.851562 89.121094 C 187.046875 88.535156 187.265625 87.960938 187.511719 87.398438 C 187.761719 86.835938 188.035156 86.289062 188.339844 85.75 C 188.640625 85.214844 188.96875 84.695312 189.324219 84.191406 C 189.675781 83.6875 190.050781 83.203125 190.453125 82.738281 C 190.855469 82.273438 191.277344 81.824219 191.722656 81.402344 C 192.167969 80.976562 192.632812 80.574219 193.113281 80.195312 C 193.597656 79.816406 194.101562 79.460938 194.621094 79.132812 C 195.140625 78.800781 195.671875 78.496094 196.222656 78.21875 C 196.769531 77.941406 197.332031 77.691406 197.90625 77.46875 C 198.480469 77.246094 199.0625 77.054688 199.652344 76.890625 C 200.246094 76.722656 200.84375 76.589844 201.453125 76.480469 C 202.058594 76.375 202.667969 76.300781 203.28125 76.253906 C 203.894531 76.207031 204.507812 76.191406 205.121094 76.203125 C 205.738281 76.21875 206.347656 76.261719 206.960938 76.335938 C 207.570312 76.410156 208.175781 76.515625 208.777344 76.648438 C 209.375 76.78125 209.96875 76.945312 210.554688 77.136719 C 211.136719 77.328125 211.710938 77.550781 212.273438 77.796875 C 212.835938 78.046875 213.386719 78.320312 213.921875 78.625 C 214.457031 78.925781 214.976562 79.253906 215.480469 79.605469 C 215.984375 79.960938 216.46875 80.335938 216.933594 80.738281 C 217.402344 81.136719 217.847656 81.5625 218.273438 82.007812 C 218.695312 82.449219 219.097656 82.914062 219.476562 83.398438 C 219.855469 83.882812 220.210938 84.386719 220.542969 84.902344 C 220.871094 85.421875 221.175781 85.957031 221.453125 86.503906 Z M 221.453125 86.503906 "/><path style=" stroke:none;fill-rule:nonzero;fill:#004930;fill-opacity:1;" d="M 252.9375 201.8125 L 272.964844 203.621094 C 273.371094 203.660156 273.773438 203.660156 274.179688 203.621094 C 274.582031 203.582031 274.980469 203.507812 275.371094 203.398438 C 275.761719 203.289062 276.140625 203.144531 276.503906 202.964844 C 276.867188 202.785156 277.214844 202.570312 277.539062 202.328125 C 277.863281 202.085938 278.164062 201.816406 278.441406 201.515625 C 278.714844 201.21875 278.960938 200.898438 279.179688 200.554688 C 279.394531 200.210938 279.578125 199.851562 279.730469 199.472656 C 279.882812 199.097656 279.996094 198.710938 280.078125 198.3125 L 284.476562 176.339844 C 284.625 175.59375 284.648438 174.847656 284.539062 174.09375 C 284.433594 173.34375 284.203125 172.628906 283.851562 171.957031 C 283.5 171.285156 283.046875 170.691406 282.492188 170.171875 C 281.9375 169.65625 281.308594 169.246094 280.613281 168.945312 L 261.210938 160.492188 Z M 252.9375 201.8125 "/><path style=" stroke:none;fill-rule:nonzero;fill:#004930;fill-opacity:1;" d="M 122.035156 175.59375 L 102.855469 169.546875 C 102.46875 169.425781 102.097656 169.269531 101.738281 169.078125 C 101.378906 168.886719 101.039062 168.667969 100.722656 168.414062 C 100.402344 168.160156 100.109375 167.882812 99.84375 167.574219 C 99.578125 167.269531 99.339844 166.941406 99.132812 166.589844 C 98.925781 166.242188 98.753906 165.875 98.613281 165.492188 C 98.472656 165.113281 98.371094 164.722656 98.300781 164.320312 C 98.234375 163.921875 98.203125 163.515625 98.207031 163.109375 C 98.214844 162.703125 98.253906 162.300781 98.335938 161.902344 L 102.734375 139.929688 C 102.882812 139.1875 103.152344 138.488281 103.542969 137.835938 C 103.929688 137.183594 104.417969 136.617188 105 136.128906 C 105.582031 135.644531 106.230469 135.269531 106.941406 135.007812 C 107.652344 134.742188 108.390625 134.605469 109.148438 134.59375 L 130.308594 134.269531 Z M 122.035156 175.59375 "/><path style=" stroke:none;fill-rule:nonzero;fill:#004930;fill-opacity:1;" d="M 111.792969 155.117188 C 103.707031 195.484375 136.339844 216.8125 180.105469 225.554688 C 223.867188 234.296875 262.191406 227.242188 270.273438 186.863281 C 278.355469 146.484375 250.765625 100.042969 207 91.277344 C 163.234375 82.515625 119.859375 114.75 111.792969 155.117188 Z M 111.792969 155.117188 "/><path style=" stroke:none;fill-rule:nonzero;fill:#f5f1e9;fill-opacity:1;" d="M 129.308594 159.273438 C 123.023438 190.65625 149.4375 201.917969 183.476562 208.734375 C 217.511719 215.550781 246.203125 215.332031 252.507812 183.945312 C 258.8125 152.558594 237.332031 116.460938 203.320312 109.644531 C 169.308594 102.832031 135.597656 127.894531 129.308594 159.273438 Z M 129.308594 159.273438 "/><path style=" stroke:none;fill-rule:nonzero;fill:#004930;fill-opacity:1;" d="M 202.304688 173.507812 C 202.179688 174.089844 202.117188 174.675781 202.109375 175.269531 C 202.101562 175.863281 202.152344 176.453125 202.261719 177.035156 C 202.371094 177.621094 202.539062 178.1875 202.761719 178.738281 C 202.984375 179.289062 203.257812 179.8125 203.585938 180.308594 C 203.910156 180.804688 204.28125 181.261719 204.699219 181.6875 C 205.117188 182.109375 205.574219 182.484375 206.066406 182.816406 C 206.558594 183.148438 207.078125 183.429688 207.625 183.660156 C 208.171875 183.886719 208.738281 184.0625 209.320312 184.175781 C 209.902344 184.292969 210.492188 184.351562 211.085938 184.351562 C 211.679688 184.351562 212.269531 184.292969 212.851562 184.175781 C 213.433594 184.058594 213.996094 183.886719 214.546875 183.65625 C 215.09375 183.429688 215.613281 183.148438 216.105469 182.816406 C 216.597656 182.484375 217.054688 182.105469 217.46875 181.683594 C 217.886719 181.261719 218.257812 180.800781 218.585938 180.304688 C 218.910156 179.808594 219.183594 179.285156 219.40625 178.734375 C 219.628906 178.183594 219.796875 177.613281 219.90625 177.03125 C 220.878906 172.171875 218.277344 164.691406 213.417969 163.71875 C 208.558594 162.75 203.28125 168.648438 202.304688 173.507812 Z M 202.304688 173.507812 "/><path style=" stroke:none;fill-rule:nonzero;fill:#004930;fill-opacity:1;" d="M 158.5625 164.746094 C 158.453125 165.320312 158.402344 165.902344 158.410156 166.488281 C 158.414062 167.070312 158.476562 167.648438 158.59375 168.222656 C 158.714844 168.792969 158.886719 169.351562 159.113281 169.890625 C 159.339844 170.425781 159.617188 170.9375 159.945312 171.425781 C 160.273438 171.910156 160.644531 172.355469 161.058594 172.769531 C 161.472656 173.179688 161.925781 173.546875 162.410156 173.871094 C 162.898438 174.195312 163.410156 174.46875 163.953125 174.695312 C 164.492188 174.917969 165.046875 175.085938 165.621094 175.203125 C 166.195312 175.316406 166.773438 175.375 167.359375 175.375 C 167.941406 175.378906 168.523438 175.324219 169.097656 175.210938 C 169.671875 175.101562 170.226562 174.933594 170.769531 174.714844 C 171.3125 174.492188 171.824219 174.222656 172.3125 173.902344 C 172.804688 173.578125 173.253906 173.214844 173.671875 172.804688 C 174.089844 172.394531 174.464844 171.949219 174.792969 171.464844 C 175.125 170.984375 175.402344 170.472656 175.632812 169.933594 C 175.863281 169.398438 176.039062 168.84375 176.160156 168.273438 C 177.132812 163.414062 174.535156 155.933594 169.675781 154.960938 C 164.816406 153.988281 159.539062 159.882812 158.5625 164.746094 Z M 158.5625 164.746094 "/><path style=" stroke:none;fill-rule:nonzero;fill:#004930;fill-opacity:1;" d="M 190.300781 182.675781 C 187.316406 182.675781 183.394531 181.757812 179.21875 178.3125 L 180.640625 176.582031 C 188.15625 182.78125 194.515625 179.664062 194.785156 179.542969 L 195.816406 181.53125 C 194.0625 182.332031 192.226562 182.714844 190.300781 182.675781 Z M 190.300781 182.675781 "/></g></svg>