<svg xmlns="http://www.w3.org/2000/svg" xmlns:xlink="http://www.w3.org/1999/xlink" width="500" zoomAndPan="magnify" viewBox="0 0 375 374.999991" height="500" preserveAspectRatio="xMidYMid meet" version="1.0"><defs><filter x="0%" y="0%" width="100%" height="100%" id="d8b0d33009"><feColorMatrix values="0 0 0 0 1 0 0 0 0 1 0 0 0 0 1 0 0 0 1 0" color-interpolation-filters="sRGB"/></filter><mask id="a2e2c5b40a"><g filter="url(#d8b0d33009)"><rect x="-37.5" width="450" fill="#000000" y="-37.499999" height="449.999989" fill-opacity="0.15"/></g></mask><clipPath id="f1d83fd731"><path d="M 0.78125 0.78125 L 282.03125 0.78125 L 282.03125 282.03125 L 0.78125 282.03125 Z M 0.78125 0.78125 " clip-rule="nonzero"/></clipPath><clipPath id="1c334d4970"><rect x="0" width="283" y="0" height="283"/></clipPath><mask id="530870ea5c"><g filter="url(#d8b0d33009)"><rect x="-37.5" width="450" fill="#000000" y="-37.499999" height="449.999989" fill-opacity="0.15"/></g></mask><clipPath id="54164432aa"><path d="M 0.214844 0.328125 L 122.464844 0.328125 L 122.464844 122.578125 L 0.214844 122.578125 Z M 0.214844 0.328125 " clip-rule="nonzero"/></clipPath><clipPath id="4b4f56d7ef"><rect x="0" width="123" y="0" height="123"/></clipPath></defs><g mask="url(#a2e2c5b40a)"><g transform="matrix(1, 0, 0, 1, 46, 46)"><g clip-path="url(#1c334d4970)"><g clip-path="url(#f1d83fd731)"><path fill="#b9a800" d="M 141.5 202.828125 C 107.625 202.828125 80.167969 175.371094 80.167969 141.5 C 80.167969 107.625 107.625 80.167969 141.5 80.167969 C 175.371094 80.167969 202.828125 107.625 202.828125 141.5 C 202.828125 175.371094 175.371094 202.828125 141.5 202.828125 Z M 282.226562 111.246094 C 278.523438 93.933594 271.703125 77.777344 262.386719 63.386719 L 232.824219 72.453125 L 210.546875 50.175781 L 219.609375 20.609375 C 205.222656 11.292969 189.066406 4.476562 171.753906 0.773438 L 157.25 28.097656 L 125.75 28.097656 L 111.246094 0.773438 C 93.933594 4.476562 77.777344 11.292969 63.386719 20.609375 L 72.453125 50.175781 L 50.175781 72.453125 L 20.609375 63.386719 C 11.292969 77.777344 4.476562 93.933594 0.773438 111.246094 L 28.097656 125.75 L 28.097656 157.25 L 0.773438 171.753906 C 4.476562 189.066406 11.292969 205.222656 20.609375 219.609375 L 50.175781 210.546875 L 72.453125 232.824219 L 63.386719 262.386719 C 77.777344 271.703125 93.933594 278.523438 111.246094 282.226562 L 125.75 254.898438 L 157.25 254.898438 L 171.753906 282.226562 C 189.066406 278.523438 205.222656 271.703125 219.609375 262.386719 L 210.546875 232.824219 L 232.824219 210.546875 L 262.386719 219.609375 C 271.703125 205.222656 278.523438 189.066406 282.226562 171.753906 L 254.898438 157.25 L 254.898438 125.75 L 282.226562 111.246094 " fill-opacity="1" fill-rule="nonzero"/></g></g></g></g><g mask="url(#530870ea5c)"><g transform="matrix(1, 0, 0, 1, 126, 126)"><g clip-path="url(#4b4f56d7ef)"><g clip-path="url(#54164432aa)"><path fill="#547f55" d="M 122.664062 61.554688 C 122.664062 95.226562 95.113281 122.777344 61.4375 122.777344 C 27.765625 122.777344 0.214844 95.226562 0.214844 61.554688 C 0.214844 27.878906 27.765625 0.328125 61.4375 0.328125 C 95.113281 0.328125 122.664062 27.878906 122.664062 61.554688 Z M 122.664062 61.554688 " fill-opacity="1" fill-rule="nonzero"/></g></g></g></g><path fill="#ffbc00" d="M 231.222656 90.25 C 263.527344 90.25 289.683594 116.398438 289.683594 148.6875 C 289.683594 180.980469 263.527344 207.128906 231.222656 207.128906 C 198.917969 207.128906 172.710938 180.980469 172.710938 148.6875 C 172.710938 116.398438 198.917969 90.25 231.222656 90.25 Z M 258.410156 226.644531 C 263.035156 238.390625 266.03125 240.601562 267.605469 241.386719 C 270.066406 242.667969 268.539062 234.164062 264.3125 224.332031 C 260.28125 214.996094 257.332031 210.375 255.707031 211.011719 C 254.085938 211.652344 257.773438 225.019531 258.410156 226.644531 Z M 292.582031 175.476562 C 291.894531 177.050781 303.941406 183.882812 305.5625 184.570312 C 317.117188 189.632812 320.855469 189.042969 322.527344 188.5 C 325.183594 187.667969 318.101562 182.75 308.121094 178.769531 C 298.632812 175.082031 293.320312 173.902344 292.582031 175.476562 Z M 323.953125 112.316406 C 325.230469 109.859375 316.726562 111.382812 306.890625 115.609375 C 297.550781 119.640625 292.929688 122.589844 293.566406 124.210938 C 294.207031 125.832031 307.53125 122.097656 309.152344 121.460938 C 320.953125 116.886719 323.167969 113.839844 323.953125 112.316406 Z M 267.113281 74.324219 C 272.179688 62.773438 271.589844 59.039062 271.046875 57.367188 C 270.210938 54.710938 265.296875 61.789062 261.3125 71.765625 C 257.578125 81.253906 256.394531 86.5625 257.96875 87.25 C 259.640625 87.988281 266.425781 75.945312 267.113281 74.324219 Z M 204.03125 70.734375 C 199.410156 58.988281 196.410156 56.777344 194.835938 55.988281 C 192.378906 54.710938 193.902344 63.214844 198.132812 73.046875 C 202.164062 82.382812 205.113281 87.003906 206.738281 86.367188 C 208.359375 85.675781 204.671875 72.355469 204.03125 70.734375 Z M 169.8125 121.851562 C 170.5 120.28125 158.453125 113.449219 156.832031 112.757812 C 145.277344 107.695312 141.539062 108.285156 139.867188 108.828125 C 137.210938 109.664062 144.292969 114.578125 154.273438 118.558594 C 163.761719 122.296875 169.121094 123.476562 169.8125 121.851562 Z M 155.503906 181.71875 C 164.84375 177.6875 169.46875 174.738281 168.828125 173.117188 C 168.1875 171.496094 154.863281 175.230469 153.242188 175.871094 C 141.492188 180.488281 139.277344 183.488281 138.492188 185.0625 C 137.164062 187.519531 145.667969 185.996094 155.503906 181.71875 Z M 195.28125 223.054688 C 190.214844 234.605469 190.804688 238.339844 191.347656 240.011719 C 192.183594 242.667969 197.097656 235.589844 201.082031 225.609375 C 204.820312 216.125 206 210.816406 204.425781 210.128906 C 202.851562 209.441406 195.96875 221.433594 195.28125 223.054688 Z M 195.28125 223.054688 " fill-opacity="1" fill-rule="nonzero"/><path fill="#fce3ac" d="M 290.714844 205.949219 C 298.433594 213.421875 303.105469 220.695312 300.304688 220.449219 C 298.582031 220.300781 294.894531 219.417969 286.144531 210.324219 C 284.914062 209.097656 276.40625 198.183594 277.636719 196.957031 C 278.914062 195.726562 283.390625 198.871094 290.714844 205.949219 Z M 313.675781 153.40625 C 326.265625 153.652344 329.507812 151.6875 330.835938 150.558594 C 333 148.789062 324.542969 146.917969 313.773438 147.066406 C 303.597656 147.214844 298.238281 148.199219 298.1875 149.917969 C 298.1875 151.6875 311.90625 153.359375 313.675781 153.40625 Z M 303.007812 79.582031 C 303.253906 76.832031 295.976562 81.449219 288.503906 89.167969 C 281.421875 96.492188 278.277344 100.964844 279.503906 102.191406 C 280.734375 103.421875 291.601562 94.917969 292.878906 93.6875 C 301.925781 84.988281 302.8125 81.351562 303.007812 79.582031 Z M 232.5 81.695312 C 234.222656 81.746094 235.894531 67.984375 235.941406 66.214844 C 236.1875 53.628906 234.222656 50.386719 233.089844 49.058594 C 231.320312 46.898438 229.453125 55.351562 229.597656 66.113281 C 229.796875 76.339844 230.730469 81.695312 232.5 81.695312 Z M 159.4375 217.746094 C 159.191406 220.5 166.46875 215.878906 173.941406 208.164062 C 181.023438 200.839844 184.167969 196.367188 182.9375 195.136719 C 181.710938 193.910156 170.84375 202.410156 169.566406 203.640625 C 160.46875 212.390625 159.585938 216.027344 159.4375 217.746094 Z M 171.679688 91.429688 C 179.003906 98.503906 183.480469 101.652344 184.710938 100.421875 C 185.9375 99.195312 177.433594 88.332031 176.203125 87.054688 C 167.453125 77.960938 163.8125 77.074219 162.042969 76.929688 C 159.339844 76.683594 163.960938 83.957031 171.679688 91.429688 Z M 226.503906 231.117188 C 226.257812 243.699219 228.222656 246.941406 229.355469 248.269531 C 231.125 250.433594 232.992188 241.976562 232.84375 231.214844 C 232.695312 221.039062 231.714844 215.683594 229.992188 215.632812 C 228.171875 215.632812 226.503906 229.394531 226.503906 231.117188 Z M 148.621094 150.261719 C 158.796875 150.113281 164.15625 149.132812 164.207031 147.410156 C 164.253906 145.691406 150.488281 144.019531 148.71875 143.972656 C 136.132812 143.726562 132.886719 145.691406 131.558594 146.820312 C 129.445312 148.589844 137.902344 150.410156 148.621094 150.261719 Z M 148.621094 150.261719 " fill-opacity="1" fill-rule="nonzero"/><path fill="#000000" d="M 248.136719 139.988281 C 249.511719 140.285156 250.347656 141.660156 250.054688 143.035156 C 249.757812 144.414062 248.382812 145.25 247.003906 144.953125 C 245.628906 144.660156 244.792969 143.28125 245.085938 141.90625 C 245.382812 140.53125 246.757812 139.644531 248.136719 139.988281 Z M 218.289062 135.664062 C 217.996094 137.039062 218.832031 138.367188 220.207031 138.710938 C 221.585938 139.007812 222.914062 138.171875 223.257812 136.792969 C 223.550781 135.417969 222.714844 134.089844 221.339844 133.746094 C 219.960938 133.402344 218.636719 134.289062 218.289062 135.664062 Z M 218.289062 135.664062 " fill-opacity="1" fill-rule="nonzero"/><path fill="#ffaa00" d="M 266.722656 153.308594 C 271.292969 154.980469 274.246094 158.273438 273.359375 160.730469 C 272.472656 163.140625 268.050781 163.777344 263.527344 162.109375 C 258.953125 160.4375 256.003906 157.144531 256.886719 154.6875 C 257.773438 152.226562 262.148438 151.636719 266.722656 153.308594 Z M 192.820312 142.003906 C 192.527344 144.5625 196.214844 147.066406 201.03125 147.609375 C 205.851562 148.097656 209.980469 146.429688 210.277344 143.871094 C 210.570312 141.316406 206.882812 138.808594 202.066406 138.269531 C 197.246094 137.777344 193.117188 139.449219 192.820312 142.003906 Z M 192.820312 142.003906 " fill-opacity="1" fill-rule="nonzero"/><path fill="#ff9100" d="M 216.324219 153.652344 C 216.863281 159.894531 221.339844 165.300781 227.730469 166.824219 C 234.121094 168.300781 240.5625 165.402344 243.808594 160.09375 C 244.792969 158.519531 243.316406 156.554688 241.5 156.945312 C 233.433594 158.8125 226.15625 157.09375 219.71875 151.882812 C 218.339844 150.703125 216.175781 151.785156 216.324219 153.652344 Z M 216.324219 153.652344 " fill-opacity="1" fill-rule="nonzero"/><path fill="#a7d2ea" d="M 247.644531 238.539062 C 244.300781 232.589844 238.746094 227.527344 231.761719 226.9375 C 237.515625 218.730469 238.300781 207.226562 233.582031 198.332031 C 228.863281 189.386719 218.832031 184.960938 208.949219 186.386719 C 203.835938 187.125 199.015625 189.4375 195.574219 193.269531 C 193.609375 182.308594 190.757812 170.414062 181.070312 163.679688 C 176.597656 160.582031 171.285156 159.402344 165.925781 160.339844 C 160.320312 161.320312 155.257812 164.269531 151.128906 168.054688 C 146.40625 172.429688 142.816406 177.886719 139.472656 183.339844 C 136.132812 176.507812 132.6875 169.53125 127.378906 163.976562 C 122.460938 158.8125 115.53125 154.929688 108.253906 155.03125 C 101.371094 155.128906 95.371094 159.011719 91.339844 164.367188 C 86.71875 170.609375 85.09375 178.523438 84.800781 186.191406 C 84.457031 195.628906 85.4375 205.261719 87.011719 214.550781 C 80.570312 208.0625 71.867188 203.984375 62.773438 203.148438 C 58.003906 202.707031 52.792969 202.953125 48.367188 204.917969 C 44.335938 206.6875 41.53125 210.175781 40.253906 214.355469 C 37.5 222.957031 40.15625 232.738281 43.890625 240.652344 C 48.070312 249.5 54.660156 257.214844 62.871094 262.621094 C 71.769531 268.472656 82.390625 271.566406 93.011719 271.46875 C 96.945312 278.546875 102.207031 284.886719 109.382812 288.820312 C 118.183594 293.636719 129.296875 294.273438 137.558594 287.984375 C 141.246094 285.183594 144.046875 281.199219 145.078125 276.679688 C 149.554688 285.328125 158.160156 291.425781 167.550781 293.636719 C 172.464844 294.765625 177.578125 294.914062 182.496094 293.785156 C 187.855469 292.554688 193.460938 289.851562 196.261719 284.886719 C 199.507812 279.136719 198.769531 272.15625 201.132812 266.113281 C 210.226562 275.941406 225.46875 279.675781 238.054688 274.714844 C 244.839844 272.058594 250.496094 266.898438 251.824219 259.476562 C 252.953125 252.398438 251.136719 244.679688 247.644531 238.539062 Z M 247.644531 238.539062 " fill-opacity="1" fill-rule="nonzero"/><path fill="#000000" d="M 136.328125 215.878906 C 136.328125 217.5 135 218.777344 133.425781 218.777344 C 131.851562 218.777344 130.527344 217.453125 130.527344 215.878906 C 130.527344 214.304688 131.851562 212.980469 133.425781 212.980469 C 135 212.980469 136.328125 214.257812 136.328125 215.878906 Z M 164.992188 212.980469 C 163.371094 212.980469 162.09375 214.304688 162.09375 215.878906 C 162.09375 217.453125 163.417969 218.777344 164.992188 218.777344 C 166.617188 218.777344 167.894531 217.453125 167.894531 215.878906 C 167.894531 214.304688 166.617188 212.980469 164.992188 212.980469 Z M 164.992188 212.980469 " fill-opacity="1" fill-rule="nonzero"/><path fill="#73aad8" d="M 119.808594 227.183594 C 120.152344 230.132812 115.972656 233.082031 110.464844 233.769531 C 104.957031 234.457031 100.1875 232.589844 99.796875 229.640625 C 99.453125 226.691406 103.632812 223.742188 109.136719 223.054688 C 114.644531 222.367188 119.414062 224.1875 119.808594 227.183594 Z M 185.398438 223.054688 C 179.890625 222.367188 175.121094 224.234375 174.726562 227.183594 C 174.382812 230.132812 178.5625 233.082031 184.070312 233.769531 C 189.578125 234.457031 194.347656 232.589844 194.738281 229.640625 C 195.082031 226.644531 190.90625 223.742188 185.398438 223.054688 Z M 185.398438 223.054688 " fill-opacity="1" fill-rule="nonzero"/><path fill="#529dd1" d="M 162.042969 233.621094 C 153.488281 237.800781 144.933594 237.800781 136.378906 233.621094 C 134.460938 232.6875 132.34375 234.507812 132.984375 236.523438 C 135.195312 243.355469 141.636719 248.269531 149.210938 248.269531 C 156.78125 248.269531 163.171875 243.355469 165.433594 236.523438 C 166.074219 234.507812 163.960938 232.6875 162.042969 233.621094 Z M 162.042969 233.621094 " fill-opacity="1" fill-rule="nonzero"/></svg>