<svg xmlns="http://www.w3.org/2000/svg" xmlns:xlink="http://www.w3.org/1999/xlink" width="500" zoomAndPan="magnify" viewBox="0 0 375 374.999991" height="500" preserveAspectRatio="xMidYMid meet" version="1.2"><defs><filter x="0%" y="0%" width="100%" filterUnits="objectBoundingBox" id="5a84d4e9cd" height="100%"><feColorMatrix values="0 0 0 0 1 0 0 0 0 1 0 0 0 0 1 0 0 0 1 0" type="matrix" in="SourceGraphic"/></filter><clipPath id="ac96ce9abf"><path d="M 0.78125 0.78125 L 282.03125 0.78125 L 282.03125 282.03125 L 0.78125 282.03125 Z M 0.78125 0.78125 "/></clipPath><clipPath id="8b5aa656ba"><rect x="0" width="283" y="0" height="283"/></clipPath></defs><g id="f5af454486"><g mask="url(#3fcb222d5c)" transform="matrix(1,0,0,1,46,46)"><g clip-path="url(#8b5aa656ba)"><g clip-rule="nonzero" clip-path="url(#ac96ce9abf)"><path style=" stroke:none;fill-rule:nonzero;fill:#547f55;fill-opacity:1;" d="M 141.40625 202.695312 C 107.554688 202.695312 80.117188 175.253906 80.117188 141.40625 C 80.117188 107.554688 107.554688 80.117188 141.40625 80.117188 C 175.257812 80.117188 202.695312 107.554688 202.695312 141.40625 C 202.695312 175.253906 175.257812 202.695312 141.40625 202.695312 Z M 282.039062 111.171875 C 278.335938 93.871094 271.523438 77.726562 262.214844 63.347656 L 232.667969 72.40625 L 210.40625 50.144531 L 219.464844 20.597656 C 205.085938 11.289062 188.941406 4.472656 171.640625 0.773438 L 157.144531 28.082031 L 125.664062 28.082031 L 111.171875 0.773438 C 93.871094 4.472656 77.726562 11.289062 63.347656 20.597656 L 72.40625 50.144531 L 50.144531 72.40625 L 20.597656 63.347656 C 11.289062 77.726562 4.472656 93.871094 0.773438 111.171875 L 28.082031 125.664062 L 28.082031 157.144531 L 0.773438 171.640625 C 4.472656 188.941406 11.289062 205.085938 20.597656 219.464844 L 50.144531 210.40625 L 72.40625 232.667969 L 63.347656 262.214844 C 77.726562 271.523438 93.871094 278.335938 111.171875 282.039062 L 125.664062 254.730469 L 157.144531 254.730469 L 171.640625 282.039062 C 188.941406 278.335938 205.085938 271.523438 219.464844 262.214844 L 210.40625 232.667969 L 232.667969 210.40625 L 262.214844 219.464844 C 271.523438 205.085938 278.335938 188.941406 282.039062 171.640625 L 254.730469 157.144531 L 254.730469 125.664062 L 282.039062 111.171875 "/></g></g><mask id="3fcb222d5c"><g filter="url(#5a84d4e9cd)"><rect x="0" width="375" y="0" height="374.999991" style="fill:#000000;fill-opacity:0.15;stroke:none;"/></g></mask></g><path style=" stroke:none;fill-rule:nonzero;fill:#f5f1e9;fill-opacity:1;" d="M 111.570312 247.046875 C 109.125 246.203125 106.527344 247.273438 105.785156 249.4375 L 102.785156 258.191406 C 102.039062 260.355469 103.421875 262.792969 105.867188 263.636719 C 108.3125 264.480469 110.910156 263.414062 111.65625 261.246094 L 113.144531 256.855469 L 114.652344 252.480469 C 115.410156 250.339844 114.019531 247.898438 111.570312 247.046875 Z M 111.570312 247.046875 "/><path style=" stroke:none;fill-rule:nonzero;fill:#f5f1e9;fill-opacity:1;" d="M 103.261719 244.183594 C 100.820312 243.339844 98.222656 244.410156 97.476562 246.574219 L 94.460938 255.328125 C 93.710938 257.496094 95.097656 259.929688 97.542969 260.777344 C 99.988281 261.621094 102.585938 260.550781 103.332031 258.382812 L 104.820312 254.003906 L 106.328125 249.628906 C 107.089844 247.464844 105.710938 245.046875 103.261719 244.183594 Z M 103.261719 244.183594 "/><path style=" stroke:none;fill-rule:nonzero;fill:#f5f1e9;fill-opacity:1;" d="M 224.960938 271.257812 C 224.648438 271.390625 224.324219 271.46875 223.984375 271.484375 C 223.601562 271.507812 223.230469 271.453125 222.867188 271.328125 C 222.507812 271.203125 222.183594 271.011719 221.898438 270.753906 C 221.613281 270.5 221.386719 270.199219 221.222656 269.855469 C 221.054688 269.511719 220.960938 269.148438 220.941406 268.765625 C 220.167969 254.917969 207.269531 249.6875 206.722656 249.472656 C 206.367188 249.335938 206.050781 249.132812 205.773438 248.867188 C 205.496094 248.605469 205.28125 248.296875 205.125 247.945312 C 204.972656 247.59375 204.890625 247.230469 204.882812 246.847656 C 204.875 246.464844 204.9375 246.09375 205.078125 245.738281 C 205.214844 245.378906 205.417969 245.0625 205.683594 244.785156 C 205.945312 244.507812 206.253906 244.292969 206.605469 244.140625 C 206.953125 243.984375 207.320312 243.902344 207.703125 243.894531 C 208.085938 243.886719 208.457031 243.949219 208.8125 244.089844 C 209.503906 244.359375 225.722656 250.824219 226.707031 268.441406 C 226.742188 269.046875 226.597656 269.609375 226.277344 270.125 C 225.957031 270.640625 225.519531 271.019531 224.960938 271.257812 Z M 224.960938 271.257812 "/><path style=" stroke:none;fill-rule:nonzero;fill:#004930;fill-opacity:1;" d="M 243.289062 305.527344 L 217.050781 305.527344 C 216.28125 305.527344 215.519531 305.453125 214.761719 305.300781 C 214.003906 305.152344 213.269531 304.929688 212.558594 304.632812 C 211.847656 304.339844 211.171875 303.976562 210.527344 303.546875 C 209.886719 303.121094 209.296875 302.632812 208.75 302.089844 C 208.203125 301.542969 207.71875 300.949219 207.289062 300.308594 C 206.863281 299.667969 206.5 298.992188 206.203125 298.277344 C 205.910156 297.566406 205.6875 296.832031 205.535156 296.078125 C 205.386719 295.320312 205.3125 294.558594 205.3125 293.785156 L 205.3125 277.59375 C 205.3125 276.824219 205.386719 276.058594 205.539062 275.304688 C 205.6875 274.546875 205.910156 273.8125 206.207031 273.101562 C 206.5 272.390625 206.863281 271.714844 207.292969 271.074219 C 207.71875 270.433594 208.207031 269.839844 208.75 269.292969 C 209.296875 268.75 209.890625 268.261719 210.53125 267.835938 C 211.171875 267.40625 211.847656 267.046875 212.558594 266.75 C 213.273438 266.457031 214.007812 266.234375 214.761719 266.082031 C 215.519531 265.933594 216.28125 265.855469 217.050781 265.855469 L 221.890625 265.855469 C 222.589844 265.855469 223.289062 265.890625 223.988281 265.960938 C 224.683594 266.027344 225.378906 266.132812 226.066406 266.269531 C 226.753906 266.40625 227.433594 266.574219 228.101562 266.777344 C 228.773438 266.980469 229.433594 267.21875 230.082031 267.484375 C 230.726562 267.753906 231.359375 268.054688 231.980469 268.382812 C 232.597656 268.714844 233.199219 269.074219 233.78125 269.464844 C 234.363281 269.851562 234.925781 270.269531 235.46875 270.714844 C 236.007812 271.160156 236.527344 271.628906 237.023438 272.125 C 237.519531 272.621094 237.988281 273.140625 238.433594 273.679688 C 238.878906 274.222656 239.296875 274.785156 239.683594 275.367188 C 240.074219 275.949219 240.433594 276.550781 240.765625 277.167969 C 241.09375 277.789062 241.394531 278.421875 241.664062 279.066406 C 241.929688 279.714844 242.167969 280.375 242.371094 281.046875 C 242.574219 281.714844 242.742188 282.394531 242.878906 283.082031 C 243.015625 283.769531 243.121094 284.460938 243.1875 285.160156 C 243.257812 285.859375 243.292969 286.558594 243.292969 287.257812 L 243.292969 305.527344 Z M 243.289062 305.527344 "/><path style=" stroke:none;fill-rule:nonzero;fill:#f5f1e9;fill-opacity:1;" d="M 243.015625 305.761719 L 219.234375 305.808594 C 219.230469 305.238281 219.285156 304.667969 219.398438 304.109375 C 219.507812 303.546875 219.671875 303 219.890625 302.46875 C 220.109375 301.941406 220.375 301.4375 220.691406 300.960938 C 221.011719 300.484375 221.371094 300.042969 221.773438 299.636719 C 222.179688 299.230469 222.617188 298.867188 223.09375 298.546875 C 223.570312 298.230469 224.070312 297.960938 224.601562 297.738281 C 225.128906 297.519531 225.675781 297.351562 226.238281 297.238281 C 226.796875 297.125 227.363281 297.070312 227.9375 297.066406 L 243.007812 297.035156 C 243.292969 297.035156 243.574219 297.0625 243.855469 297.117188 C 244.136719 297.171875 244.410156 297.257812 244.675781 297.363281 C 244.941406 297.472656 245.191406 297.609375 245.429688 297.765625 C 245.667969 297.925781 245.890625 298.105469 246.09375 298.308594 C 246.296875 298.507812 246.476562 298.730469 246.636719 298.96875 C 246.796875 299.207031 246.929688 299.457031 247.042969 299.71875 C 247.152344 299.984375 247.234375 300.257812 247.292969 300.539062 C 247.347656 300.820312 247.375 301.101562 247.375 301.390625 C 247.378906 301.675781 247.351562 301.960938 247.292969 302.242188 C 247.238281 302.523438 247.15625 302.796875 247.046875 303.0625 C 246.9375 303.324219 246.804688 303.578125 246.644531 303.816406 C 246.484375 304.054688 246.304688 304.277344 246.101562 304.480469 C 245.898438 304.683594 245.679688 304.863281 245.441406 305.023438 C 245.203125 305.183594 244.953125 305.316406 244.6875 305.425781 C 244.421875 305.535156 244.148438 305.621094 243.867188 305.675781 C 243.585938 305.730469 243.304688 305.757812 243.015625 305.761719 Z M 243.015625 305.761719 "/><path style=" stroke:none;fill-rule:nonzero;fill:#f5f1e9;fill-opacity:1;" d="M 122.273438 234.574219 C 121.6875 234.609375 121.140625 234.476562 120.636719 234.175781 C 120.132812 233.878906 119.753906 233.464844 119.5 232.933594 C 119.246094 232.40625 119.164062 231.847656 119.25 231.269531 C 119.332031 230.6875 119.574219 230.179688 119.96875 229.746094 C 123.632812 225.707031 127.910156 222.609375 132.269531 220.785156 C 135.660156 219.382812 137.972656 219.210938 138.238281 219.195312 C 138.617188 219.175781 138.984375 219.230469 139.339844 219.359375 C 139.695312 219.484375 140.015625 219.675781 140.296875 219.929688 C 140.578125 220.179688 140.804688 220.476562 140.96875 220.820312 C 141.132812 221.160156 141.226562 221.519531 141.25 221.898438 C 141.273438 222.273438 141.226562 222.644531 141.105469 223.003906 C 140.984375 223.359375 140.800781 223.683594 140.550781 223.96875 C 140.304688 224.253906 140.011719 224.484375 139.671875 224.65625 C 139.335938 224.824219 138.976562 224.925781 138.597656 224.957031 C 138.257812 224.984375 131.523438 225.625 124.234375 233.621094 C 123.710938 234.207031 123.058594 234.527344 122.273438 234.574219 Z M 122.273438 234.574219 "/><path style=" stroke:none;fill-rule:nonzero;fill:#004930;fill-opacity:1;" d="M 160.761719 217.695312 C 160.855469 218.632812 160.859375 219.574219 160.773438 220.515625 C 160.683594 221.453125 160.503906 222.378906 160.230469 223.28125 C 159.960938 224.1875 159.605469 225.054688 159.164062 225.890625 C 158.71875 226.726562 158.199219 227.507812 157.605469 228.242188 C 157.007812 228.972656 156.347656 229.640625 155.617188 230.242188 C 154.890625 230.84375 154.109375 231.371094 153.28125 231.816406 C 152.449219 232.265625 151.582031 232.628906 150.679688 232.90625 C 149.777344 233.183594 148.855469 233.371094 147.914062 233.46875 C 146.976562 233.5625 146.035156 233.566406 145.09375 233.476562 C 144.15625 233.390625 143.234375 233.210938 142.328125 232.9375 C 141.421875 232.667969 140.554688 232.3125 139.71875 231.867188 C 138.882812 231.425781 138.101562 230.90625 137.367188 230.3125 C 136.636719 229.714844 135.96875 229.054688 135.367188 228.324219 C 134.765625 227.597656 134.238281 226.816406 133.792969 225.984375 C 133.34375 225.15625 132.980469 224.289062 132.703125 223.386719 C 132.425781 222.484375 132.238281 221.5625 132.140625 220.621094 C 132.046875 219.683594 132.042969 218.742188 132.132812 217.800781 C 132.21875 216.863281 132.402344 215.9375 132.671875 215.035156 C 132.941406 214.128906 133.296875 213.257812 133.742188 212.425781 C 134.183594 211.589844 134.703125 210.808594 135.296875 210.074219 C 135.894531 209.34375 136.558594 208.675781 137.285156 208.074219 C 138.011719 207.472656 138.792969 206.945312 139.625 206.496094 C 140.453125 206.050781 141.320312 205.6875 142.222656 205.410156 C 143.128906 205.132812 144.046875 204.945312 144.988281 204.847656 C 145.925781 204.753906 146.867188 204.75 147.808594 204.839844 C 148.746094 204.925781 149.671875 205.105469 150.574219 205.378906 C 151.480469 205.648438 152.351562 206.003906 153.183594 206.445312 C 154.019531 206.890625 154.800781 207.410156 155.535156 208.003906 C 156.265625 208.601562 156.933594 209.261719 157.535156 209.992188 C 158.136719 210.71875 158.664062 211.5 159.113281 212.328125 C 159.558594 213.160156 159.921875 214.027344 160.199219 214.929688 C 160.476562 215.832031 160.664062 216.753906 160.761719 217.695312 Z M 160.761719 217.695312 "/><path style=" stroke:none;fill-rule:nonzero;fill:#004930;fill-opacity:1;" d="M 131.042969 232.632812 C 131.222656 233.242188 131.371094 233.859375 131.492188 234.484375 C 131.613281 235.109375 131.703125 235.738281 131.761719 236.371094 C 131.816406 237.003906 131.84375 237.640625 131.839844 238.273438 C 131.835938 238.910156 131.800781 239.542969 131.734375 240.175781 C 131.667969 240.808594 131.570312 241.4375 131.445312 242.058594 C 131.316406 242.683594 131.15625 243.296875 130.96875 243.90625 C 130.78125 244.511719 130.5625 245.109375 130.316406 245.695312 C 130.070312 246.28125 129.792969 246.855469 129.492188 247.414062 C 129.1875 247.972656 128.855469 248.515625 128.5 249.042969 C 128.144531 249.566406 127.761719 250.074219 127.355469 250.566406 C 126.949219 251.054688 126.519531 251.523438 126.066406 251.96875 C 125.613281 252.414062 125.140625 252.839844 124.648438 253.238281 C 124.152344 253.640625 123.640625 254.015625 123.109375 254.363281 C 122.578125 254.714844 122.03125 255.039062 121.46875 255.332031 C 120.90625 255.628906 120.328125 255.898438 119.742188 256.136719 C 119.152344 256.378906 118.550781 256.585938 117.941406 256.769531 C 117.332031 256.949219 116.714844 257.097656 116.089844 257.21875 C 115.464844 257.339844 114.835938 257.429688 114.203125 257.488281 C 113.570312 257.546875 112.9375 257.574219 112.300781 257.566406 C 111.664062 257.5625 111.03125 257.527344 110.398438 257.460938 C 109.765625 257.394531 109.136719 257.300781 108.515625 257.171875 C 107.890625 257.042969 107.277344 256.882812 106.667969 256.695312 C 106.0625 256.507812 105.464844 256.289062 104.878906 256.042969 C 104.292969 255.796875 103.71875 255.519531 103.160156 255.21875 C 102.601562 254.914062 102.058594 254.582031 101.535156 254.226562 C 101.007812 253.871094 100.5 253.488281 100.011719 253.082031 C 99.519531 252.675781 99.054688 252.246094 98.605469 251.792969 C 98.160156 251.339844 97.734375 250.867188 97.335938 250.375 C 96.933594 249.878906 96.558594 249.367188 96.210938 248.835938 C 95.859375 248.304688 95.539062 247.757812 95.242188 247.195312 C 94.945312 246.632812 94.675781 246.054688 94.4375 245.46875 C 94.199219 244.878906 93.988281 244.277344 93.808594 243.667969 C 93.625 243.058594 93.476562 242.441406 93.355469 241.816406 C 93.234375 241.191406 93.144531 240.5625 93.089844 239.929688 C 93.03125 239.296875 93.003906 238.664062 93.007812 238.027344 C 93.011719 237.390625 93.046875 236.757812 93.113281 236.125 C 93.179688 235.492188 93.277344 234.863281 93.402344 234.242188 C 93.53125 233.617188 93.691406 233.003906 93.878906 232.394531 C 94.066406 231.789062 94.285156 231.191406 94.53125 230.605469 C 94.777344 230.019531 95.054688 229.449219 95.359375 228.886719 C 95.660156 228.328125 95.992188 227.785156 96.347656 227.261719 C 96.703125 226.734375 97.085938 226.226562 97.492188 225.738281 C 97.898438 225.25 98.328125 224.78125 98.78125 224.332031 C 99.234375 223.886719 99.707031 223.464844 100.203125 223.0625 C 100.695312 222.664062 101.207031 222.289062 101.738281 221.9375 C 102.269531 221.585938 102.816406 221.265625 103.378906 220.96875 C 103.941406 220.671875 104.519531 220.402344 105.109375 220.164062 C 105.695312 219.925781 106.296875 219.714844 106.90625 219.535156 C 107.515625 219.351562 108.132812 219.203125 108.757812 219.082031 C 109.382812 218.960938 110.011719 218.875 110.644531 218.816406 C 111.277344 218.757812 111.910156 218.730469 112.546875 218.734375 C 113.183594 218.738281 113.816406 218.773438 114.449219 218.839844 C 115.082031 218.90625 115.710938 219.003906 116.332031 219.132812 C 116.957031 219.257812 117.570312 219.417969 118.179688 219.605469 C 118.785156 219.792969 119.382812 220.011719 119.96875 220.257812 C 120.554688 220.507812 121.128906 220.78125 121.6875 221.085938 C 122.246094 221.386719 122.789062 221.71875 123.316406 222.074219 C 123.839844 222.429688 124.347656 222.8125 124.835938 223.21875 C 125.328125 223.625 125.792969 224.054688 126.242188 224.507812 C 126.6875 224.960938 127.113281 225.433594 127.511719 225.929688 C 127.914062 226.421875 128.289062 226.933594 128.636719 227.464844 C 128.988281 227.996094 129.3125 228.542969 129.605469 229.105469 C 129.902344 229.667969 130.171875 230.246094 130.410156 230.835938 C 130.648438 231.421875 130.859375 232.023438 131.042969 232.632812 Z M 131.042969 232.632812 "/><path style=" stroke:none;fill-rule:nonzero;fill:#f5f1e9;fill-opacity:1;" d="M 168.910156 285.535156 C 168.402344 285.785156 167.871094 285.878906 167.308594 285.816406 C 166.746094 285.753906 166.246094 285.542969 165.808594 285.183594 C 165.371094 284.828125 165.0625 284.378906 164.886719 283.84375 C 164.710938 283.304688 164.695312 282.761719 164.839844 282.214844 C 169.167969 265.464844 167.945312 253.085938 167.945312 252.964844 C 167.90625 252.582031 167.9375 252.207031 168.046875 251.839844 C 168.152344 251.472656 168.328125 251.140625 168.570312 250.84375 C 168.808594 250.542969 169.097656 250.304688 169.433594 250.121094 C 169.769531 249.9375 170.128906 249.824219 170.507812 249.785156 C 170.886719 249.742188 171.261719 249.777344 171.628906 249.882812 C 171.996094 249.992188 172.328125 250.164062 172.628906 250.40625 C 172.925781 250.644531 173.167969 250.933594 173.351562 251.269531 C 173.535156 251.605469 173.648438 251.964844 173.6875 252.34375 C 173.746094 252.886719 175.074219 265.820312 170.460938 283.660156 C 170.238281 284.527344 169.71875 285.152344 168.910156 285.535156 Z M 168.910156 285.535156 "/><path style=" stroke:none;fill-rule:nonzero;fill:#004930;fill-opacity:1;" d="M 178.398438 323.304688 L 152.738281 317.8125 C 151.984375 317.648438 151.253906 317.417969 150.542969 317.113281 C 149.835938 316.804688 149.164062 316.433594 148.53125 315.996094 C 147.894531 315.558594 147.308594 315.0625 146.773438 314.511719 C 146.234375 313.957031 145.757812 313.359375 145.339844 312.710938 C 144.917969 312.0625 144.566406 311.382812 144.28125 310.664062 C 144 309.949219 143.785156 309.210938 143.648438 308.453125 C 143.507812 307.695312 143.441406 306.929688 143.453125 306.160156 C 143.464844 305.390625 143.550781 304.628906 143.714844 303.875 L 147.101562 288.039062 C 147.261719 287.285156 147.496094 286.554688 147.800781 285.847656 C 148.105469 285.140625 148.476562 284.46875 148.914062 283.832031 C 149.351562 283.199219 149.847656 282.613281 150.402344 282.074219 C 150.953125 281.539062 151.554688 281.058594 152.203125 280.640625 C 152.847656 280.222656 153.53125 279.871094 154.246094 279.585938 C 154.964844 279.300781 155.699219 279.089844 156.460938 278.949219 C 157.21875 278.808594 157.980469 278.746094 158.753906 278.757812 C 159.523438 278.769531 160.285156 278.855469 161.039062 279.015625 L 165.777344 280.03125 C 166.464844 280.175781 167.140625 280.355469 167.808594 280.570312 C 168.476562 280.78125 169.132812 281.027344 169.773438 281.304688 C 170.417969 281.582031 171.046875 281.890625 171.660156 282.230469 C 172.273438 282.570312 172.867188 282.9375 173.445312 283.335938 C 174.023438 283.734375 174.578125 284.160156 175.113281 284.613281 C 175.648438 285.0625 176.160156 285.542969 176.648438 286.042969 C 177.136719 286.546875 177.597656 287.070312 178.035156 287.621094 C 178.472656 288.167969 178.882812 288.734375 179.261719 289.324219 C 179.644531 289.914062 179.992188 290.519531 180.316406 291.140625 C 180.636719 291.765625 180.925781 292.402344 181.1875 293.050781 C 181.445312 293.703125 181.671875 294.367188 181.863281 295.039062 C 182.058594 295.710938 182.21875 296.394531 182.34375 297.082031 C 182.472656 297.773438 182.5625 298.464844 182.621094 299.164062 C 182.679688 299.863281 182.707031 300.5625 182.695312 301.261719 C 182.683594 301.964844 182.640625 302.664062 182.5625 303.359375 C 182.484375 304.054688 182.371094 304.746094 182.222656 305.429688 Z M 178.398438 323.304688 "/><path style=" stroke:none;fill-rule:nonzero;fill:#f5f1e9;fill-opacity:1;" d="M 178.542969 323.332031 L 155.292969 318.355469 C 155.414062 317.796875 155.585938 317.253906 155.8125 316.726562 C 156.039062 316.203125 156.316406 315.703125 156.640625 315.230469 C 156.964844 314.757812 157.335938 314.324219 157.746094 313.925781 C 158.15625 313.527344 158.601562 313.171875 159.082031 312.859375 C 159.5625 312.546875 160.070312 312.285156 160.601562 312.074219 C 161.132812 311.863281 161.683594 311.707031 162.246094 311.601562 C 162.808594 311.5 163.378906 311.453125 163.949219 311.460938 C 164.523438 311.46875 165.089844 311.53125 165.648438 311.652344 L 180.382812 314.804688 C 180.664062 314.867188 180.933594 314.953125 181.199219 315.066406 C 181.460938 315.179688 181.710938 315.316406 181.945312 315.480469 C 182.183594 315.640625 182.398438 315.824219 182.597656 316.03125 C 182.796875 316.238281 182.976562 316.460938 183.132812 316.699219 C 183.289062 316.941406 183.417969 317.195312 183.523438 317.460938 C 183.628906 317.726562 183.707031 318 183.761719 318.28125 C 183.8125 318.5625 183.835938 318.847656 183.832031 319.132812 C 183.828125 319.421875 183.796875 319.703125 183.734375 319.984375 C 183.675781 320.265625 183.589844 320.535156 183.476562 320.800781 C 183.359375 321.0625 183.222656 321.3125 183.058594 321.550781 C 182.894531 321.785156 182.710938 322.003906 182.503906 322.203125 C 182.300781 322.402344 182.074219 322.582031 181.835938 322.734375 C 181.59375 322.890625 181.339844 323.023438 181.070312 323.128906 C 180.804688 323.234375 180.53125 323.3125 180.246094 323.363281 C 179.964844 323.414062 179.679688 323.4375 179.394531 323.429688 C 179.105469 323.425781 178.824219 323.394531 178.542969 323.332031 Z M 178.542969 323.332031 "/><path style=" stroke:none;fill-rule:nonzero;fill:#f5f1e9;fill-opacity:1;" d="M 295.007812 190.527344 C 293.097656 188.773438 290.296875 188.71875 288.75 190.40625 L 282.484375 197.226562 C 280.9375 198.914062 281.226562 201.707031 283.136719 203.453125 C 285.046875 205.203125 287.847656 205.257812 289.394531 203.570312 L 292.527344 200.164062 L 295.660156 196.753906 C 297.191406 195.070312 296.898438 192.277344 295.007812 190.527344 Z M 295.007812 190.527344 "/><path style=" stroke:none;fill-rule:nonzero;fill:#f5f1e9;fill-opacity:1;" d="M 288.515625 184.582031 C 286.609375 182.832031 283.808594 182.777344 282.261719 184.464844 L 275.996094 191.289062 C 274.445312 192.976562 274.738281 195.769531 276.648438 197.515625 C 278.554688 199.269531 281.355469 199.324219 282.910156 197.636719 L 286.039062 194.226562 L 289.171875 190.816406 C 290.71875 189.121094 290.425781 186.335938 288.515625 184.582031 Z M 288.515625 184.582031 "/><path style=" stroke:none;fill-rule:nonzero;fill:#f5f1e9;fill-opacity:1;" d="M 272.609375 179.664062 C 270.703125 177.910156 267.964844 177.785156 266.5 179.382812 L 260.566406 185.847656 C 259.097656 187.445312 259.453125 190.160156 261.359375 191.917969 C 263.269531 193.667969 266.007812 193.792969 267.46875 192.191406 L 270.433594 188.964844 L 273.402344 185.730469 C 274.867188 184.128906 274.507812 181.414062 272.609375 179.664062 Z M 272.609375 179.664062 "/><path style=" stroke:none;fill-rule:nonzero;fill:#f5f1e9;fill-opacity:1;" d="M 259.765625 206.160156 C 259.332031 206.113281 258.914062 206.160156 258.503906 206.300781 C 258.09375 206.445312 257.734375 206.667969 257.425781 206.976562 C 249.640625 214.558594 242.664062 214.769531 242.59375 214.769531 C 242.210938 214.769531 241.84375 214.84375 241.488281 214.992188 C 241.136719 215.136719 240.824219 215.347656 240.554688 215.617188 C 240.28125 215.886719 240.074219 216.199219 239.925781 216.554688 C 239.78125 216.90625 239.707031 217.277344 239.707031 217.660156 C 239.707031 218.042969 239.78125 218.410156 239.925781 218.761719 C 240.074219 219.117188 240.28125 219.429688 240.554688 219.699219 C 240.824219 219.972656 241.136719 220.179688 241.488281 220.328125 C 241.84375 220.472656 242.210938 220.546875 242.59375 220.546875 C 242.847656 220.546875 245.179688 220.511719 248.648438 219.324219 C 253.125 217.777344 257.535156 214.941406 261.453125 211.121094 C 261.855469 210.734375 262.117188 210.265625 262.246094 209.726562 C 262.375 209.183594 262.351562 208.648438 262.171875 208.121094 C 261.988281 207.59375 261.683594 207.152344 261.246094 206.804688 C 260.8125 206.457031 260.320312 206.25 259.765625 206.1875 Z M 259.765625 206.160156 "/><path style=" stroke:none;fill-rule:nonzero;fill:#004930;fill-opacity:1;" d="M 242.371094 226.25 C 242.371094 227.195312 242.277344 228.132812 242.09375 229.058594 C 241.910156 229.984375 241.636719 230.882812 241.277344 231.757812 C 240.914062 232.628906 240.472656 233.457031 239.945312 234.242188 C 239.421875 235.027344 238.824219 235.753906 238.15625 236.421875 C 237.488281 237.089844 236.761719 237.6875 235.976562 238.210938 C 235.191406 238.734375 234.363281 239.179688 233.492188 239.539062 C 232.617188 239.902344 231.71875 240.175781 230.792969 240.359375 C 229.867188 240.542969 228.929688 240.636719 227.988281 240.636719 C 227.042969 240.636719 226.105469 240.542969 225.179688 240.359375 C 224.253906 240.175781 223.355469 239.902344 222.480469 239.539062 C 221.609375 239.179688 220.78125 238.734375 219.996094 238.210938 C 219.210938 237.6875 218.484375 237.089844 217.816406 236.421875 C 217.148438 235.753906 216.550781 235.027344 216.027344 234.242188 C 215.503906 233.457031 215.058594 232.628906 214.699219 231.757812 C 214.335938 230.882812 214.0625 229.984375 213.878906 229.058594 C 213.695312 228.132812 213.601562 227.195312 213.601562 226.25 C 213.601562 225.308594 213.695312 224.371094 213.878906 223.445312 C 214.0625 222.519531 214.335938 221.621094 214.699219 220.746094 C 215.058594 219.875 215.503906 219.046875 216.027344 218.261719 C 216.550781 217.476562 217.148438 216.75 217.816406 216.082031 C 218.484375 215.414062 219.210938 214.816406 219.996094 214.292969 C 220.78125 213.765625 221.609375 213.324219 222.480469 212.960938 C 223.355469 212.601562 224.253906 212.328125 225.179688 212.144531 C 226.105469 211.960938 227.042969 211.867188 227.988281 211.867188 C 228.929688 211.867188 229.867188 211.960938 230.792969 212.144531 C 231.71875 212.328125 232.617188 212.601562 233.492188 212.960938 C 234.363281 213.324219 235.191406 213.765625 235.976562 214.292969 C 236.761719 214.816406 237.488281 215.414062 238.15625 216.082031 C 238.824219 216.75 239.421875 217.476562 239.945312 218.261719 C 240.472656 219.046875 240.914062 219.875 241.277344 220.746094 C 241.636719 221.621094 241.910156 222.519531 242.09375 223.445312 C 242.277344 224.371094 242.371094 225.308594 242.371094 226.25 Z M 242.371094 226.25 "/><path style=" stroke:none;fill-rule:nonzero;fill:#004930;fill-opacity:1;" d="M 288.152344 197.832031 C 288.328125 198.441406 288.472656 199.0625 288.585938 199.6875 C 288.699219 200.3125 288.78125 200.941406 288.835938 201.578125 C 288.886719 202.210938 288.90625 202.84375 288.898438 203.480469 C 288.886719 204.117188 288.84375 204.75 288.773438 205.382812 C 288.699219 206.015625 288.59375 206.640625 288.460938 207.261719 C 288.328125 207.882812 288.164062 208.496094 287.96875 209.101562 C 287.773438 209.707031 287.550781 210.304688 287.296875 210.886719 C 287.042969 211.46875 286.761719 212.039062 286.453125 212.59375 C 286.144531 213.152344 285.808594 213.691406 285.445312 214.214844 C 285.085938 214.738281 284.699219 215.242188 284.285156 215.726562 C 283.875 216.210938 283.441406 216.671875 282.984375 217.117188 C 282.527344 217.558594 282.050781 217.976562 281.550781 218.371094 C 281.050781 218.765625 280.535156 219.136719 280 219.480469 C 279.46875 219.828125 278.917969 220.144531 278.351562 220.433594 C 277.785156 220.726562 277.207031 220.988281 276.617188 221.21875 C 276.023438 221.453125 275.421875 221.660156 274.8125 221.832031 C 274.199219 222.007812 273.582031 222.152344 272.957031 222.265625 C 272.328125 222.378906 271.699219 222.460938 271.066406 222.515625 C 270.433594 222.566406 269.796875 222.585938 269.160156 222.574219 C 268.527344 222.566406 267.890625 222.523438 267.261719 222.449219 C 266.628906 222.378906 266 222.273438 265.378906 222.140625 C 264.757812 222.007812 264.144531 221.839844 263.539062 221.648438 C 262.933594 221.453125 262.339844 221.230469 261.757812 220.976562 C 261.171875 220.722656 260.601562 220.441406 260.046875 220.132812 C 259.492188 219.824219 258.953125 219.488281 258.429688 219.125 C 257.90625 218.765625 257.402344 218.378906 256.917969 217.964844 C 256.433594 217.554688 255.96875 217.121094 255.527344 216.664062 C 255.085938 216.207031 254.664062 215.726562 254.269531 215.230469 C 253.875 214.730469 253.503906 214.214844 253.160156 213.679688 C 252.816406 213.148438 252.5 212.597656 252.207031 212.03125 C 251.917969 211.464844 251.65625 210.886719 251.421875 210.292969 C 251.1875 209.703125 250.984375 209.101562 250.808594 208.492188 C 250.636719 207.878906 250.492188 207.261719 250.378906 206.632812 C 250.261719 206.007812 250.179688 205.378906 250.128906 204.746094 C 250.078125 204.113281 250.054688 203.476562 250.066406 202.839844 C 250.078125 202.203125 250.117188 201.570312 250.191406 200.9375 C 250.265625 200.308594 250.367188 199.679688 250.503906 199.058594 C 250.636719 198.4375 250.800781 197.824219 250.996094 197.21875 C 251.191406 196.613281 251.414062 196.019531 251.667969 195.433594 C 251.921875 194.851562 252.199219 194.28125 252.511719 193.726562 C 252.820312 193.171875 253.15625 192.632812 253.515625 192.109375 C 253.878906 191.585938 254.265625 191.082031 254.675781 190.597656 C 255.089844 190.113281 255.523438 189.648438 255.980469 189.207031 C 256.4375 188.765625 256.914062 188.34375 257.414062 187.949219 C 257.910156 187.554688 258.425781 187.183594 258.960938 186.839844 C 259.496094 186.496094 260.046875 186.179688 260.613281 185.886719 C 261.175781 185.597656 261.757812 185.335938 262.347656 185.101562 C 262.9375 184.867188 263.539062 184.664062 264.152344 184.488281 C 264.765625 184.3125 265.382812 184.171875 266.007812 184.054688 C 266.632812 183.941406 267.261719 183.859375 267.898438 183.808594 C 268.53125 183.757812 269.164062 183.734375 269.800781 183.746094 C 270.4375 183.757812 271.070312 183.796875 271.703125 183.871094 C 272.335938 183.945312 272.960938 184.046875 273.582031 184.179688 C 274.203125 184.316406 274.820312 184.480469 275.425781 184.675781 C 276.03125 184.871094 276.625 185.09375 277.207031 185.347656 C 277.789062 185.597656 278.359375 185.878906 278.917969 186.1875 C 279.472656 186.5 280.011719 186.832031 280.535156 187.195312 C 281.058594 187.558594 281.5625 187.945312 282.046875 188.355469 C 282.53125 188.765625 282.996094 189.203125 283.4375 189.660156 C 283.878906 190.117188 284.296875 190.59375 284.691406 191.089844 C 285.089844 191.589844 285.457031 192.105469 285.800781 192.640625 C 286.148438 193.175781 286.464844 193.726562 286.753906 194.292969 C 287.046875 194.855469 287.308594 195.433594 287.542969 196.027344 C 287.773438 196.617188 287.980469 197.21875 288.152344 197.832031 Z M 288.152344 197.832031 "/><path style=" stroke:none;fill-rule:nonzero;fill:#004930;fill-opacity:1;" d="M 221.78125 204.964844 C 221.78125 204.964844 220.8125 233.832031 213.824219 251.359375 C 213.523438 252.113281 213.128906 252.816406 212.640625 253.46875 C 212.152344 254.117188 211.589844 254.691406 210.949219 255.195312 C 210.308594 255.695312 209.617188 256.101562 208.867188 256.417969 C 208.117188 256.738281 207.34375 256.949219 206.535156 257.058594 C 197.917969 258.230469 179.574219 259.8125 163.023438 255.261719 C 162.175781 255.023438 161.375 254.675781 160.628906 254.210938 C 159.882812 253.746094 159.214844 253.183594 158.628906 252.527344 C 158.042969 251.871094 157.5625 251.144531 157.1875 250.351562 C 156.808594 249.554688 156.554688 248.722656 156.417969 247.851562 C 154.449219 235.355469 150.425781 205.652344 155.519531 199.535156 C 166.164062 186.78125 221.78125 204.964844 221.78125 204.964844 Z M 221.78125 204.964844 "/><path style=" stroke:none;fill-rule:nonzero;fill:#f5f1e9;fill-opacity:1;" d="M 214.207031 238.054688 L 157.644531 235.078125 C 157.117188 235.050781 156.59375 234.972656 156.082031 234.84375 C 155.566406 234.710938 155.074219 234.53125 154.59375 234.304688 C 154.117188 234.078125 153.664062 233.804688 153.242188 233.488281 C 152.816406 233.167969 152.425781 232.816406 152.074219 232.421875 C 151.71875 232.027344 151.40625 231.601562 151.132812 231.148438 C 150.863281 230.691406 150.640625 230.214844 150.464844 229.714844 C 150.285156 229.214844 150.160156 228.703125 150.085938 228.179688 C 150.007812 227.65625 149.984375 227.128906 150.011719 226.601562 L 150.925781 209.253906 C 150.953125 208.726562 151.03125 208.203125 151.160156 207.691406 C 151.292969 207.175781 151.472656 206.683594 151.699219 206.203125 C 151.929688 205.726562 152.199219 205.273438 152.515625 204.851562 C 152.835938 204.425781 153.191406 204.035156 153.582031 203.683594 C 153.976562 203.328125 154.402344 203.015625 154.855469 202.746094 C 155.3125 202.472656 155.789062 202.25 156.289062 202.074219 C 156.789062 201.894531 157.300781 201.769531 157.824219 201.695312 C 158.347656 201.617188 158.875 201.59375 159.40625 201.621094 L 215.964844 204.597656 C 216.496094 204.625 217.015625 204.703125 217.53125 204.832031 C 218.042969 204.964844 218.539062 205.144531 219.015625 205.371094 C 219.496094 205.597656 219.945312 205.871094 220.371094 206.1875 C 220.796875 206.507812 221.183594 206.863281 221.539062 207.253906 C 221.894531 207.648438 222.207031 208.074219 222.476562 208.527344 C 222.746094 208.984375 222.972656 209.460938 223.148438 209.960938 C 223.324219 210.460938 223.453125 210.972656 223.527344 211.496094 C 223.601562 212.019531 223.628906 212.546875 223.597656 213.074219 L 222.6875 230.421875 C 222.660156 230.949219 222.582031 231.472656 222.449219 231.984375 C 222.320312 232.5 222.140625 232.992188 221.910156 233.472656 C 221.683594 233.949219 221.410156 234.402344 221.09375 234.824219 C 220.777344 235.25 220.421875 235.640625 220.027344 235.992188 C 219.632812 236.347656 219.210938 236.660156 218.753906 236.933594 C 218.300781 237.203125 217.820312 237.425781 217.324219 237.601562 C 216.824219 237.78125 216.3125 237.90625 215.789062 237.980469 C 215.261719 238.058594 214.734375 238.082031 214.207031 238.054688 Z M 214.207031 238.054688 "/><path style=" stroke:none;fill-rule:nonzero;fill:#004930;fill-opacity:1;" d="M 202.984375 71.925781 C 203.433594 72.375 203.859375 72.84375 204.261719 73.332031 C 204.660156 73.824219 205.039062 74.332031 205.390625 74.859375 C 205.742188 75.382812 206.066406 75.925781 206.367188 76.484375 C 206.664062 77.042969 206.933594 77.617188 207.175781 78.199219 C 207.417969 78.785156 207.632812 79.382812 207.816406 79.988281 C 208 80.59375 208.152344 81.207031 208.277344 81.828125 C 208.402344 82.449219 208.492188 83.074219 208.554688 83.703125 C 208.617188 84.335938 208.648438 84.96875 208.648438 85.601562 C 208.648438 86.234375 208.617188 86.863281 208.554688 87.496094 C 208.492188 88.125 208.402344 88.75 208.277344 89.371094 C 208.152344 89.992188 208 90.605469 207.816406 91.214844 C 207.632812 91.820312 207.417969 92.414062 207.175781 93 C 206.933594 93.585938 206.664062 94.15625 206.367188 94.714844 C 206.066406 95.273438 205.742188 95.816406 205.390625 96.34375 C 205.039062 96.871094 204.660156 97.378906 204.261719 97.867188 C 203.859375 98.355469 203.433594 98.824219 202.984375 99.273438 C 202.539062 99.71875 202.070312 100.144531 201.578125 100.546875 C 201.089844 100.949219 200.582031 101.324219 200.054688 101.675781 C 199.527344 102.03125 198.988281 102.355469 198.429688 102.652344 C 197.871094 102.953125 197.296875 103.222656 196.710938 103.464844 C 196.128906 103.707031 195.53125 103.917969 194.925781 104.105469 C 194.320312 104.289062 193.707031 104.441406 193.085938 104.566406 C 192.464844 104.6875 191.839844 104.78125 191.207031 104.84375 C 190.578125 104.90625 189.945312 104.9375 189.3125 104.9375 C 188.679688 104.9375 188.046875 104.90625 187.417969 104.84375 C 186.789062 104.78125 186.160156 104.6875 185.539062 104.566406 C 184.917969 104.441406 184.304688 104.289062 183.699219 104.105469 C 183.09375 103.917969 182.5 103.707031 181.914062 103.464844 C 181.328125 103.222656 180.757812 102.953125 180.199219 102.652344 C 179.640625 102.355469 179.097656 102.03125 178.570312 101.675781 C 178.042969 101.324219 177.535156 100.949219 177.046875 100.546875 C 176.554688 100.144531 176.085938 99.71875 175.640625 99.273438 C 175.191406 98.824219 174.765625 98.355469 174.367188 97.867188 C 173.964844 97.378906 173.585938 96.871094 173.234375 96.34375 C 172.882812 95.816406 172.558594 95.273438 172.261719 94.714844 C 171.960938 94.15625 171.691406 93.585938 171.449219 93 C 171.207031 92.414062 170.992188 91.820312 170.808594 91.214844 C 170.625 90.605469 170.472656 89.992188 170.347656 89.371094 C 170.222656 88.75 170.132812 88.125 170.070312 87.496094 C 170.007812 86.863281 169.976562 86.234375 169.976562 85.601562 C 169.976562 84.964844 170.007812 84.335938 170.070312 83.703125 C 170.132812 83.074219 170.222656 82.449219 170.347656 81.828125 C 170.472656 81.207031 170.625 80.59375 170.808594 79.988281 C 170.992188 79.382812 171.207031 78.785156 171.449219 78.199219 C 171.691406 77.617188 171.960938 77.042969 172.261719 76.484375 C 172.558594 75.925781 172.882812 75.382812 173.234375 74.859375 C 173.585938 74.332031 173.964844 73.824219 174.367188 73.332031 C 174.765625 72.84375 175.191406 72.375 175.640625 71.925781 C 176.085938 71.480469 176.554688 71.054688 177.046875 70.652344 C 177.535156 70.25 178.042969 69.875 178.570312 69.523438 C 179.097656 69.171875 179.640625 68.84375 180.199219 68.546875 C 180.757812 68.25 181.328125 67.976562 181.914062 67.734375 C 182.5 67.492188 183.09375 67.28125 183.699219 67.097656 C 184.304688 66.914062 184.917969 66.757812 185.539062 66.636719 C 186.160156 66.511719 186.789062 66.417969 187.417969 66.355469 C 188.046875 66.292969 188.679688 66.265625 189.3125 66.265625 C 189.945312 66.265625 190.578125 66.292969 191.207031 66.355469 C 191.839844 66.417969 192.464844 66.511719 193.085938 66.636719 C 193.707031 66.757812 194.320312 66.914062 194.925781 67.097656 C 195.53125 67.28125 196.128906 67.492188 196.710938 67.734375 C 197.296875 67.976562 197.871094 68.25 198.429688 68.546875 C 198.988281 68.84375 199.527344 69.171875 200.054688 69.523438 C 200.582031 69.875 201.089844 70.25 201.578125 70.652344 C 202.070312 71.054688 202.539062 71.480469 202.984375 71.925781 Z M 202.984375 71.925781 "/><path style=" stroke:none;fill-rule:nonzero;fill:#004930;fill-opacity:1;" d="M 260.128906 180.464844 L 280.707031 178.132812 C 281.121094 178.085938 281.527344 178 281.929688 177.878906 C 282.328125 177.757812 282.714844 177.597656 283.085938 177.40625 C 283.457031 177.214844 283.808594 176.988281 284.140625 176.734375 C 284.46875 176.476562 284.773438 176.191406 285.050781 175.878906 C 285.328125 175.566406 285.578125 175.230469 285.792969 174.871094 C 286.007812 174.515625 286.191406 174.140625 286.339844 173.746094 C 286.484375 173.355469 286.597656 172.953125 286.671875 172.542969 C 286.742188 172.128906 286.78125 171.714844 286.777344 171.296875 L 286.660156 148.242188 C 286.65625 147.460938 286.519531 146.703125 286.257812 145.964844 C 285.992188 145.230469 285.613281 144.558594 285.121094 143.953125 C 284.628906 143.347656 284.046875 142.839844 283.378906 142.433594 C 282.710938 142.027344 281.996094 141.742188 281.230469 141.582031 L 259.902344 137.101562 Z M 260.128906 180.464844 "/><path style=" stroke:none;fill-rule:nonzero;fill:#004930;fill-opacity:1;" d="M 122.664062 181.171875 L 102.066406 179.070312 C 101.648438 179.027344 101.238281 178.949219 100.835938 178.832031 C 100.433594 178.710938 100.046875 178.558594 99.671875 178.367188 C 99.296875 178.179688 98.945312 177.957031 98.613281 177.703125 C 98.277344 177.449219 97.972656 177.164062 97.691406 176.855469 C 97.410156 176.542969 97.160156 176.210938 96.9375 175.851562 C 96.71875 175.496094 96.535156 175.121094 96.382812 174.730469 C 96.230469 174.339844 96.117188 173.9375 96.039062 173.527344 C 95.964844 173.113281 95.925781 172.699219 95.925781 172.277344 L 95.804688 149.21875 C 95.800781 148.4375 95.925781 147.679688 96.183594 146.941406 C 96.4375 146.203125 96.808594 145.53125 97.296875 144.917969 C 97.785156 144.308594 98.359375 143.796875 99.019531 143.382812 C 99.683594 142.96875 100.394531 142.675781 101.15625 142.503906 L 122.4375 137.789062 Z M 122.664062 181.171875 "/><path style=" stroke:none;fill-rule:nonzero;fill:#004930;fill-opacity:1;" d="M 108.082031 162.644531 C 108.296875 205.035156 145.628906 219.75 191.585938 219.515625 C 237.546875 219.28125 274.726562 204.179688 274.507812 161.789062 C 274.285156 119.398438 236.828125 78.269531 190.871094 78.503906 C 144.910156 78.742188 107.867188 120.253906 108.082031 162.644531 Z M 108.082031 162.644531 "/><path style=" stroke:none;fill-rule:nonzero;fill:#f5f1e9;fill-opacity:1;" d="M 126.613281 163.1875 C 126.785156 196.144531 155.78125 202.023438 191.503906 201.839844 C 227.230469 201.65625 256.160156 195.492188 255.992188 162.539062 C 255.828125 129.582031 226.695312 97.621094 190.972656 97.796875 C 155.246094 97.972656 126.445312 130.25 126.613281 163.1875 Z M 126.613281 163.1875 "/><path style=" stroke:none;fill-rule:nonzero;fill:#004930;fill-opacity:1;" d="M 157.839844 151.9375 L 156.882812 149.832031 C 164.253906 146.492188 172.207031 146.664062 176.023438 147.007812 C 171.191406 139.472656 161.707031 138.945312 161.605469 138.941406 L 161.707031 136.632812 C 162.214844 136.65625 174.238281 137.292969 179.160156 147.949219 C 179.359375 148.375 179.316406 148.773438 179.03125 149.144531 C 178.746094 149.515625 178.371094 149.660156 177.910156 149.578125 C 177.8125 149.554688 167.132812 147.714844 157.839844 151.9375 Z M 157.839844 151.9375 "/><path style=" stroke:none;fill-rule:nonzero;fill:#004930;fill-opacity:1;" d="M 224.222656 151.9375 C 214.933594 147.726562 204.25 149.554688 204.140625 149.570312 C 203.679688 149.652344 203.308594 149.507812 203.023438 149.136719 C 202.738281 148.765625 202.695312 148.367188 202.890625 147.941406 C 207.8125 137.285156 219.835938 136.648438 220.347656 136.625 L 220.445312 138.933594 L 220.394531 137.78125 L 220.449219 138.933594 C 220.347656 138.933594 210.859375 139.460938 206.03125 147 C 209.855469 146.65625 217.804688 146.484375 225.171875 149.824219 Z M 224.222656 151.9375 "/><path style=" stroke:none;fill-rule:nonzero;fill:#004930;fill-opacity:1;" d="M 186.515625 157.046875 L 198.898438 157.046875 C 199.210938 157.046875 199.515625 157.105469 199.808594 157.222656 C 200.101562 157.339844 200.359375 157.507812 200.589844 157.726562 C 200.816406 157.941406 200.996094 158.195312 201.125 158.484375 C 201.253906 158.769531 201.328125 159.070312 201.339844 159.386719 C 201.566406 165.0625 201.257812 179.125 192.722656 179.125 C 184.1875 179.125 183.882812 165.0625 184.105469 159.386719 C 184.121094 159.074219 184.191406 158.773438 184.316406 158.488281 C 184.445312 158.207031 184.621094 157.953125 184.847656 157.738281 C 185.070312 157.519531 185.328125 157.351562 185.613281 157.230469 C 185.902344 157.113281 186.203125 157.050781 186.515625 157.046875 Z M 186.515625 157.046875 "/></g></svg>