<svg xmlns="http://www.w3.org/2000/svg" xmlns:xlink="http://www.w3.org/1999/xlink" width="650" zoomAndPan="magnify" viewBox="0 0 487.5 149.999998" height="200" preserveAspectRatio="xMidYMid meet" version="1.0"><defs><g/><clipPath id="76f3c21e24"><path d="M 1 0.078125 L 334 0.078125 L 334 108 L 1 108 Z M 1 0.078125 " clip-rule="nonzero"/></clipPath><clipPath id="660c198a69"><path d="M 294 18 L 332.976562 18 L 332.976562 86 L 294 86 Z M 294 18 " clip-rule="nonzero"/></clipPath><clipPath id="72d30bc996"><rect x="0" width="333" y="0" height="108"/></clipPath><clipPath id="3bb7a370e6"><path d="M 359 45 L 372 45 L 372 59 L 359 59 Z M 359 45 " clip-rule="nonzero"/></clipPath><clipPath id="24ce6f5403"><path d="M 330.351562 12.980469 L 404.425781 16.871094 L 400.53125 90.945312 L 326.460938 87.050781 Z M 330.351562 12.980469 " clip-rule="nonzero"/></clipPath><clipPath id="9e544edcf6"><path d="M 330.351562 12.980469 L 404.425781 16.871094 L 400.53125 90.945312 L 326.460938 87.050781 Z M 330.351562 12.980469 " clip-rule="nonzero"/></clipPath><clipPath id="7a9697d31b"><path d="M 328 14 L 403 14 L 403 90 L 328 90 Z M 328 14 " clip-rule="nonzero"/></clipPath><clipPath id="f2af95e3fd"><path d="M 330.351562 12.980469 L 404.425781 16.871094 L 400.53125 90.945312 L 326.460938 87.050781 Z M 330.351562 12.980469 " clip-rule="nonzero"/></clipPath><clipPath id="8415bcdb63"><path d="M 330.351562 12.980469 L 404.425781 16.871094 L 400.53125 90.945312 L 326.460938 87.050781 Z M 330.351562 12.980469 " clip-rule="nonzero"/></clipPath><clipPath id="dbd4aca9d5"><path d="M 403 0.078125 L 453 0.078125 L 453 107 L 403 107 Z M 403 0.078125 " clip-rule="nonzero"/></clipPath><clipPath id="7a129f9cbe"><rect x="0" width="50" y="0" height="107"/></clipPath><clipPath id="b881c0f2d7"><path d="M 450 0.078125 L 487 0.078125 L 487 95 L 450 95 Z M 450 0.078125 " clip-rule="nonzero"/></clipPath><clipPath id="28cfb8432e"><rect x="0" width="37" y="0" height="95"/></clipPath></defs><g clip-path="url(#76f3c21e24)"><g transform="matrix(1, 0, 0, 1, 1, -0.000000000000014114)"><g clip-path="url(#72d30bc996)"><g fill="#005437" fill-opacity="1"><g transform="translate(2.692455, 85.565607)"><g><path d="M 15.671875 1.125 C 12.140625 1.125 9.128906 0.441406 6.640625 -0.921875 C 4.148438 -2.296875 2.269531 -4.164062 1 -6.53125 C -0.257812 -8.894531 -0.890625 -11.546875 -0.890625 -14.484375 C -0.890625 -15.222656 -0.851562 -15.988281 -0.78125 -16.78125 C -0.707031 -17.582031 -0.570312 -18.382812 -0.375 -19.1875 L 5.59375 -47.84375 C 6.195312 -50.6875 7.28125 -53.347656 8.84375 -55.828125 C 10.414062 -58.316406 12.332031 -60.492188 14.59375 -62.359375 C 16.851562 -64.234375 19.328125 -65.691406 22.015625 -66.734375 C 24.703125 -67.773438 27.46875 -68.296875 30.3125 -68.296875 C 33.539062 -68.296875 36.375 -67.585938 38.8125 -66.171875 C 41.25 -64.753906 43.148438 -62.828125 44.515625 -60.390625 C 45.890625 -57.953125 46.578125 -55.140625 46.578125 -51.953125 C 46.578125 -50.660156 46.425781 -49.289062 46.125 -47.84375 L 45.09375 -42.546875 L 32.03125 -42.546875 L 33.4375 -49.484375 C 33.539062 -49.984375 33.59375 -50.484375 33.59375 -50.984375 C 33.59375 -52.578125 33.082031 -53.894531 32.0625 -54.9375 C 31.039062 -55.988281 29.632812 -56.515625 27.84375 -56.515625 C 25.707031 -56.515625 23.828125 -55.753906 22.203125 -54.234375 C 20.585938 -52.710938 19.582031 -51.007812 19.1875 -49.125 L 12.546875 -17.390625 C 12.492188 -17.191406 12.453125 -16.953125 12.421875 -16.671875 C 12.398438 -16.398438 12.390625 -16.117188 12.390625 -15.828125 C 12.390625 -14.335938 12.921875 -13.054688 13.984375 -11.984375 C 15.054688 -10.910156 16.441406 -10.375 18.140625 -10.375 C 19.234375 -10.375 20.453125 -10.5625 21.796875 -10.9375 C 23.140625 -11.3125 24.429688 -11.921875 25.671875 -12.765625 L 28.140625 -24.640625 L 19.78125 -24.640625 L 22.25 -36.203125 L 43.671875 -36.203125 L 38.078125 -9.484375 C 38.023438 -9.179688 37.507812 -8.484375 36.53125 -7.390625 C 35.5625 -6.296875 34.144531 -5.085938 32.28125 -3.765625 C 30.414062 -2.453125 28.101562 -1.304688 25.34375 -0.328125 C 22.582031 0.640625 19.359375 1.125 15.671875 1.125 Z M 15.671875 1.125 "/></g></g></g><g fill="#005437" fill-opacity="1"><g transform="translate(44.706805, 85.565607)"><g><path d="M -3.4375 0 L 10.90625 -67.1875 L 28.890625 -67.1875 C 31.921875 -67.1875 34.59375 -66.535156 36.90625 -65.234375 C 39.226562 -63.941406 41.046875 -62.175781 42.359375 -59.9375 C 43.679688 -57.695312 44.34375 -55.160156 44.34375 -52.328125 C 44.34375 -49.335938 43.796875 -46.550781 42.703125 -43.96875 C 41.609375 -41.382812 40.113281 -39.070312 38.21875 -37.03125 C 36.332031 -34.988281 34.164062 -33.320312 31.71875 -32.03125 L 39.109375 0 L 25.3125 0 L 18.8125 -29.265625 L 15.75 -29.265625 L 9.484375 0 Z M 21.5 -40.453125 C 23.238281 -40.453125 24.816406 -40.875 26.234375 -41.71875 C 27.648438 -42.570312 28.796875 -43.71875 29.671875 -45.15625 C 30.546875 -46.601562 30.984375 -48.195312 30.984375 -49.9375 C 30.984375 -51.675781 30.394531 -53.117188 29.21875 -54.265625 C 28.050781 -55.410156 26.570312 -55.984375 24.78125 -55.984375 L 21.421875 -55.984375 L 18.140625 -40.453125 Z M 21.5 -40.453125 "/></g></g></g><g fill="#005437" fill-opacity="1"><g transform="translate(85.377407, 85.565607)"><g><path d="M 37.625 -17.6875 C 37.070312 -15.15625 36.070312 -12.753906 34.625 -10.484375 C 33.1875 -8.222656 31.4375 -6.21875 29.375 -4.46875 C 27.3125 -2.726562 25.046875 -1.359375 22.578125 -0.359375 C 20.117188 0.628906 17.59375 1.125 15 1.125 C 12.0625 1.125 9.445312 0.476562 7.15625 -0.8125 C 4.875 -2.113281 3.097656 -3.882812 1.828125 -6.125 C 0.554688 -8.363281 -0.078125 -10.898438 -0.078125 -13.734375 C -0.078125 -15.023438 0.0703125 -16.34375 0.375 -17.6875 L 10.90625 -67.1875 L 23.96875 -67.1875 L 13.140625 -16.125 C 13.085938 -15.925781 13.046875 -15.726562 13.015625 -15.53125 C 12.992188 -15.332031 12.984375 -15.109375 12.984375 -14.859375 C 12.984375 -13.515625 13.394531 -12.441406 14.21875 -11.640625 C 15.039062 -10.847656 16.125 -10.453125 17.46875 -10.453125 C 19.007812 -10.453125 20.453125 -11.007812 21.796875 -12.125 C 23.140625 -13.25 23.984375 -14.582031 24.328125 -16.125 L 35.15625 -67.1875 L 48.140625 -67.1875 Z M 20.75 -70.921875 C 19.207031 -70.921875 17.960938 -71.390625 17.015625 -72.328125 C 16.066406 -73.273438 15.59375 -74.445312 15.59375 -75.84375 C 15.59375 -77.1875 15.96875 -78.429688 16.71875 -79.578125 C 17.46875 -80.722656 18.4375 -81.65625 19.625 -82.375 C 20.820312 -83.09375 22.09375 -83.453125 23.4375 -83.453125 C 25.132812 -83.453125 26.390625 -82.929688 27.203125 -81.890625 C 28.023438 -80.847656 28.4375 -79.65625 28.4375 -78.3125 C 28.4375 -77.113281 28.078125 -75.953125 27.359375 -74.828125 C 26.640625 -73.710938 25.707031 -72.78125 24.5625 -72.03125 C 23.414062 -71.289062 22.144531 -70.921875 20.75 -70.921875 Z M 42.03125 -83.453125 C 43.71875 -83.453125 44.972656 -82.941406 45.796875 -81.921875 C 46.617188 -80.898438 47.03125 -79.695312 47.03125 -78.3125 C 47.03125 -77.113281 46.65625 -75.953125 45.90625 -74.828125 C 45.15625 -73.710938 44.207031 -72.78125 43.0625 -72.03125 C 41.925781 -71.289062 40.710938 -70.921875 39.421875 -70.921875 C 37.773438 -70.921875 36.503906 -71.40625 35.609375 -72.375 C 34.710938 -73.34375 34.265625 -74.523438 34.265625 -75.921875 C 34.265625 -77.265625 34.632812 -78.503906 35.375 -79.640625 C 36.125 -80.785156 37.097656 -81.707031 38.296875 -82.40625 C 39.492188 -83.101562 40.738281 -83.453125 42.03125 -83.453125 Z M 42.03125 -83.453125 "/></g></g></g><g fill="#005437" fill-opacity="1"><g transform="translate(125.973363, 85.565607)"><g><path d="M -3.4375 0 L 10.90625 -67.1875 L 28.0625 -67.1875 L 27.328125 -17.46875 L 37.921875 -67.1875 L 50.984375 -67.1875 L 36.65625 0 L 19.703125 0 L 20.078125 -50.390625 L 9.328125 0 Z M -3.4375 0 "/></g></g></g><g fill="#005437" fill-opacity="1"><g transform="translate(169.406117, 85.565607)"><g><path d="M 30.453125 -11.34375 L 28 0 L -3.4375 0 L 10.90625 -67.1875 L 42.328125 -67.1875 L 39.859375 -55.765625 L 21.421875 -55.765625 L 18.28125 -41.125 L 33.890625 -41.125 L 31.578125 -29.9375 L 15.96875 -29.9375 L 12.015625 -11.34375 Z M 30.453125 -11.34375 "/></g></g></g><g fill="#005437" fill-opacity="1"><g transform="translate(202.686105, 85.565607)"><g><path d="M -3.4375 0 L 10.90625 -67.1875 L 28.890625 -67.1875 C 31.921875 -67.1875 34.59375 -66.535156 36.90625 -65.234375 C 39.226562 -63.941406 41.046875 -62.175781 42.359375 -59.9375 C 43.679688 -57.695312 44.34375 -55.160156 44.34375 -52.328125 C 44.34375 -49.335938 43.796875 -46.550781 42.703125 -43.96875 C 41.609375 -41.382812 40.113281 -39.070312 38.21875 -37.03125 C 36.332031 -34.988281 34.164062 -33.320312 31.71875 -32.03125 L 39.109375 0 L 25.3125 0 L 18.8125 -29.265625 L 15.75 -29.265625 L 9.484375 0 Z M 21.5 -40.453125 C 23.238281 -40.453125 24.816406 -40.875 26.234375 -41.71875 C 27.648438 -42.570312 28.796875 -43.71875 29.671875 -45.15625 C 30.546875 -46.601562 30.984375 -48.195312 30.984375 -49.9375 C 30.984375 -51.675781 30.394531 -53.117188 29.21875 -54.265625 C 28.050781 -55.410156 26.570312 -55.984375 24.78125 -55.984375 L 21.421875 -55.984375 L 18.140625 -40.453125 Z M 21.5 -40.453125 "/></g></g></g><g fill="#005437" fill-opacity="1"><g transform="translate(243.356719, 85.565607)"><g><path d="M 29.5625 -19.5625 L 15.671875 -19.5625 L 8.0625 0 L -4.78125 0 L 23.8125 -67.1875 L 42.03125 -67.1875 L 42.03125 0 L 28.96875 0 Z M 29.9375 -30.75 L 30.53125 -56.28125 L 20.15625 -30.75 Z M 29.9375 -30.75 "/></g></g></g><g clip-path="url(#660c198a69)"><g fill="#005437" fill-opacity="1"><g transform="translate(289.327663, 85.565607)"><g><path d="M 40.53125 -55.6875 L 29.640625 -55.6875 L 17.765625 0 L 4.703125 0 L 16.578125 -55.6875 L 5.453125 -55.6875 L 7.90625 -67.1875 L 43 -67.1875 Z M 40.53125 -55.6875 "/></g></g></g></g></g></g></g><g clip-path="url(#3bb7a370e6)"><g clip-path="url(#24ce6f5403)"><g clip-path="url(#9e544edcf6)"><path fill="#008939" d="M 371.902344 52.308594 C 371.882812 52.726562 371.820312 53.136719 371.714844 53.542969 C 371.613281 53.953125 371.46875 54.34375 371.289062 54.722656 C 371.109375 55.101562 370.894531 55.457031 370.640625 55.792969 C 370.390625 56.128906 370.109375 56.4375 369.796875 56.71875 C 369.488281 57 369.148438 57.246094 368.789062 57.460938 C 368.429688 57.675781 368.050781 57.851562 367.65625 57.992188 C 367.261719 58.132812 366.855469 58.234375 366.441406 58.292969 C 366.027344 58.351562 365.609375 58.371094 365.191406 58.351562 C 364.769531 58.328125 364.359375 58.265625 363.953125 58.160156 C 363.546875 58.058594 363.152344 57.917969 362.773438 57.734375 C 362.394531 57.554688 362.039062 57.339844 361.703125 57.089844 C 361.367188 56.835938 361.058594 56.554688 360.777344 56.246094 C 360.496094 55.933594 360.25 55.597656 360.035156 55.238281 C 359.820312 54.875 359.644531 54.5 359.503906 54.101562 C 359.363281 53.707031 359.265625 53.300781 359.203125 52.886719 C 359.144531 52.472656 359.125 52.054688 359.148438 51.636719 C 359.167969 51.21875 359.230469 50.804688 359.335938 50.398438 C 359.4375 49.992188 359.578125 49.601562 359.761719 49.222656 C 359.941406 48.84375 360.15625 48.484375 360.40625 48.148438 C 360.660156 47.8125 360.941406 47.503906 361.253906 47.226562 C 361.5625 46.945312 361.898438 46.695312 362.261719 46.480469 C 362.621094 46.269531 363 46.089844 363.394531 45.949219 C 363.789062 45.8125 364.195312 45.710938 364.609375 45.652344 C 365.023438 45.589844 365.441406 45.570312 365.859375 45.59375 C 366.277344 45.617188 366.691406 45.679688 367.097656 45.78125 C 367.503906 45.882812 367.898438 46.027344 368.277344 46.207031 C 368.652344 46.386719 369.011719 46.605469 369.347656 46.855469 C 369.683594 47.105469 369.992188 47.386719 370.273438 47.699219 C 370.550781 48.011719 370.800781 48.347656 371.015625 48.707031 C 371.230469 49.066406 371.40625 49.445312 371.546875 49.839844 C 371.6875 50.234375 371.785156 50.640625 371.847656 51.054688 C 371.90625 51.472656 371.925781 51.886719 371.902344 52.308594 Z M 371.902344 52.308594 " fill-opacity="1" fill-rule="nonzero"/></g></g></g><g clip-path="url(#7a9697d31b)"><g clip-path="url(#f2af95e3fd)"><g clip-path="url(#8415bcdb63)"><path fill="#008939" d="M 401.355469 47.515625 L 392.527344 45.375 C 392.082031 43.542969 391.460938 41.777344 390.667969 40.105469 L 396.222656 32.832031 C 396.738281 32.160156 396.695312 31.105469 396.128906 30.476562 L 390.101562 23.78125 C 389.535156 23.152344 388.492188 23 387.769531 23.4375 L 379.953125 28.203125 C 378.328125 27.214844 376.582031 26.394531 374.753906 25.75 L 373.554688 16.796875 C 373.441406 15.957031 372.667969 15.238281 371.820312 15.195312 L 362.824219 14.722656 C 361.980469 14.679688 361.132812 15.308594 360.933594 16.132812 L 358.78125 25 C 356.972656 25.449219 355.222656 26.070312 353.566406 26.863281 L 346.386719 21.375 C 345.714844 20.859375 344.660156 20.902344 344.03125 21.472656 L 337.335938 27.496094 C 336.707031 28.066406 336.554688 29.109375 336.992188 29.832031 L 341.726562 37.59375 C 340.777344 39.160156 339.988281 40.832031 339.359375 42.582031 L 330.359375 43.785156 C 329.519531 43.898438 328.804688 44.671875 328.761719 45.519531 L 328.289062 54.515625 C 328.242188 55.363281 328.875 56.207031 329.695312 56.40625 L 338.515625 58.546875 C 338.964844 60.394531 339.589844 62.175781 340.386719 63.863281 L 334.929688 71.007812 C 334.414062 71.679688 334.457031 72.734375 335.023438 73.363281 L 341.050781 80.058594 C 341.617188 80.6875 342.660156 80.839844 343.382812 80.402344 L 351.058594 75.71875 C 352.605469 76.664062 354.261719 77.453125 355.996094 78.089844 L 357.203125 87.132812 C 357.320312 87.972656 358.09375 88.6875 358.941406 88.734375 L 367.933594 89.207031 C 368.78125 89.25 369.625 88.617188 369.828125 87.796875 L 371.957031 79.011719 C 373.824219 78.566406 375.625 77.945312 377.332031 77.144531 L 384.566406 82.671875 C 385.238281 83.1875 386.292969 83.144531 386.921875 82.578125 L 393.617188 76.554688 C 394.246094 75.988281 394.398438 74.941406 393.957031 74.21875 L 389.246094 66.492188 C 390.234375 64.878906 391.050781 63.152344 391.699219 61.339844 L 400.695312 60.140625 C 401.53125 60.023438 402.25 59.25 402.292969 58.402344 L 402.765625 49.410156 C 402.808594 48.5625 402.175781 47.714844 401.355469 47.515625 Z M 364.714844 67.410156 C 356.191406 66.960938 349.644531 59.6875 350.089844 51.160156 C 350.539062 42.636719 357.8125 36.089844 366.335938 36.535156 C 374.863281 36.984375 381.410156 44.261719 380.964844 52.78125 C 380.515625 61.308594 373.238281 67.855469 364.714844 67.410156 Z M 364.714844 67.410156 " fill-opacity="1" fill-rule="nonzero"/></g></g></g><g clip-path="url(#dbd4aca9d5)"><g transform="matrix(1, 0, 0, 1, 403, -0.000000000000014114)"><g clip-path="url(#7a129f9cbe)"><g fill="#005437" fill-opacity="1"><g transform="translate(4.644788, 85.117719)"><g><path d="M -3.4375 0 L 10.90625 -67.1875 L 28.890625 -67.1875 C 31.921875 -67.1875 34.59375 -66.535156 36.90625 -65.234375 C 39.226562 -63.941406 41.046875 -62.175781 42.359375 -59.9375 C 43.679688 -57.695312 44.34375 -55.160156 44.34375 -52.328125 C 44.34375 -49.335938 43.796875 -46.550781 42.703125 -43.96875 C 41.609375 -41.382812 40.113281 -39.070312 38.21875 -37.03125 C 36.332031 -34.988281 34.164062 -33.320312 31.71875 -32.03125 L 39.109375 0 L 25.3125 0 L 18.8125 -29.265625 L 15.75 -29.265625 L 9.484375 0 Z M 21.5 -40.453125 C 23.238281 -40.453125 24.816406 -40.875 26.234375 -41.71875 C 27.648438 -42.570312 28.796875 -43.71875 29.671875 -45.15625 C 30.546875 -46.601562 30.984375 -48.195312 30.984375 -49.9375 C 30.984375 -51.675781 30.394531 -53.117188 29.21875 -54.265625 C 28.050781 -55.410156 26.570312 -55.984375 24.78125 -55.984375 L 21.421875 -55.984375 L 18.140625 -40.453125 Z M 21.5 -40.453125 "/></g></g></g></g></g></g><g clip-path="url(#b881c0f2d7)"><g transform="matrix(1, 0, 0, 1, 450, -0.000000000000014114)"><g clip-path="url(#28cfb8432e)"><g fill="#008939" fill-opacity="1"><g transform="translate(11.084753, 73.04457)"><g><path d="M 25.078125 2.984375 L 23.140625 11.9375 L -9.703125 11.9375 L -7.765625 2.984375 Z M 25.078125 2.984375 "/></g></g></g></g></g></g><g fill="#005437" fill-opacity="1"><g transform="translate(169.902179, 137.804411)"><g><path d="M 8.15625 -33.984375 C 8.832031 -34.078125 9.578125 -34.15625 10.390625 -34.21875 C 11.203125 -34.289062 11.953125 -34.34375 12.640625 -34.375 C 13.335938 -34.40625 13.945312 -34.421875 14.46875 -34.421875 C 14.757812 -34.421875 15.171875 -34.425781 15.703125 -34.4375 C 16.234375 -34.457031 16.828125 -34.46875 17.484375 -34.46875 C 19.453125 -34.46875 21.242188 -34.21875 22.859375 -33.71875 C 24.484375 -33.21875 25.867188 -32.445312 27.015625 -31.40625 C 28.160156 -30.375 29.050781 -29.046875 29.6875 -27.421875 C 30.320312 -25.804688 30.640625 -23.882812 30.640625 -21.65625 C 30.640625 -20.226562 30.515625 -18.695312 30.265625 -17.0625 C 30.023438 -15.425781 29.613281 -13.78125 29.03125 -12.125 C 28.445312 -10.476562 27.644531 -8.894531 26.625 -7.375 C 25.601562 -5.851562 24.320312 -4.507812 22.78125 -3.34375 C 21.25 -2.1875 19.40625 -1.25 17.25 -0.53125 C 15.101562 0.175781 12.609375 0.53125 9.765625 0.53125 C 9.273438 0.53125 8.785156 0.519531 8.296875 0.5 C 7.816406 0.488281 7.476562 0.484375 7.28125 0.484375 C 6.632812 0.453125 5.914062 0.410156 5.125 0.359375 C 4.332031 0.316406 3.535156 0.269531 2.734375 0.21875 C 1.941406 0.164062 1.351562 0.109375 0.96875 0.046875 Z M 8.453125 -5.53125 C 8.578125 -5.5 8.773438 -5.472656 9.046875 -5.453125 C 9.328125 -5.441406 9.628906 -5.425781 9.953125 -5.40625 C 10.273438 -5.394531 10.582031 -5.390625 10.875 -5.390625 C 11.164062 -5.390625 11.390625 -5.390625 11.546875 -5.390625 C 13.816406 -5.390625 15.742188 -5.898438 17.328125 -6.921875 C 18.910156 -7.941406 20.195312 -9.21875 21.1875 -10.75 C 22.175781 -12.289062 22.890625 -13.957031 23.328125 -15.75 C 23.765625 -17.550781 23.984375 -19.226562 23.984375 -20.78125 C 23.984375 -23.363281 23.441406 -25.300781 22.359375 -26.59375 C 21.273438 -27.894531 19.46875 -28.546875 16.9375 -28.546875 C 16.289062 -28.546875 15.609375 -28.53125 14.890625 -28.5 C 14.179688 -28.46875 13.632812 -28.414062 13.25 -28.34375 Z M 8.453125 -5.53125 "/></g></g></g><g fill="#005437" fill-opacity="1"><g transform="translate(199.994567, 137.804411)"><g><path d="M 1.65625 -7.859375 C 1.65625 -10.421875 2.015625 -12.753906 2.734375 -14.859375 C 3.460938 -16.960938 4.429688 -18.757812 5.640625 -20.25 C 6.859375 -21.738281 8.269531 -22.894531 9.875 -23.71875 C 11.476562 -24.539062 13.15625 -24.953125 14.90625 -24.953125 C 16.457031 -24.953125 17.765625 -24.707031 18.828125 -24.21875 C 19.898438 -23.738281 20.765625 -23.09375 21.421875 -22.28125 C 22.085938 -21.46875 22.566406 -20.546875 22.859375 -19.515625 C 23.148438 -18.484375 23.296875 -17.414062 23.296875 -16.3125 C 23.296875 -13.789062 22.941406 -11.484375 22.234375 -9.390625 C 21.523438 -7.304688 20.570312 -5.519531 19.375 -4.03125 C 18.175781 -2.539062 16.78125 -1.382812 15.1875 -0.5625 C 13.601562 0.257812 11.9375 0.671875 10.1875 0.671875 C 8.664062 0.671875 7.367188 0.421875 6.296875 -0.078125 C 5.234375 -0.578125 4.351562 -1.226562 3.65625 -2.03125 C 2.96875 -2.84375 2.460938 -3.757812 2.140625 -4.78125 C 1.816406 -5.800781 1.65625 -6.828125 1.65625 -7.859375 Z M 7.8125 -8.6875 C 7.8125 -5.78125 8.863281 -4.328125 10.96875 -4.328125 C 11.75 -4.328125 12.507812 -4.664062 13.25 -5.34375 C 14 -6.019531 14.664062 -6.90625 15.25 -8 C 15.832031 -9.101562 16.289062 -10.347656 16.625 -11.734375 C 16.96875 -13.128906 17.140625 -14.523438 17.140625 -15.921875 C 17.140625 -17.210938 16.921875 -18.207031 16.484375 -18.90625 C 16.046875 -19.601562 15.226562 -19.953125 14.03125 -19.953125 C 13.25 -19.953125 12.484375 -19.628906 11.734375 -18.984375 C 10.992188 -18.335938 10.332031 -17.488281 9.75 -16.4375 C 9.175781 -15.382812 8.707031 -14.175781 8.34375 -12.8125 C 7.988281 -11.457031 7.8125 -10.082031 7.8125 -8.6875 Z M 7.8125 -8.6875 "/></g></g></g><g fill="#005437" fill-opacity="1"><g transform="translate(224.068477, 137.804411)"><g><path d="M 10.875 -10.046875 L 8.9375 -10.046875 L 6.84375 0 L 0.875 0 L 8.0625 -33.984375 L 14.03125 -33.984375 L 9.765625 -13.9375 L 11.546875 -14.5625 L 18.40625 -24.265625 L 25.046875 -24.265625 L 17.8125 -14.515625 L 14.90625 -12.671875 L 17.09375 -10.828125 L 20.78125 0 L 14.375 0 Z M 10.875 -10.046875 "/></g></g></g><g fill="#005437" fill-opacity="1"><g transform="translate(246.637773, 137.804411)"><g><path d="M 11.703125 -24.265625 L 8.546875 -9.265625 C 8.347656 -8.296875 8.25 -7.488281 8.25 -6.84375 C 8.25 -6.195312 8.378906 -5.695312 8.640625 -5.34375 C 8.898438 -4.988281 9.351562 -4.8125 10 -4.8125 C 10.550781 -4.8125 11.109375 -4.945312 11.671875 -5.21875 C 12.242188 -5.488281 12.785156 -5.84375 13.296875 -6.28125 C 13.816406 -6.71875 14.296875 -7.203125 14.734375 -7.734375 C 15.171875 -8.273438 15.535156 -8.804688 15.828125 -9.328125 L 18.9375 -24.265625 L 24.90625 -24.265625 L 21.84375 -9.703125 C 21.6875 -9.054688 21.550781 -8.296875 21.4375 -7.421875 C 21.320312 -6.546875 21.210938 -5.644531 21.109375 -4.71875 C 21.015625 -3.800781 20.953125 -2.921875 20.921875 -2.078125 C 20.890625 -1.242188 20.890625 -0.550781 20.921875 0 L 16.125 0 L 15.875 -4.375 L 15.6875 -4.375 C 15.226562 -3.757812 14.695312 -3.148438 14.09375 -2.546875 C 13.5 -1.953125 12.835938 -1.410156 12.109375 -0.921875 C 11.378906 -0.429688 10.585938 -0.046875 9.734375 0.234375 C 8.878906 0.523438 7.960938 0.671875 6.984375 0.671875 C 5.460938 0.671875 4.234375 0.289062 3.296875 -0.46875 C 2.359375 -1.226562 1.890625 -2.625 1.890625 -4.65625 C 1.890625 -5.851562 2.050781 -7.164062 2.375 -8.59375 L 5.734375 -24.265625 Z M 11.703125 -24.265625 "/></g></g></g><g fill="#005437" fill-opacity="1"><g transform="translate(271.488261, 137.804411)"><g><path d="M 13.734375 0 L 16.5 -13.203125 C 16.695312 -14.109375 16.851562 -14.910156 16.96875 -15.609375 C 17.082031 -16.304688 17.140625 -16.929688 17.140625 -17.484375 C 17.140625 -18.960938 16.570312 -19.703125 15.4375 -19.703125 C 14.882812 -19.703125 14.332031 -19.554688 13.78125 -19.265625 C 13.238281 -18.984375 12.726562 -18.613281 12.25 -18.15625 C 11.78125 -17.707031 11.34375 -17.210938 10.9375 -16.671875 C 10.539062 -16.140625 10.210938 -15.628906 9.953125 -15.140625 L 6.84375 0 L 0.875 0 L 6.015625 -24.265625 L 10.6875 -24.265625 L 10.390625 -20 L 10.578125 -20 C 11.066406 -20.519531 11.59375 -21.070312 12.15625 -21.65625 C 12.726562 -22.238281 13.367188 -22.769531 14.078125 -23.25 C 14.785156 -23.738281 15.578125 -24.144531 16.453125 -24.46875 C 17.328125 -24.789062 18.285156 -24.953125 19.328125 -24.953125 C 20.617188 -24.953125 21.59375 -24.484375 22.25 -23.546875 C 22.914062 -22.609375 23.21875 -21.363281 23.15625 -19.8125 C 23.644531 -20.425781 24.203125 -21.039062 24.828125 -21.65625 C 25.460938 -22.269531 26.144531 -22.816406 26.875 -23.296875 C 27.601562 -23.785156 28.378906 -24.179688 29.203125 -24.484375 C 30.023438 -24.796875 30.875 -24.953125 31.75 -24.953125 C 33.238281 -24.953125 34.378906 -24.601562 35.171875 -23.90625 C 35.960938 -23.207031 36.359375 -21.90625 36.359375 -20 C 36.359375 -18.601562 36.117188 -16.789062 35.640625 -14.5625 L 32.578125 0 L 26.609375 0 L 29.46875 -13.640625 C 29.625 -14.390625 29.75 -15.085938 29.84375 -15.734375 C 29.945312 -16.378906 30 -16.941406 30 -17.421875 C 30 -18.171875 29.859375 -18.738281 29.578125 -19.125 C 29.304688 -19.507812 28.847656 -19.703125 28.203125 -19.703125 C 27.679688 -19.703125 27.15625 -19.546875 26.625 -19.234375 C 26.09375 -18.929688 25.582031 -18.546875 25.09375 -18.078125 C 24.613281 -17.609375 24.171875 -17.097656 23.765625 -16.546875 C 23.359375 -16.003906 23.039062 -15.488281 22.8125 -15 L 19.703125 0 Z M 13.734375 0 "/></g></g></g><g fill="#005437" fill-opacity="1"><g transform="translate(308.715463, 137.804411)"><g><path d="M 19.515625 -2.328125 C 18.515625 -1.484375 17.21875 -0.769531 15.625 -0.1875 C 14.039062 0.382812 12.195312 0.671875 10.09375 0.671875 C 7.476562 0.671875 5.414062 -0.09375 3.90625 -1.625 C 2.40625 -3.164062 1.65625 -5.3125 1.65625 -8.0625 C 1.65625 -10.644531 2.054688 -12.976562 2.859375 -15.0625 C 3.671875 -17.15625 4.734375 -18.929688 6.046875 -20.390625 C 7.359375 -21.847656 8.835938 -22.972656 10.484375 -23.765625 C 12.140625 -24.554688 13.789062 -24.953125 15.4375 -24.953125 C 16.757812 -24.953125 17.898438 -24.78125 18.859375 -24.4375 C 19.816406 -24.101562 20.601562 -23.632812 21.21875 -23.03125 C 21.832031 -22.4375 22.285156 -21.75 22.578125 -20.96875 C 22.867188 -20.195312 23.015625 -19.375 23.015625 -18.5 C 23.015625 -17.164062 22.671875 -16 21.984375 -15 C 21.304688 -14 20.359375 -13.164062 19.140625 -12.5 C 17.929688 -11.832031 16.46875 -11.328125 14.75 -10.984375 C 13.039062 -10.648438 11.164062 -10.484375 9.125 -10.484375 C 8.863281 -10.484375 8.617188 -10.488281 8.390625 -10.5 C 8.171875 -10.519531 7.929688 -10.53125 7.671875 -10.53125 C 7.609375 -10.144531 7.554688 -9.796875 7.515625 -9.484375 C 7.484375 -9.179688 7.46875 -8.898438 7.46875 -8.640625 C 7.46875 -7.179688 7.847656 -6.097656 8.609375 -5.390625 C 9.378906 -4.679688 10.457031 -4.328125 11.84375 -4.328125 C 13.269531 -4.328125 14.546875 -4.535156 15.671875 -4.953125 C 16.804688 -5.367188 17.664062 -5.789062 18.25 -6.21875 Z M 8.546875 -14.328125 C 9.453125 -14.328125 10.414062 -14.359375 11.4375 -14.421875 C 12.457031 -14.484375 13.398438 -14.632812 14.265625 -14.875 C 15.140625 -15.125 15.867188 -15.484375 16.453125 -15.953125 C 17.035156 -16.421875 17.328125 -17.054688 17.328125 -17.859375 C 17.328125 -18.347656 17.148438 -18.84375 16.796875 -19.34375 C 16.441406 -19.84375 15.695312 -20.09375 14.5625 -20.09375 C 13.132812 -20.09375 11.894531 -19.539062 10.84375 -18.4375 C 9.789062 -17.34375 9.023438 -15.972656 8.546875 -14.328125 Z M 8.546875 -14.328125 "/></g></g></g><g fill="#005437" fill-opacity="1"><g transform="translate(331.333289, 137.804411)"><g><path d="M 14.515625 0 L 17.71875 -15.046875 C 17.914062 -15.953125 18.015625 -16.742188 18.015625 -17.421875 C 18.015625 -18.140625 17.867188 -18.695312 17.578125 -19.09375 C 17.285156 -19.5 16.75 -19.703125 15.96875 -19.703125 C 15.382812 -19.703125 14.800781 -19.554688 14.21875 -19.265625 C 13.632812 -18.984375 13.082031 -18.597656 12.5625 -18.109375 C 12.050781 -17.617188 11.566406 -17.070312 11.109375 -16.46875 C 10.660156 -15.875 10.273438 -15.269531 9.953125 -14.65625 L 6.84375 0 L 0.875 0 L 6.015625 -24.265625 L 10.53125 -24.265625 L 10.296875 -20 L 10.484375 -20 C 10.910156 -20.519531 11.40625 -21.070312 11.96875 -21.65625 C 12.53125 -22.238281 13.179688 -22.769531 13.921875 -23.25 C 14.671875 -23.738281 15.503906 -24.144531 16.421875 -24.46875 C 17.347656 -24.789062 18.394531 -24.953125 19.5625 -24.953125 C 21.019531 -24.953125 22.1875 -24.554688 23.0625 -23.765625 C 23.9375 -22.972656 24.375 -21.65625 24.375 -19.8125 C 24.375 -19.320312 24.347656 -18.800781 24.296875 -18.25 C 24.242188 -17.695312 24.140625 -17.097656 23.984375 -16.453125 L 20.484375 0 Z M 14.515625 0 "/></g></g></g><g fill="#005437" fill-opacity="1"><g transform="translate(356.620608, 137.804411)"><g><path d="M 3.109375 -24.265625 L 6.265625 -24.265625 L 7.234375 -28.84375 L 13.59375 -30.640625 L 12.234375 -24.265625 L 17.90625 -24.265625 L 16.796875 -19.265625 L 11.171875 -19.265625 L 8.78125 -8.296875 C 8.59375 -7.421875 8.5 -6.710938 8.5 -6.171875 C 8.5 -5.453125 8.660156 -4.960938 8.984375 -4.703125 C 9.304688 -4.453125 9.789062 -4.328125 10.4375 -4.328125 C 11.050781 -4.328125 11.609375 -4.390625 12.109375 -4.515625 C 12.609375 -4.640625 13.132812 -4.847656 13.6875 -5.140625 L 13.6875 -0.671875 C 13.332031 -0.484375 12.90625 -0.300781 12.40625 -0.125 C 11.90625 0.0507812 11.363281 0.195312 10.78125 0.3125 C 10.195312 0.425781 9.597656 0.515625 8.984375 0.578125 C 8.367188 0.640625 7.800781 0.671875 7.28125 0.671875 C 5.632812 0.671875 4.363281 0.289062 3.46875 -0.46875 C 2.582031 -1.226562 2.140625 -2.382812 2.140625 -3.9375 C 2.140625 -4.257812 2.160156 -4.597656 2.203125 -4.953125 C 2.253906 -5.304688 2.3125 -5.675781 2.375 -6.0625 L 5.1875 -19.265625 L 1.9375 -19.265625 Z M 3.109375 -24.265625 "/></g></g></g><g fill="#005437" fill-opacity="1"><g transform="translate(372.152162, 137.804411)"><g><path d="M 21.5625 -9.703125 C 21.300781 -8.472656 21.113281 -7.226562 21 -5.96875 C 20.882812 -4.707031 20.828125 -3.507812 20.828125 -2.375 C 20.828125 -1.925781 20.832031 -1.5 20.84375 -1.09375 C 20.863281 -0.6875 20.890625 -0.304688 20.921875 0.046875 L 16.5 0.046875 L 15.828125 -4.125 L 15.625 -4.125 C 15.269531 -3.539062 14.8125 -2.960938 14.25 -2.390625 C 13.6875 -1.828125 13.0625 -1.3125 12.375 -0.84375 C 11.695312 -0.375 10.976562 -0.00390625 10.21875 0.265625 C 9.457031 0.535156 8.671875 0.671875 7.859375 0.671875 C 5.722656 0.671875 4.144531 -0.0195312 3.125 -1.40625 C 2.113281 -2.800781 1.609375 -4.660156 1.609375 -6.984375 C 1.609375 -9.347656 1.90625 -11.613281 2.5 -13.78125 C 3.09375 -15.957031 4.019531 -17.867188 5.28125 -19.515625 C 6.550781 -21.160156 8.148438 -22.476562 10.078125 -23.46875 C 12.003906 -24.457031 14.289062 -24.953125 16.9375 -24.953125 C 18.070312 -24.953125 19.3125 -24.847656 20.65625 -24.640625 C 22 -24.429688 23.300781 -24.144531 24.5625 -23.78125 Z M 10.140625 -4.328125 C 10.722656 -4.328125 11.273438 -4.445312 11.796875 -4.6875 C 12.316406 -4.925781 12.796875 -5.238281 13.234375 -5.625 C 13.671875 -6.019531 14.054688 -6.441406 14.390625 -6.890625 C 14.734375 -7.347656 15.035156 -7.769531 15.296875 -8.15625 L 17.71875 -19.46875 C 17.363281 -19.625 16.953125 -19.742188 16.484375 -19.828125 C 16.015625 -19.910156 15.550781 -19.953125 15.09375 -19.953125 C 13.925781 -19.953125 12.890625 -19.601562 11.984375 -18.90625 C 11.078125 -18.207031 10.304688 -17.300781 9.671875 -16.1875 C 9.046875 -15.070312 8.570312 -13.8125 8.25 -12.40625 C 7.925781 -11 7.765625 -9.582031 7.765625 -8.15625 C 7.765625 -7.125 7.929688 -6.226562 8.265625 -5.46875 C 8.609375 -4.707031 9.234375 -4.328125 10.140625 -4.328125 Z M 10.140625 -4.328125 "/></g></g></g><g fill="#005437" fill-opacity="1"><g transform="translate(396.565843, 137.804411)"><g><path d="M 3.109375 -24.265625 L 6.265625 -24.265625 L 7.234375 -28.84375 L 13.59375 -30.640625 L 12.234375 -24.265625 L 17.90625 -24.265625 L 16.796875 -19.265625 L 11.171875 -19.265625 L 8.78125 -8.296875 C 8.59375 -7.421875 8.5 -6.710938 8.5 -6.171875 C 8.5 -5.453125 8.660156 -4.960938 8.984375 -4.703125 C 9.304688 -4.453125 9.789062 -4.328125 10.4375 -4.328125 C 11.050781 -4.328125 11.609375 -4.390625 12.109375 -4.515625 C 12.609375 -4.640625 13.132812 -4.847656 13.6875 -5.140625 L 13.6875 -0.671875 C 13.332031 -0.484375 12.90625 -0.300781 12.40625 -0.125 C 11.90625 0.0507812 11.363281 0.195312 10.78125 0.3125 C 10.195312 0.425781 9.597656 0.515625 8.984375 0.578125 C 8.367188 0.640625 7.800781 0.671875 7.28125 0.671875 C 5.632812 0.671875 4.363281 0.289062 3.46875 -0.46875 C 2.582031 -1.226562 2.140625 -2.382812 2.140625 -3.9375 C 2.140625 -4.257812 2.160156 -4.597656 2.203125 -4.953125 C 2.253906 -5.304688 2.3125 -5.675781 2.375 -6.0625 L 5.1875 -19.265625 L 1.9375 -19.265625 Z M 3.109375 -24.265625 "/></g></g></g><g fill="#005437" fill-opacity="1"><g transform="translate(412.097397, 137.804411)"><g><path d="M 6.453125 -24.265625 L 12.421875 -24.265625 L 7.28125 0 L 1.3125 0 Z M 7.375 -31.171875 C 7.375 -32.234375 7.722656 -33.054688 8.421875 -33.640625 C 9.117188 -34.222656 10 -34.515625 11.0625 -34.515625 C 12.101562 -34.515625 12.988281 -34.222656 13.71875 -33.640625 C 14.445312 -33.054688 14.8125 -32.234375 14.8125 -31.171875 C 14.8125 -30.128906 14.445312 -29.304688 13.71875 -28.703125 C 12.988281 -28.109375 12.101562 -27.8125 11.0625 -27.8125 C 10 -27.8125 9.117188 -28.109375 8.421875 -28.703125 C 7.722656 -29.304688 7.375 -30.128906 7.375 -31.171875 Z M 7.375 -31.171875 "/></g></g></g><g fill="#005437" fill-opacity="1"><g transform="translate(424.522641, 137.804411)"><g><path d="M 1.65625 -7.859375 C 1.65625 -10.421875 2.015625 -12.753906 2.734375 -14.859375 C 3.460938 -16.960938 4.429688 -18.757812 5.640625 -20.25 C 6.859375 -21.738281 8.269531 -22.894531 9.875 -23.71875 C 11.476562 -24.539062 13.15625 -24.953125 14.90625 -24.953125 C 16.457031 -24.953125 17.765625 -24.707031 18.828125 -24.21875 C 19.898438 -23.738281 20.765625 -23.09375 21.421875 -22.28125 C 22.085938 -21.46875 22.566406 -20.546875 22.859375 -19.515625 C 23.148438 -18.484375 23.296875 -17.414062 23.296875 -16.3125 C 23.296875 -13.789062 22.941406 -11.484375 22.234375 -9.390625 C 21.523438 -7.304688 20.570312 -5.519531 19.375 -4.03125 C 18.175781 -2.539062 16.78125 -1.382812 15.1875 -0.5625 C 13.601562 0.257812 11.9375 0.671875 10.1875 0.671875 C 8.664062 0.671875 7.367188 0.421875 6.296875 -0.078125 C 5.234375 -0.578125 4.351562 -1.226562 3.65625 -2.03125 C 2.96875 -2.84375 2.460938 -3.757812 2.140625 -4.78125 C 1.816406 -5.800781 1.65625 -6.828125 1.65625 -7.859375 Z M 7.8125 -8.6875 C 7.8125 -5.78125 8.863281 -4.328125 10.96875 -4.328125 C 11.75 -4.328125 12.507812 -4.664062 13.25 -5.34375 C 14 -6.019531 14.664062 -6.90625 15.25 -8 C 15.832031 -9.101562 16.289062 -10.347656 16.625 -11.734375 C 16.96875 -13.128906 17.140625 -14.523438 17.140625 -15.921875 C 17.140625 -17.210938 16.921875 -18.207031 16.484375 -18.90625 C 16.046875 -19.601562 15.226562 -19.953125 14.03125 -19.953125 C 13.25 -19.953125 12.484375 -19.628906 11.734375 -18.984375 C 10.992188 -18.335938 10.332031 -17.488281 9.75 -16.4375 C 9.175781 -15.382812 8.707031 -14.175781 8.34375 -12.8125 C 7.988281 -11.457031 7.8125 -10.082031 7.8125 -8.6875 Z M 7.8125 -8.6875 "/></g></g></g><g fill="#005437" fill-opacity="1"><g transform="translate(448.596551, 137.804411)"><g><path d="M 14.515625 0 L 17.71875 -15.046875 C 17.914062 -15.953125 18.015625 -16.742188 18.015625 -17.421875 C 18.015625 -18.140625 17.867188 -18.695312 17.578125 -19.09375 C 17.285156 -19.5 16.75 -19.703125 15.96875 -19.703125 C 15.382812 -19.703125 14.800781 -19.554688 14.21875 -19.265625 C 13.632812 -18.984375 13.082031 -18.597656 12.5625 -18.109375 C 12.050781 -17.617188 11.566406 -17.070312 11.109375 -16.46875 C 10.660156 -15.875 10.273438 -15.269531 9.953125 -14.65625 L 6.84375 0 L 0.875 0 L 6.015625 -24.265625 L 10.53125 -24.265625 L 10.296875 -20 L 10.484375 -20 C 10.910156 -20.519531 11.40625 -21.070312 11.96875 -21.65625 C 12.53125 -22.238281 13.179688 -22.769531 13.921875 -23.25 C 14.671875 -23.738281 15.503906 -24.144531 16.421875 -24.46875 C 17.347656 -24.789062 18.394531 -24.953125 19.5625 -24.953125 C 21.019531 -24.953125 22.1875 -24.554688 23.0625 -23.765625 C 23.9375 -22.972656 24.375 -21.65625 24.375 -19.8125 C 24.375 -19.320312 24.347656 -18.800781 24.296875 -18.25 C 24.242188 -17.695312 24.140625 -17.097656 23.984375 -16.453125 L 20.484375 0 Z M 14.515625 0 "/></g></g></g></svg>