<svg xmlns="http://www.w3.org/2000/svg" xmlns:xlink="http://www.w3.org/1999/xlink" width="500" zoomAndPan="magnify" viewBox="0 0 375 374.999991" height="500" preserveAspectRatio="xMidYMid meet" version="1.2"><defs><filter x="0%" y="0%" width="100%" filterUnits="objectBoundingBox" id="52ecb31950" height="100%"><feColorMatrix values="0 0 0 0 1 0 0 0 0 1 0 0 0 0 1 0 0 0 1 0" type="matrix" in="SourceGraphic"/></filter><clipPath id="2420fdc4d6"><path d="M 0.78125 0.320312 L 282.03125 0.320312 L 282.03125 281.570312 L 0.78125 281.570312 Z M 0.78125 0.320312 "/></clipPath><clipPath id="a5c3b6ae2f"><rect x="0" width="283" y="0" height="282"/></clipPath></defs><g id="5d329a3dcb"><g mask="url(#683ea4532e)" transform="matrix(1,0,0,1,46,39)"><g clip-path="url(#a5c3b6ae2f)"><g clip-rule="nonzero" clip-path="url(#2420fdc4d6)"><path style=" stroke:none;fill-rule:nonzero;fill:#547f55;fill-opacity:1;" d="M 141.40625 202.238281 C 107.554688 202.238281 80.117188 174.796875 80.117188 140.945312 C 80.117188 107.097656 107.554688 79.65625 141.40625 79.65625 C 175.257812 79.65625 202.695312 107.097656 202.695312 140.945312 C 202.695312 174.796875 175.257812 202.238281 141.40625 202.238281 Z M 282.039062 110.710938 C 278.335938 93.414062 271.523438 77.265625 262.214844 62.886719 L 232.667969 71.945312 L 210.40625 49.683594 L 219.464844 20.140625 C 205.085938 10.828125 188.941406 4.015625 171.640625 0.316406 L 157.144531 27.621094 L 125.664062 27.621094 L 111.171875 0.316406 C 93.871094 4.015625 77.726562 10.828125 63.347656 20.140625 L 72.40625 49.683594 L 50.144531 71.945312 L 20.597656 62.886719 C 11.289062 77.265625 4.472656 93.414062 0.773438 110.710938 L 28.082031 125.207031 L 28.082031 156.6875 L 0.773438 171.179688 C 4.472656 188.480469 11.289062 204.625 20.597656 219.007812 L 50.144531 209.949219 L 72.40625 232.210938 L 63.347656 261.753906 C 77.726562 271.066406 93.871094 277.878906 111.171875 281.578125 L 125.664062 254.273438 L 157.144531 254.273438 L 171.640625 281.578125 C 188.941406 277.878906 205.085938 271.066406 219.464844 261.753906 L 210.40625 232.210938 L 232.667969 209.949219 L 262.214844 219.007812 C 271.523438 204.625 278.335938 188.480469 282.039062 171.179688 L 254.730469 156.6875 L 254.730469 125.207031 L 282.039062 110.710938 "/></g></g><mask id="683ea4532e"><g filter="url(#52ecb31950)"><rect x="0" width="375" y="0" height="374.999991" style="fill:#000000;fill-opacity:0.15;stroke:none;"/></g></mask></g><path style=" stroke:none;fill-rule:nonzero;fill:#004930;fill-opacity:1;" d="M 284.445312 189.121094 C 283.371094 187.078125 281.117188 186.148438 279.402344 187.046875 L 272.476562 190.667969 C 270.765625 191.558594 270.253906 193.953125 271.320312 196.003906 C 272.394531 198.046875 274.652344 198.976562 276.367188 198.078125 L 279.832031 196.257812 L 283.289062 194.441406 C 285.003906 193.550781 285.519531 191.167969 284.445312 189.121094 Z M 284.445312 189.121094 "/><path style=" stroke:none;fill-rule:nonzero;fill:#004930;fill-opacity:1;" d="M 266.253906 207.851562 C 265.871094 207.523438 265.433594 207.324219 264.933594 207.253906 C 264.4375 207.183594 263.960938 207.253906 263.503906 207.460938 C 254.691406 211.464844 248.777344 209.5625 248.71875 209.542969 C 248.394531 209.410156 248.058594 209.347656 247.707031 209.355469 C 247.355469 209.363281 247.023438 209.4375 246.703125 209.578125 C 246.382812 209.722656 246.101562 209.921875 245.863281 210.179688 C 245.625 210.4375 245.449219 210.730469 245.328125 211.058594 C 245.210938 211.390625 245.164062 211.730469 245.183594 212.078125 C 245.203125 212.429688 245.292969 212.761719 245.445312 213.074219 C 245.601562 213.390625 245.8125 213.660156 246.082031 213.886719 C 246.347656 214.113281 246.648438 214.28125 246.980469 214.386719 C 248.757812 214.933594 250.570312 215.195312 252.429688 215.167969 C 256.636719 215.214844 261.203125 214.167969 265.644531 212.144531 C 265.953125 212.003906 266.222656 211.804688 266.457031 211.554688 C 266.6875 211.304688 266.863281 211.023438 266.984375 210.703125 C 267.101562 210.382812 267.15625 210.050781 267.144531 209.710938 C 267.132812 209.371094 267.054688 209.042969 266.914062 208.734375 C 266.757812 208.390625 266.539062 208.097656 266.253906 207.851562 Z M 266.253906 207.851562 "/><path style=" stroke:none;fill-rule:nonzero;fill:#005437;fill-opacity:1;" d="M 241.851562 198.847656 C 242.6875 198.949219 243.503906 199.136719 244.300781 199.402344 C 245.101562 199.667969 245.863281 200.011719 246.597656 200.425781 C 247.328125 200.84375 248.011719 201.328125 248.644531 201.878906 C 249.28125 202.429688 249.859375 203.039062 250.375 203.703125 C 250.890625 204.367188 251.335938 205.078125 251.714844 205.828125 C 252.089844 206.582031 252.390625 207.363281 252.609375 208.175781 C 252.832031 208.988281 252.976562 209.8125 253.035156 210.652344 C 253.09375 211.492188 253.070312 212.328125 252.964844 213.164062 C 252.859375 214 252.675781 214.816406 252.410156 215.613281 C 252.144531 216.414062 251.800781 217.179688 251.386719 217.910156 C 250.96875 218.640625 250.484375 219.324219 249.933594 219.960938 C 249.382812 220.597656 248.773438 221.171875 248.109375 221.6875 C 247.445312 222.203125 246.734375 222.648438 245.980469 223.027344 C 245.230469 223.402344 244.449219 223.703125 243.636719 223.925781 C 242.824219 224.148438 242 224.289062 241.160156 224.347656 C 240.320312 224.40625 239.480469 224.386719 238.648438 224.28125 C 237.8125 224.175781 236.996094 223.988281 236.195312 223.722656 C 235.398438 223.457031 234.632812 223.117188 233.902344 222.699219 C 233.171875 222.28125 232.488281 221.796875 231.851562 221.246094 C 231.214844 220.695312 230.640625 220.085938 230.125 219.421875 C 229.609375 218.757812 229.160156 218.046875 228.785156 217.296875 C 228.410156 216.542969 228.109375 215.761719 227.886719 214.949219 C 227.664062 214.136719 227.523438 213.3125 227.464844 212.472656 C 227.402344 211.632812 227.425781 210.796875 227.53125 209.960938 C 227.636719 209.125 227.824219 208.308594 228.089844 207.511719 C 228.355469 206.710938 228.695312 205.949219 229.113281 205.214844 C 229.53125 204.484375 230.015625 203.800781 230.566406 203.164062 C 231.117188 202.53125 231.726562 201.953125 232.390625 201.4375 C 233.054688 200.921875 233.761719 200.476562 234.515625 200.097656 C 235.269531 199.722656 236.050781 199.421875 236.863281 199.199219 C 237.675781 198.976562 238.5 198.835938 239.339844 198.777344 C 240.179688 198.71875 241.015625 198.742188 241.851562 198.847656 Z M 241.851562 198.847656 "/><path style=" stroke:none;fill-rule:nonzero;fill:#005437;fill-opacity:1;" d="M 291.988281 206.324219 C 292.039062 206.886719 292.0625 207.453125 292.058594 208.019531 C 292.058594 208.585938 292.023438 209.152344 291.964844 209.714844 C 291.90625 210.277344 291.820312 210.839844 291.707031 211.394531 C 291.59375 211.949219 291.449219 212.496094 291.28125 213.039062 C 291.113281 213.578125 290.921875 214.109375 290.699219 214.632812 C 290.480469 215.15625 290.234375 215.664062 289.964844 216.164062 C 289.695312 216.664062 289.402344 217.144531 289.082031 217.613281 C 288.765625 218.085938 288.425781 218.535156 288.0625 218.972656 C 287.699219 219.410156 287.316406 219.824219 286.914062 220.222656 C 286.511719 220.621094 286.089844 221 285.648438 221.355469 C 285.207031 221.710938 284.75 222.046875 284.277344 222.359375 C 283.804688 222.671875 283.316406 222.957031 282.816406 223.222656 C 282.3125 223.488281 281.800781 223.726562 281.277344 223.9375 C 280.75 224.152344 280.21875 224.339844 279.671875 224.5 C 279.128906 224.660156 278.578125 224.796875 278.023438 224.902344 C 277.46875 225.011719 276.90625 225.089844 276.34375 225.140625 C 275.777344 225.195312 275.210938 225.21875 274.644531 225.214844 C 274.078125 225.210938 273.511719 225.179688 272.949219 225.121094 C 272.386719 225.0625 271.828125 224.972656 271.273438 224.859375 C 270.714844 224.746094 270.167969 224.605469 269.625 224.4375 C 269.085938 224.269531 268.554688 224.074219 268.03125 223.855469 C 267.507812 223.632812 267 223.390625 266.5 223.117188 C 266.003906 222.847656 265.519531 222.554688 265.050781 222.238281 C 264.582031 221.917969 264.128906 221.578125 263.691406 221.214844 C 263.257812 220.855469 262.839844 220.472656 262.441406 220.066406 C 262.042969 219.664062 261.664062 219.242188 261.308594 218.800781 C 260.953125 218.363281 260.617188 217.90625 260.304688 217.433594 C 259.992188 216.957031 259.707031 216.472656 259.441406 215.96875 C 259.179688 215.46875 258.941406 214.953125 258.726562 214.429688 C 258.511719 213.90625 258.324219 213.371094 258.164062 212.828125 C 258.003906 212.285156 257.867188 211.734375 257.761719 211.175781 C 257.65625 210.621094 257.574219 210.058594 257.523438 209.496094 C 257.472656 208.929688 257.449219 208.367188 257.449219 207.800781 C 257.453125 207.230469 257.484375 206.667969 257.546875 206.101562 C 257.605469 205.539062 257.691406 204.980469 257.804688 204.425781 C 257.917969 203.871094 258.058594 203.320312 258.226562 202.78125 C 258.394531 202.238281 258.589844 201.707031 258.808594 201.183594 C 259.03125 200.664062 259.277344 200.152344 259.546875 199.65625 C 259.816406 199.15625 260.109375 198.671875 260.429688 198.203125 C 260.746094 197.734375 261.085938 197.28125 261.449219 196.847656 C 261.8125 196.410156 262.195312 195.992188 262.597656 195.59375 C 263 195.195312 263.421875 194.820312 263.863281 194.460938 C 264.304688 194.105469 264.761719 193.773438 265.234375 193.460938 C 265.707031 193.148438 266.195312 192.859375 266.695312 192.597656 C 267.195312 192.332031 267.710938 192.09375 268.234375 191.878906 C 268.761719 191.667969 269.292969 191.480469 269.835938 191.316406 C 270.382812 191.15625 270.929688 191.023438 271.488281 190.914062 C 272.042969 190.808594 272.605469 190.730469 273.167969 190.675781 C 273.734375 190.625 274.300781 190.601562 274.867188 190.605469 C 275.433594 190.609375 275.996094 190.640625 276.5625 190.699219 C 277.125 190.757812 277.683594 190.84375 278.238281 190.957031 C 278.792969 191.074219 279.34375 191.214844 279.882812 191.382812 C 280.425781 191.550781 280.957031 191.742188 281.480469 191.964844 C 282 192.183594 282.511719 192.429688 283.011719 192.699219 C 283.507812 192.96875 283.992188 193.265625 284.460938 193.582031 C 284.929688 193.898438 285.382812 194.242188 285.820312 194.601562 C 286.253906 194.964844 286.671875 195.347656 287.070312 195.75 C 287.46875 196.15625 287.84375 196.578125 288.203125 197.015625 C 288.558594 197.457031 288.894531 197.914062 289.207031 198.386719 C 289.515625 198.859375 289.804688 199.347656 290.070312 199.847656 C 290.332031 200.351562 290.570312 200.863281 290.785156 201.390625 C 291 201.914062 291.1875 202.449219 291.347656 202.992188 C 291.507812 203.535156 291.640625 204.085938 291.75 204.640625 C 291.855469 205.199219 291.9375 205.757812 291.988281 206.324219 Z M 291.988281 206.324219 "/><path style=" stroke:none;fill-rule:nonzero;fill:#004930;fill-opacity:1;" d="M 299.964844 204.972656 C 298.886719 202.925781 296.550781 202.035156 294.746094 202.988281 L 287.445312 206.824219 C 285.636719 207.773438 285.042969 210.195312 286.109375 212.242188 C 287.183594 214.289062 289.515625 215.171875 291.324219 214.226562 L 294.976562 212.304688 L 298.628906 210.386719 C 300.445312 209.441406 301.035156 207.011719 299.964844 204.972656 Z M 299.964844 204.972656 "/><path style=" stroke:none;fill-rule:nonzero;fill:#004930;fill-opacity:1;" d="M 296.320312 198.039062 C 295.246094 195.992188 292.910156 195.105469 291.105469 196.054688 L 283.800781 199.890625 C 281.996094 200.839844 281.40625 203.269531 282.46875 205.308594 C 283.539062 207.355469 285.875 208.246094 287.679688 207.292969 L 291.335938 205.375 L 294.988281 203.453125 C 296.800781 202.507812 297.382812 200.078125 296.320312 198.039062 Z M 296.320312 198.039062 "/><path style=" stroke:none;fill-rule:nonzero;fill:#004930;fill-opacity:1;" d="M 103.128906 256.65625 C 105.296875 257.445312 107.574219 256.613281 108.257812 254.800781 L 110.925781 247.449219 C 111.585938 245.632812 110.367188 243.523438 108.199219 242.730469 C 106.027344 241.9375 103.75 242.769531 103.070312 244.585938 L 101.734375 248.257812 L 100.402344 251.9375 C 99.734375 253.75 100.957031 255.863281 103.128906 256.65625 Z M 103.128906 256.65625 "/><path style=" stroke:none;fill-rule:nonzero;fill:#004930;fill-opacity:1;" d="M 104 230.5625 C 104.503906 230.550781 104.960938 230.402344 105.378906 230.121094 C 105.792969 229.839844 106.101562 229.464844 106.300781 229.003906 C 110.113281 220.109375 115.785156 217.542969 115.84375 217.523438 C 116.171875 217.398438 116.464844 217.21875 116.71875 216.980469 C 116.972656 216.738281 117.167969 216.457031 117.308594 216.136719 C 117.449219 215.816406 117.519531 215.480469 117.523438 215.132812 C 117.527344 214.78125 117.460938 214.445312 117.328125 214.121094 C 117.195312 213.796875 117.003906 213.515625 116.753906 213.269531 C 116.503906 213.023438 116.214844 212.835938 115.886719 212.710938 C 115.5625 212.582031 115.226562 212.523438 114.875 212.53125 C 114.523438 212.542969 114.191406 212.621094 113.875 212.765625 C 112.191406 213.554688 110.667969 214.582031 109.308594 215.851562 C 105.914062 218.988281 103.332031 222.695312 101.566406 226.96875 C 101.484375 227.167969 101.425781 227.371094 101.390625 227.585938 C 101.359375 227.800781 101.351562 228.011719 101.371094 228.226562 C 101.394531 228.441406 101.441406 228.652344 101.515625 228.855469 C 101.585938 229.058594 101.683594 229.246094 101.804688 229.425781 C 101.925781 229.605469 102.066406 229.765625 102.230469 229.910156 C 102.390625 230.050781 102.566406 230.171875 102.757812 230.269531 C 102.949219 230.371094 103.152344 230.445312 103.359375 230.492188 C 103.570312 230.539062 103.785156 230.5625 104 230.558594 Z M 104 230.5625 "/><path style=" stroke:none;fill-rule:nonzero;fill:#005437;fill-opacity:1;" d="M 131.503906 203.332031 C 131.964844 204.039062 132.351562 204.78125 132.664062 205.5625 C 132.976562 206.34375 133.210938 207.148438 133.363281 207.976562 C 133.519531 208.804688 133.59375 209.636719 133.582031 210.480469 C 133.574219 211.320312 133.480469 212.152344 133.308594 212.976562 C 133.132812 213.800781 132.878906 214.597656 132.550781 215.371094 C 132.21875 216.144531 131.816406 216.878906 131.339844 217.574219 C 130.863281 218.269531 130.324219 218.910156 129.722656 219.496094 C 129.121094 220.085938 128.464844 220.609375 127.761719 221.070312 C 127.054688 221.527344 126.3125 221.914062 125.53125 222.226562 C 124.75 222.539062 123.945312 222.773438 123.117188 222.929688 C 122.292969 223.082031 121.457031 223.15625 120.617188 223.144531 C 119.773438 223.136719 118.941406 223.042969 118.117188 222.871094 C 117.292969 222.695312 116.496094 222.445312 115.722656 222.113281 C 114.949219 221.78125 114.214844 221.378906 113.519531 220.902344 C 112.824219 220.425781 112.183594 219.886719 111.597656 219.285156 C 111.007812 218.683594 110.484375 218.03125 110.027344 217.324219 C 109.566406 216.621094 109.179688 215.875 108.867188 215.09375 C 108.554688 214.3125 108.320312 213.511719 108.164062 212.683594 C 108.011719 211.855469 107.9375 211.019531 107.949219 210.179688 C 107.957031 209.335938 108.050781 208.503906 108.222656 207.683594 C 108.398438 206.859375 108.652344 206.058594 108.980469 205.285156 C 109.3125 204.511719 109.714844 203.777344 110.191406 203.082031 C 110.667969 202.390625 111.207031 201.75 111.808594 201.160156 C 112.410156 200.570312 113.0625 200.046875 113.769531 199.589844 C 114.476562 199.128906 115.21875 198.742188 116 198.429688 C 116.78125 198.117188 117.585938 197.882812 118.410156 197.730469 C 119.238281 197.574219 120.074219 197.503906 120.914062 197.511719 C 121.757812 197.523438 122.589844 197.613281 123.414062 197.789062 C 124.238281 197.960938 125.035156 198.214844 125.808594 198.546875 C 126.582031 198.875 127.316406 199.28125 128.011719 199.753906 C 128.703125 200.230469 129.347656 200.769531 129.933594 201.371094 C 130.523438 201.972656 131.046875 202.628906 131.503906 203.332031 Z M 131.503906 203.332031 "/><path style=" stroke:none;fill-rule:nonzero;fill:#005437;fill-opacity:1;" d="M 112.355469 227.113281 C 112.652344 227.59375 112.929688 228.089844 113.179688 228.597656 C 113.429688 229.105469 113.65625 229.625 113.855469 230.15625 C 114.054688 230.6875 114.230469 231.226562 114.375 231.773438 C 114.523438 232.320312 114.640625 232.871094 114.734375 233.433594 C 114.828125 233.992188 114.890625 234.554688 114.929688 235.117188 C 114.96875 235.683594 114.976562 236.25 114.957031 236.816406 C 114.941406 237.382812 114.894531 237.949219 114.820312 238.507812 C 114.746094 239.070312 114.644531 239.628906 114.515625 240.179688 C 114.386719 240.734375 114.234375 241.277344 114.050781 241.8125 C 113.871094 242.351562 113.660156 242.878906 113.429688 243.394531 C 113.195312 243.910156 112.9375 244.414062 112.652344 244.902344 C 112.371094 245.394531 112.0625 245.871094 111.734375 246.332031 C 111.402344 246.792969 111.050781 247.238281 110.679688 247.664062 C 110.304688 248.089844 109.910156 248.496094 109.496094 248.882812 C 109.082031 249.269531 108.652344 249.636719 108.203125 249.984375 C 107.753906 250.328125 107.289062 250.648438 106.808594 250.949219 C 106.324219 251.25 105.832031 251.523438 105.324219 251.773438 C 104.816406 252.027344 104.296875 252.25 103.765625 252.453125 C 103.234375 252.652344 102.695312 252.824219 102.148438 252.972656 C 101.601562 253.117188 101.046875 253.238281 100.488281 253.332031 C 99.929688 253.421875 99.367188 253.488281 98.800781 253.527344 C 98.234375 253.5625 97.671875 253.574219 97.101562 253.554688 C 96.535156 253.535156 95.972656 253.488281 95.410156 253.417969 C 94.847656 253.34375 94.292969 253.242188 93.738281 253.113281 C 93.1875 252.984375 92.644531 252.828125 92.105469 252.648438 C 91.570312 252.464844 91.042969 252.257812 90.527344 252.023438 C 90.011719 251.789062 89.507812 251.53125 89.015625 251.25 C 88.523438 250.964844 88.050781 250.660156 87.589844 250.328125 C 87.128906 250 86.683594 249.648438 86.257812 249.273438 C 85.832031 248.898438 85.425781 248.507812 85.035156 248.09375 C 84.648438 247.679688 84.28125 247.25 83.9375 246.800781 C 83.59375 246.347656 83.269531 245.882812 82.96875 245.402344 C 82.671875 244.921875 82.394531 244.425781 82.144531 243.917969 C 81.894531 243.410156 81.667969 242.890625 81.46875 242.359375 C 81.269531 241.832031 81.09375 241.292969 80.949219 240.746094 C 80.800781 240.195312 80.683594 239.644531 80.589844 239.085938 C 80.496094 238.527344 80.433594 237.964844 80.394531 237.398438 C 80.355469 236.832031 80.347656 236.265625 80.367188 235.699219 C 80.382812 235.132812 80.429688 234.570312 80.503906 234.007812 C 80.578125 233.445312 80.679688 232.886719 80.808594 232.335938 C 80.9375 231.785156 81.089844 231.238281 81.273438 230.703125 C 81.453125 230.167969 81.664062 229.640625 81.894531 229.125 C 82.128906 228.605469 82.386719 228.101562 82.671875 227.613281 C 82.953125 227.121094 83.261719 226.644531 83.589844 226.183594 C 83.921875 225.722656 84.273438 225.28125 84.648438 224.855469 C 85.019531 224.425781 85.414062 224.019531 85.828125 223.632812 C 86.242188 223.246094 86.671875 222.878906 87.121094 222.535156 C 87.570312 222.1875 88.035156 221.867188 88.515625 221.566406 C 89 221.265625 89.492188 220.992188 90 220.742188 C 90.511719 220.492188 91.027344 220.265625 91.558594 220.066406 C 92.089844 219.863281 92.628906 219.691406 93.175781 219.542969 C 93.722656 219.398438 94.277344 219.277344 94.835938 219.1875 C 95.394531 219.09375 95.957031 219.027344 96.523438 218.992188 C 97.089844 218.953125 97.65625 218.945312 98.222656 218.960938 C 98.789062 218.980469 99.351562 219.027344 99.914062 219.101562 C 100.476562 219.175781 101.03125 219.273438 101.585938 219.402344 C 102.136719 219.53125 102.679688 219.6875 103.21875 219.871094 C 103.753906 220.050781 104.28125 220.257812 104.796875 220.492188 C 105.3125 220.726562 105.816406 220.984375 106.308594 221.269531 C 106.800781 221.550781 107.273438 221.859375 107.734375 222.1875 C 108.195312 222.515625 108.640625 222.867188 109.066406 223.242188 C 109.492188 223.617188 109.898438 224.007812 110.289062 224.421875 C 110.675781 224.835938 111.042969 225.269531 111.386719 225.71875 C 111.730469 226.167969 112.054688 226.632812 112.355469 227.113281 Z M 112.355469 227.113281 "/><path style=" stroke:none;fill-rule:nonzero;fill:#004930;fill-opacity:1;" d="M 80.988281 255.355469 C 83.15625 256.148438 85.480469 255.238281 86.179688 253.320312 L 89.007812 245.566406 C 89.707031 243.652344 88.515625 241.457031 86.339844 240.675781 C 84.171875 239.882812 81.847656 240.796875 81.148438 242.710938 L 79.734375 246.585938 L 78.324219 250.457031 C 77.625 252.371094 78.816406 254.566406 80.988281 255.355469 Z M 80.988281 255.355469 "/><path style=" stroke:none;fill-rule:nonzero;fill:#004930;fill-opacity:1;" d="M 88.355469 258.042969 C 90.519531 258.828125 92.84375 257.917969 93.542969 256 L 96.359375 248.25 C 97.058594 246.332031 95.867188 244.140625 93.691406 243.355469 C 91.523438 242.566406 89.199219 243.476562 88.5 245.394531 L 87.085938 249.273438 L 85.683594 253.136719 C 84.984375 255.054688 86.175781 257.25 88.355469 258.042969 Z M 88.355469 258.042969 "/><path style=" stroke:none;fill-rule:nonzero;fill:#004930;fill-opacity:1;" d="M 200.710938 244.875 C 200.410156 244.917969 200.117188 244.910156 199.820312 244.851562 C 199.484375 244.785156 199.175781 244.65625 198.890625 244.464844 C 198.609375 244.273438 198.371094 244.035156 198.183594 243.75 C 197.992188 243.464844 197.867188 243.15625 197.800781 242.820312 C 197.734375 242.484375 197.738281 242.148438 197.804688 241.8125 C 200.269531 229.707031 190.339844 222.28125 189.914062 221.96875 C 189.652344 221.765625 189.441406 221.515625 189.273438 221.226562 C 189.109375 220.941406 189 220.628906 188.957031 220.300781 C 188.910156 219.972656 188.925781 219.644531 189.007812 219.320312 C 189.085938 219 189.226562 218.703125 189.421875 218.433594 C 189.617188 218.164062 189.855469 217.941406 190.136719 217.761719 C 190.417969 217.585938 190.722656 217.46875 191.050781 217.410156 C 191.378906 217.351562 191.707031 217.355469 192.03125 217.421875 C 192.355469 217.492188 192.660156 217.617188 192.9375 217.800781 C 193.46875 218.1875 205.984375 227.429688 202.847656 242.835938 C 202.742188 243.367188 202.492188 243.820312 202.101562 244.191406 C 201.710938 244.566406 201.246094 244.792969 200.710938 244.875 Z M 200.710938 244.875 "/><path style=" stroke:none;fill-rule:nonzero;fill:#547f55;fill-opacity:1;" d="M 182.761719 272.019531 L 208.335938 278.691406 L 213.828125 257.5625 C 214.054688 256.703125 214.191406 255.832031 214.242188 254.945312 C 214.292969 254.058594 214.257812 253.175781 214.136719 252.296875 C 214.015625 251.414062 213.808594 250.554688 213.515625 249.71875 C 213.226562 248.878906 212.855469 248.078125 212.40625 247.3125 C 211.957031 246.546875 211.433594 245.832031 210.84375 245.167969 C 210.253906 244.503906 209.605469 243.90625 208.898438 243.371094 C 208.1875 242.835938 207.433594 242.375 206.636719 241.988281 C 205.835938 241.601562 205.007812 241.292969 204.148438 241.070312 L 191.65625 237.8125 C 191.183594 237.6875 190.703125 237.613281 190.21875 237.585938 C 189.730469 237.558594 189.25 237.574219 188.765625 237.644531 C 188.285156 237.710938 187.8125 237.824219 187.351562 237.984375 C 186.890625 238.144531 186.453125 238.347656 186.03125 238.59375 C 185.613281 238.839844 185.21875 239.125 184.855469 239.449219 C 184.492188 239.773438 184.164062 240.128906 183.871094 240.515625 C 183.578125 240.90625 183.324219 241.320312 183.109375 241.757812 C 182.898438 242.195312 182.730469 242.648438 182.609375 243.121094 L 177.445312 262.980469 C 177.324219 263.449219 177.246094 263.929688 177.21875 264.414062 C 177.191406 264.902344 177.210938 265.386719 177.277344 265.867188 C 177.347656 266.351562 177.460938 266.820312 177.621094 267.28125 C 177.78125 267.742188 177.984375 268.179688 178.230469 268.601562 C 178.476562 269.019531 178.761719 269.410156 179.085938 269.777344 C 179.410156 270.140625 179.765625 270.46875 180.15625 270.761719 C 180.542969 271.054688 180.957031 271.308594 181.394531 271.519531 C 181.832031 271.730469 182.289062 271.898438 182.761719 272.019531 Z M 182.761719 272.019531 "/><path style=" stroke:none;fill-rule:nonzero;fill:#547f55;fill-opacity:1;" d="M 208.457031 278.699219 L 187.953125 273.363281 C 188.082031 272.871094 188.257812 272.394531 188.476562 271.933594 C 188.699219 271.472656 188.964844 271.039062 189.273438 270.632812 C 189.582031 270.226562 189.925781 269.851562 190.308594 269.515625 C 190.6875 269.175781 191.097656 268.875 191.539062 268.617188 C 191.980469 268.359375 192.441406 268.144531 192.921875 267.976562 C 193.40625 267.808594 193.898438 267.691406 194.40625 267.621094 C 194.910156 267.550781 195.417969 267.53125 195.925781 267.558594 C 196.4375 267.589844 196.9375 267.667969 197.433594 267.796875 L 210.414062 271.171875 C 210.914062 271.304688 211.367188 271.523438 211.78125 271.835938 C 212.191406 272.144531 212.527344 272.523438 212.789062 272.96875 C 213.050781 273.410156 213.214844 273.890625 213.285156 274.398438 C 213.355469 274.910156 213.328125 275.414062 213.199219 275.914062 C 213.066406 276.414062 212.847656 276.867188 212.535156 277.277344 C 212.226562 277.691406 211.847656 278.027344 211.402344 278.289062 C 210.960938 278.546875 210.480469 278.714844 209.972656 278.785156 C 209.460938 278.855469 208.957031 278.828125 208.457031 278.699219 Z M 208.457031 278.699219 "/><path style=" stroke:none;fill-rule:nonzero;fill:#004930;fill-opacity:1;" d="M 149.171875 244.507812 C 148.679688 244.605469 148.203125 244.5625 147.734375 244.378906 C 147.269531 244.195312 146.886719 243.898438 146.59375 243.496094 C 146.300781 243.089844 146.136719 242.636719 146.109375 242.136719 C 146.078125 241.636719 146.183594 241.167969 146.429688 240.730469 C 153.949219 227.265625 155.675781 216.316406 155.691406 216.210938 C 155.742188 215.871094 155.855469 215.558594 156.03125 215.265625 C 156.207031 214.972656 156.433594 214.726562 156.707031 214.523438 C 156.984375 214.320312 157.285156 214.179688 157.617188 214.09375 C 157.949219 214.011719 158.28125 213.996094 158.617188 214.046875 C 158.957031 214.097656 159.269531 214.210938 159.5625 214.386719 C 159.855469 214.5625 160.101562 214.789062 160.304688 215.0625 C 160.507812 215.339844 160.652344 215.640625 160.734375 215.972656 C 160.816406 216.304688 160.832031 216.636719 160.78125 216.976562 C 160.710938 217.457031 158.929688 228.902344 150.921875 243.238281 C 150.535156 243.929688 149.953125 244.355469 149.171875 244.507812 Z M 149.171875 244.507812 "/><path style=" stroke:none;fill-rule:nonzero;fill:#547f55;fill-opacity:1;" d="M 148.8125 279.199219 L 129.296875 269.347656 C 128.589844 268.992188 127.929688 268.570312 127.308594 268.085938 C 126.6875 267.601562 126.117188 267.058594 125.605469 266.460938 C 125.089844 265.863281 124.640625 265.222656 124.25 264.535156 C 123.863281 263.847656 123.546875 263.128906 123.300781 262.382812 C 123.054688 261.632812 122.882812 260.867188 122.785156 260.085938 C 122.691406 259.300781 122.671875 258.515625 122.730469 257.730469 C 122.789062 256.945312 122.925781 256.171875 123.136719 255.410156 C 123.347656 254.652344 123.628906 253.921875 123.984375 253.214844 L 129.109375 243.0625 C 129.464844 242.359375 129.886719 241.699219 130.371094 241.078125 C 130.855469 240.457031 131.398438 239.886719 131.996094 239.375 C 132.59375 238.859375 133.234375 238.40625 133.921875 238.019531 C 134.609375 237.632812 135.328125 237.316406 136.074219 237.066406 C 136.824219 236.820312 137.589844 236.652344 138.371094 236.554688 C 139.15625 236.460938 139.941406 236.441406 140.726562 236.5 C 141.511719 236.558594 142.285156 236.695312 143.042969 236.90625 C 143.804688 237.117188 144.535156 237.398438 145.238281 237.753906 C 145.878906 238.078125 146.503906 238.429688 147.109375 238.816406 C 147.714844 239.199219 148.300781 239.613281 148.863281 240.054688 C 149.429688 240.496094 149.96875 240.964844 150.488281 241.457031 C 151.007812 241.953125 151.5 242.472656 151.96875 243.015625 C 152.4375 243.558594 152.875 244.125 153.289062 244.710938 C 153.699219 245.296875 154.082031 245.902344 154.433594 246.527344 C 154.785156 247.152344 155.109375 247.792969 155.398438 248.449219 C 155.6875 249.105469 155.941406 249.773438 156.167969 250.453125 C 156.390625 251.136719 156.578125 251.828125 156.734375 252.527344 C 156.890625 253.226562 157.011719 253.933594 157.097656 254.644531 C 157.183594 255.355469 157.234375 256.070312 157.25 256.785156 C 157.265625 257.503906 157.246094 258.21875 157.191406 258.933594 C 157.136719 259.648438 157.046875 260.359375 156.921875 261.066406 C 156.800781 261.773438 156.640625 262.46875 156.445312 263.160156 C 156.253906 263.851562 156.027344 264.53125 155.765625 265.199219 C 155.507812 265.867188 155.214844 266.519531 154.890625 267.160156 Z M 148.8125 279.199219 "/><path style=" stroke:none;fill-rule:nonzero;fill:#547f55;fill-opacity:1;" d="M 148.925781 279.253906 L 130 269.699219 C 130.230469 269.246094 130.5 268.816406 130.816406 268.414062 C 131.128906 268.011719 131.480469 267.644531 131.867188 267.3125 C 132.253906 266.980469 132.671875 266.6875 133.117188 266.4375 C 133.558594 266.183594 134.023438 265.980469 134.507812 265.820312 C 134.992188 265.660156 135.488281 265.550781 135.996094 265.488281 C 136.503906 265.425781 137.011719 265.414062 137.519531 265.453125 C 138.027344 265.488281 138.53125 265.578125 139.019531 265.714844 C 139.511719 265.851562 139.988281 266.035156 140.441406 266.261719 L 152.429688 272.3125 C 152.890625 272.546875 153.289062 272.855469 153.625 273.246094 C 153.960938 273.636719 154.210938 274.078125 154.371094 274.566406 C 154.53125 275.058594 154.59375 275.558594 154.554688 276.074219 C 154.515625 276.585938 154.378906 277.074219 154.148438 277.535156 C 153.914062 277.996094 153.605469 278.394531 153.214844 278.730469 C 152.824219 279.066406 152.382812 279.3125 151.894531 279.476562 C 151.402344 279.636719 150.902344 279.699219 150.386719 279.660156 C 149.875 279.621094 149.386719 279.484375 148.925781 279.253906 Z M 148.925781 279.253906 "/><path style=" stroke:none;fill-rule:nonzero;fill:#005437;fill-opacity:1;" d="M 237.699219 172.140625 C 237.914062 182.863281 238.144531 191.554688 248.878906 191.339844 C 249.515625 191.328125 250.148438 191.285156 250.78125 191.207031 C 251.414062 191.132812 252.039062 191.027344 252.660156 190.890625 C 253.28125 190.753906 253.894531 190.589844 254.5 190.390625 C 255.105469 190.195312 255.699219 189.96875 256.28125 189.714844 C 256.863281 189.460938 257.433594 189.175781 257.988281 188.867188 C 258.542969 188.554688 259.082031 188.21875 259.601562 187.855469 C 260.125 187.488281 260.625 187.101562 261.109375 186.6875 C 261.59375 186.277344 262.054688 185.839844 262.496094 185.382812 C 262.9375 184.921875 263.355469 184.445312 263.746094 183.945312 C 264.140625 183.445312 264.507812 182.925781 264.851562 182.390625 C 265.195312 181.855469 265.511719 181.304688 265.800781 180.738281 C 266.089844 180.171875 266.347656 179.589844 266.582031 179 C 266.8125 178.40625 267.015625 177.804688 267.1875 177.191406 C 267.359375 176.578125 267.5 175.960938 267.613281 175.335938 C 267.722656 174.707031 267.804688 174.078125 267.855469 173.445312 C 267.90625 172.808594 267.921875 172.175781 267.910156 171.539062 C 267.898438 170.902344 267.855469 170.269531 267.78125 169.636719 C 267.703125 169.007812 267.597656 168.378906 267.460938 167.757812 C 267.328125 167.136719 267.160156 166.523438 266.964844 165.921875 C 266.765625 165.316406 266.539062 164.722656 266.285156 164.140625 C 266.03125 163.554688 265.746094 162.988281 265.4375 162.433594 C 265.125 161.878906 264.789062 161.339844 264.425781 160.816406 C 264.0625 160.296875 263.671875 159.792969 263.261719 159.308594 C 262.847656 158.828125 262.410156 158.363281 261.953125 157.921875 C 261.492188 157.484375 261.015625 157.066406 260.515625 156.671875 C 260.015625 156.277344 259.496094 155.910156 258.960938 155.566406 C 258.425781 155.222656 257.875 154.910156 257.308594 154.621094 C 256.742188 154.332031 256.164062 154.070312 255.570312 153.839844 C 254.976562 153.609375 254.375 153.40625 253.761719 153.234375 C 253.152344 153.0625 252.53125 152.917969 251.90625 152.808594 C 251.28125 152.695312 250.648438 152.613281 250.015625 152.566406 C 249.382812 152.515625 248.746094 152.496094 248.109375 152.507812 C 237.382812 152.722656 237.484375 161.417969 237.699219 172.140625 Z M 237.699219 172.140625 "/><path style=" stroke:none;fill-rule:nonzero;fill:#547f55;fill-opacity:1;" d="M 259.183594 168.34375 L 259.328125 175.425781 C 259.359375 177.015625 259.3125 178.605469 259.1875 180.191406 C 259.0625 181.777344 258.863281 183.351562 258.582031 184.917969 C 258.304688 186.484375 257.949219 188.035156 257.515625 189.566406 C 257.085938 191.097656 256.582031 192.601562 256 194.085938 C 255.421875 195.566406 254.773438 197.015625 254.050781 198.433594 C 253.328125 199.851562 252.539062 201.230469 251.683594 202.570312 C 250.824219 203.910156 249.902344 205.203125 248.917969 206.453125 C 247.9375 207.703125 246.890625 208.902344 245.789062 210.050781 C 244.6875 211.195312 243.53125 212.289062 242.324219 213.320312 C 241.113281 214.355469 239.859375 215.328125 238.554688 216.238281 C 237.25 217.148438 235.902344 217.992188 234.515625 218.769531 C 233.128906 219.546875 231.707031 220.253906 230.25 220.894531 C 228.792969 221.53125 227.304688 222.097656 225.792969 222.589844 C 224.28125 223.082031 222.746094 223.5 221.195312 223.839844 C 219.640625 224.183594 218.074219 224.449219 216.496094 224.636719 C 214.914062 224.824219 213.328125 224.933594 211.738281 224.96875 L 157.640625 226.042969 C 156.050781 226.074219 154.460938 226.027344 152.875 225.90625 C 151.289062 225.78125 149.714844 225.578125 148.148438 225.300781 C 146.582031 225.019531 145.03125 224.664062 143.5 224.234375 C 141.96875 223.804688 140.464844 223.296875 138.984375 222.71875 C 137.5 222.140625 136.050781 221.488281 134.632812 220.765625 C 133.214844 220.046875 131.835938 219.257812 130.496094 218.398438 C 129.15625 217.542969 127.863281 216.621094 126.613281 215.636719 C 125.363281 214.652344 124.164062 213.609375 123.015625 212.507812 C 121.867188 211.40625 120.777344 210.25 119.746094 209.039062 C 118.710938 207.832031 117.738281 206.574219 116.828125 205.269531 C 115.917969 203.964844 115.074219 202.621094 114.296875 201.230469 C 113.519531 199.84375 112.808594 198.421875 112.171875 196.964844 C 111.535156 195.507812 110.96875 194.023438 110.476562 192.511719 C 109.984375 190.996094 109.566406 189.464844 109.226562 187.910156 C 108.882812 186.355469 108.617188 184.789062 108.429688 183.210938 C 108.242188 181.632812 108.132812 180.046875 108.101562 178.457031 L 107.921875 171.347656 C 107.890625 169.757812 107.9375 168.167969 108.0625 166.582031 C 108.1875 164.996094 108.386719 163.417969 108.667969 161.851562 C 108.945312 160.285156 109.304688 158.734375 109.734375 157.203125 C 110.167969 155.671875 110.671875 154.164062 111.25 152.683594 C 111.832031 151.199219 112.484375 149.75 113.203125 148.332031 C 113.925781 146.914062 114.71875 145.535156 115.574219 144.195312 C 116.433594 142.855469 117.355469 141.558594 118.339844 140.308594 C 119.324219 139.058594 120.367188 137.859375 121.472656 136.714844 C 122.574219 135.566406 123.730469 134.476562 124.941406 133.441406 C 126.152344 132.40625 127.410156 131.4375 128.714844 130.527344 C 130.019531 129.617188 131.367188 128.773438 132.757812 127.996094 C 134.144531 127.214844 135.566406 126.507812 137.027344 125.871094 C 138.484375 125.234375 139.96875 124.667969 141.484375 124.175781 C 142.996094 123.683594 144.53125 123.269531 146.085938 122.925781 C 147.640625 122.585938 149.207031 122.324219 150.789062 122.136719 C 152.367188 121.949219 153.953125 121.839844 155.546875 121.808594 L 209.640625 120.730469 C 211.230469 120.699219 212.820312 120.746094 214.40625 120.871094 C 215.992188 120.996094 217.570312 121.199219 219.136719 121.476562 C 220.703125 121.757812 222.25 122.113281 223.78125 122.542969 C 225.316406 122.976562 226.820312 123.480469 228.304688 124.058594 C 229.785156 124.640625 231.234375 125.289062 232.652344 126.011719 C 234.070312 126.734375 235.449219 127.523438 236.792969 128.382812 C 238.132812 129.238281 239.425781 130.160156 240.675781 131.144531 C 241.925781 132.128906 243.125 133.171875 244.273438 134.277344 C 245.421875 135.378906 246.511719 136.535156 247.542969 137.746094 C 248.578125 138.953125 249.550781 140.210938 250.460938 141.515625 C 251.371094 142.824219 252.214844 144.167969 252.992188 145.558594 C 253.769531 146.945312 254.480469 148.367188 255.117188 149.824219 C 255.753906 151.285156 256.320312 152.769531 256.8125 154.28125 C 257.304688 155.796875 257.722656 157.328125 258.0625 158.882812 C 258.402344 160.4375 258.667969 162.003906 258.855469 163.585938 C 259.042969 165.164062 259.152344 166.75 259.183594 168.34375 Z M 259.183594 168.34375 "/><path style=" stroke:none;fill-rule:nonzero;fill:#005437;fill-opacity:1;" d="M 221.171875 205.199219 L 157.667969 206.460938 C 156.96875 206.476562 156.277344 206.421875 155.589844 206.296875 C 154.898438 206.175781 154.230469 205.988281 153.582031 205.730469 C 152.929688 205.476562 152.308594 205.164062 151.722656 204.785156 C 151.132812 204.410156 150.585938 203.980469 150.082031 203.496094 C 149.578125 203.011719 149.128906 202.484375 148.726562 201.910156 C 148.328125 201.335938 147.988281 200.730469 147.707031 200.089844 C 147.425781 199.449219 147.210938 198.789062 147.0625 198.105469 C 146.910156 197.425781 146.828125 196.734375 146.816406 196.035156 L 146.082031 159.058594 C 146.066406 158.363281 146.121094 157.667969 146.246094 156.980469 C 146.367188 156.292969 146.554688 155.625 146.808594 154.972656 C 147.066406 154.324219 147.378906 153.703125 147.757812 153.117188 C 148.132812 152.527344 148.5625 151.980469 149.046875 151.476562 C 149.53125 150.972656 150.058594 150.523438 150.632812 150.121094 C 151.207031 149.722656 151.8125 149.382812 152.453125 149.101562 C 153.09375 148.824219 153.753906 148.609375 154.4375 148.457031 C 155.117188 148.308594 155.808594 148.226562 156.507812 148.210938 L 197.960938 147.386719 L 220.015625 146.941406 C 220.714844 146.925781 221.40625 146.980469 222.09375 147.101562 C 222.785156 147.226562 223.453125 147.414062 224.101562 147.667969 C 224.753906 147.921875 225.375 148.238281 225.960938 148.613281 C 226.550781 148.992188 227.097656 149.421875 227.601562 149.90625 C 228.105469 150.390625 228.554688 150.917969 228.953125 151.492188 C 229.355469 152.0625 229.695312 152.671875 229.972656 153.3125 C 230.253906 153.949219 230.46875 154.613281 230.617188 155.292969 C 230.769531 155.976562 230.851562 156.667969 230.863281 157.367188 L 231.597656 194.339844 C 231.613281 195.039062 231.558594 195.734375 231.4375 196.421875 C 231.316406 197.109375 231.125 197.78125 230.871094 198.429688 C 230.617188 199.082031 230.304688 199.703125 229.925781 200.292969 C 229.550781 200.878906 229.121094 201.425781 228.636719 201.929688 C 228.152344 202.4375 227.625 202.886719 227.050781 203.289062 C 226.476562 203.6875 225.871094 204.027344 225.230469 204.308594 C 224.589844 204.589844 223.925781 204.804688 223.246094 204.953125 C 222.5625 205.101562 221.871094 205.183594 221.171875 205.199219 Z M 221.171875 205.199219 "/><path style=" stroke:none;fill-rule:nonzero;fill:#004930;fill-opacity:1;" d="M 221.109375 201.996094 L 157.601562 203.257812 C 156.902344 203.273438 156.210938 203.21875 155.519531 203.097656 C 154.832031 202.972656 154.164062 202.785156 153.511719 202.53125 C 152.863281 202.277344 152.242188 201.960938 151.65625 201.585938 C 151.066406 201.207031 150.519531 200.777344 150.015625 200.292969 C 149.511719 199.808594 149.0625 199.28125 148.660156 198.707031 C 148.261719 198.136719 147.921875 197.527344 147.640625 196.890625 C 147.363281 196.25 147.148438 195.585938 147 194.90625 C 146.847656 194.222656 146.765625 193.53125 146.753906 192.835938 L 146.019531 155.859375 C 146.003906 155.160156 146.058594 154.464844 146.183594 153.777344 C 146.304688 153.089844 146.492188 152.421875 146.746094 151.769531 C 147 151.121094 147.316406 150.5 147.691406 149.914062 C 148.070312 149.324219 148.5 148.777344 148.984375 148.273438 C 149.46875 147.769531 149.996094 147.320312 150.570312 146.917969 C 151.144531 146.519531 151.75 146.179688 152.390625 145.898438 C 153.03125 145.621094 153.691406 145.40625 154.371094 145.253906 C 155.054688 145.105469 155.746094 145.023438 156.445312 145.011719 L 197.898438 144.183594 L 219.949219 143.738281 C 220.648438 143.726562 221.339844 143.777344 222.027344 143.902344 C 222.714844 144.023438 223.386719 144.210938 224.035156 144.46875 C 224.6875 144.722656 225.308594 145.035156 225.894531 145.414062 C 226.484375 145.789062 227.03125 146.21875 227.535156 146.703125 C 228.039062 147.1875 228.488281 147.714844 228.890625 148.289062 C 229.289062 148.863281 229.628906 149.46875 229.910156 150.109375 C 230.191406 150.75 230.40625 151.410156 230.554688 152.09375 C 230.703125 152.773438 230.789062 153.464844 230.800781 154.164062 L 231.535156 191.140625 C 231.550781 191.839844 231.496094 192.53125 231.375 193.21875 C 231.25 193.90625 231.0625 194.578125 230.808594 195.230469 C 230.554688 195.878906 230.238281 196.5 229.863281 197.089844 C 229.488281 197.675781 229.054688 198.222656 228.574219 198.726562 C 228.089844 199.230469 227.558594 199.683594 226.988281 200.085938 C 226.414062 200.484375 225.808594 200.824219 225.167969 201.105469 C 224.527344 201.386719 223.863281 201.601562 223.183594 201.75 C 222.5 201.898438 221.808594 201.980469 221.109375 201.996094 Z M 221.109375 201.996094 "/><path style=" stroke:none;fill-rule:nonzero;fill:#005437;fill-opacity:1;" d="M 205.925781 120.804688 C 205.398438 121.734375 204.808594 122.628906 204.15625 123.484375 C 203.507812 124.335938 202.804688 125.144531 202.046875 125.902344 C 201.289062 126.664062 200.484375 127.367188 199.632812 128.019531 C 198.78125 128.671875 197.890625 129.261719 196.960938 129.796875 C 196.027344 130.328125 195.066406 130.796875 194.070312 131.199219 C 193.078125 131.601562 192.0625 131.9375 191.023438 132.203125 C 189.984375 132.472656 188.929688 132.667969 187.867188 132.792969 C 186.800781 132.921875 185.730469 132.976562 184.660156 132.957031 C 169.402344 132.957031 165.1875 121.617188 165.1875 121.617188 Z M 205.925781 120.804688 "/><path style=" stroke:none;fill-rule:nonzero;fill:#547f55;fill-opacity:1;" d="M 224.675781 79.035156 C 196.898438 81.777344 188.773438 94.082031 186.46875 102.253906 C 183.902344 96.199219 176.832031 88.367188 157.515625 87.054688 C 157.335938 87.042969 157.152344 87.050781 156.972656 87.082031 C 156.792969 87.113281 156.621094 87.164062 156.453125 87.234375 C 156.285156 87.304688 156.125 87.394531 155.980469 87.5 C 155.832031 87.609375 155.699219 87.730469 155.582031 87.871094 C 155.464844 88.007812 155.363281 88.160156 155.28125 88.324219 C 155.199219 88.484375 155.136719 88.65625 155.09375 88.832031 C 155.050781 89.007812 155.027344 89.1875 155.027344 89.371094 C 155.027344 89.554688 155.046875 89.734375 155.085938 89.910156 C 156.867188 97.675781 163.539062 117.355469 183.996094 110.972656 C 183.25 114.617188 182.851562 118.296875 182.800781 122.015625 C 182.792969 122.40625 182.863281 122.785156 183.007812 123.144531 C 183.152344 123.507812 183.363281 123.828125 183.640625 124.101562 C 183.917969 124.378906 184.234375 124.589844 184.597656 124.734375 C 184.960938 124.882812 185.335938 124.949219 185.726562 124.945312 C 186.097656 124.9375 186.457031 124.859375 186.796875 124.714844 C 187.140625 124.570312 187.441406 124.363281 187.707031 124.101562 C 187.96875 123.839844 188.171875 123.535156 188.320312 123.195312 C 188.464844 122.851562 188.542969 122.496094 188.550781 122.125 C 188.585938 118.417969 189.023438 114.757812 189.855469 111.148438 C 218.203125 119.402344 225.542969 91.207031 227.210938 81.761719 C 227.242188 81.585938 227.253906 81.40625 227.242188 81.226562 C 227.230469 81.046875 227.199219 80.871094 227.148438 80.699219 C 227.097656 80.527344 227.027344 80.359375 226.9375 80.203125 C 226.847656 80.046875 226.742188 79.902344 226.621094 79.773438 C 226.496094 79.640625 226.363281 79.523438 226.210938 79.421875 C 226.0625 79.324219 225.902344 79.242188 225.734375 79.175781 C 225.566406 79.113281 225.394531 79.070312 225.214844 79.046875 C 225.035156 79.023438 224.855469 79.019531 224.675781 79.035156 Z M 224.675781 79.035156 "/><path style=" stroke:none;fill-rule:nonzero;fill:#005437;fill-opacity:1;" d="M 129.832031 176.605469 C 129.996094 187.328125 130.058594 196.023438 119.335938 196.175781 C 118.691406 196.195312 118.050781 196.179688 117.410156 196.136719 C 116.769531 196.09375 116.132812 196.015625 115.5 195.910156 C 114.867188 195.800781 114.242188 195.664062 113.621094 195.496094 C 113.003906 195.324219 112.394531 195.125 111.792969 194.894531 C 111.195312 194.664062 110.609375 194.40625 110.035156 194.117188 C 109.460938 193.832031 108.902344 193.515625 108.359375 193.171875 C 107.816406 192.828125 107.292969 192.457031 106.785156 192.0625 C 106.28125 191.667969 105.796875 191.25 105.332031 190.804688 C 104.867188 190.359375 104.425781 189.894531 104.007812 189.410156 C 103.589844 188.921875 103.195312 188.414062 102.828125 187.886719 C 102.460938 187.363281 102.121094 186.820312 101.804688 186.257812 C 101.492188 185.699219 101.207031 185.125 100.949219 184.535156 C 100.691406 183.949219 100.464844 183.347656 100.265625 182.738281 C 100.070312 182.125 99.902344 181.507812 99.765625 180.878906 C 99.628906 180.25 99.527344 179.617188 99.453125 178.980469 C 99.378906 178.34375 99.335938 177.703125 99.328125 177.0625 C 99.316406 176.417969 99.339844 175.777344 99.394531 175.136719 C 99.445312 174.5 99.53125 173.863281 99.648438 173.230469 C 99.765625 172.601562 99.914062 171.976562 100.089844 171.359375 C 100.269531 170.742188 100.480469 170.136719 100.71875 169.539062 C 100.957031 168.945312 101.222656 168.359375 101.519531 167.792969 C 101.816406 167.222656 102.140625 166.667969 102.492188 166.132812 C 102.84375 165.59375 103.21875 165.074219 103.625 164.574219 C 104.027344 164.074219 104.453125 163.597656 104.902344 163.136719 C 105.355469 162.679688 105.824219 162.246094 106.320312 161.835938 C 106.8125 161.425781 107.324219 161.039062 107.855469 160.679688 C 108.386719 160.320312 108.9375 159.988281 109.5 159.679688 C 110.066406 159.375 110.644531 159.097656 111.238281 158.851562 C 111.828125 158.601562 112.429688 158.382812 113.046875 158.195312 C 113.660156 158.007812 114.28125 157.847656 114.910156 157.722656 C 115.539062 157.59375 116.171875 157.5 116.8125 157.433594 C 117.453125 157.371094 118.09375 157.339844 118.734375 157.339844 C 129.460938 157.1875 129.667969 165.878906 129.832031 176.605469 Z M 129.832031 176.605469 "/><path style=" stroke:none;fill-rule:nonzero;fill:#547f55;fill-opacity:1;" d="M 186.339844 181.859375 L 193.394531 181.710938 C 193.570312 181.710938 193.742188 181.746094 193.902344 181.8125 C 194.066406 181.878906 194.210938 181.976562 194.335938 182.101562 C 194.460938 182.226562 194.558594 182.371094 194.625 182.535156 C 194.695312 182.699219 194.726562 182.867188 194.726562 183.046875 C 194.691406 185.925781 194.160156 192.410156 190.128906 192.699219 C 186.101562 192.988281 185.238281 186.214844 185.050781 183.25 C 185.042969 183.070312 185.070312 182.898438 185.128906 182.730469 C 185.191406 182.5625 185.285156 182.414062 185.40625 182.285156 C 185.527344 182.152344 185.667969 182.050781 185.828125 181.976562 C 185.992188 181.902344 186.160156 181.863281 186.339844 181.859375 Z M 186.339844 181.859375 "/><path style=" stroke:none;fill-rule:nonzero;fill:#547f55;fill-opacity:1;" d="M 178.792969 177.46875 C 178.8125 177.953125 178.789062 178.4375 178.714844 178.921875 C 178.640625 179.402344 178.519531 179.871094 178.351562 180.332031 C 178.1875 180.789062 177.976562 181.226562 177.722656 181.644531 C 177.472656 182.058594 177.179688 182.449219 176.851562 182.808594 C 176.523438 183.167969 176.160156 183.492188 175.769531 183.78125 C 175.375 184.066406 174.957031 184.316406 174.515625 184.519531 C 174.074219 184.726562 173.617188 184.890625 173.144531 185.003906 C 172.671875 185.121094 172.191406 185.191406 171.703125 185.210938 C 171.214844 185.234375 170.730469 185.207031 170.25 185.132812 C 169.769531 185.058594 169.296875 184.9375 168.839844 184.773438 C 168.382812 184.605469 167.945312 184.394531 167.527344 184.144531 C 167.113281 183.890625 166.722656 183.597656 166.363281 183.269531 C 166.003906 182.941406 165.679688 182.578125 165.390625 182.1875 C 165.101562 181.792969 164.855469 181.375 164.648438 180.933594 C 164.445312 180.492188 164.28125 180.035156 164.167969 179.5625 C 164.050781 179.089844 163.980469 178.609375 163.960938 178.121094 C 163.777344 174.03125 166.851562 168.25 170.941406 168.066406 C 175.035156 167.882812 178.636719 173.371094 178.792969 177.46875 Z M 178.792969 177.46875 "/><path style=" stroke:none;fill-rule:nonzero;fill:#547f55;fill-opacity:1;" d="M 215.550781 177.46875 C 215.574219 177.953125 215.546875 178.441406 215.472656 178.921875 C 215.398438 179.402344 215.28125 179.875 215.113281 180.332031 C 214.949219 180.789062 214.738281 181.226562 214.488281 181.644531 C 214.234375 182.0625 213.941406 182.449219 213.613281 182.808594 C 213.285156 183.167969 212.925781 183.492188 212.53125 183.78125 C 212.140625 184.070312 211.722656 184.316406 211.28125 184.523438 C 210.839844 184.730469 210.378906 184.890625 209.90625 185.007812 C 209.433594 185.125 208.953125 185.191406 208.464844 185.214844 C 207.980469 185.234375 207.496094 185.210938 207.011719 185.136719 C 206.53125 185.0625 206.0625 184.941406 205.601562 184.773438 C 205.144531 184.609375 204.707031 184.398438 204.292969 184.144531 C 203.875 183.894531 203.484375 183.601562 203.125 183.273438 C 202.765625 182.941406 202.445312 182.582031 202.15625 182.1875 C 201.867188 181.796875 201.621094 181.378906 201.414062 180.9375 C 201.207031 180.492188 201.046875 180.035156 200.933594 179.5625 C 200.816406 179.089844 200.75 178.609375 200.726562 178.121094 C 200.546875 174.03125 203.613281 168.25 207.710938 168.066406 C 211.804688 167.882812 215.363281 173.371094 215.550781 177.46875 Z M 215.550781 177.46875 "/></g></svg>